Mitr-Light.ufo
<glyph name="quotedbl" format="1">
  <advance width="332"/>
  <unicode hex="0022"/>
  <note>
	quotedbl
  </note>
  <outline>
    <contour>
      <point x="250" y="495" type="line" smooth="yes"/>
      <point x="271" y="495"/>
      <point x="279" y="502"/>
      <point x="280" y="521" type="curve" smooth="yes"/>
      <point x="286" y="671" type="line" smooth="yes"/>
      <point x="287" y="691"/>
      <point x="278" y="697"/>
      <point x="255" y="697" type="curve" smooth="yes"/>
      <point x="239" y="697" type="line" smooth="yes"/>
      <point x="216" y="697"/>
      <point x="207" y="691"/>
      <point x="208" y="671" type="curve" smooth="yes"/>
      <point x="213" y="521" type="line" smooth="yes"/>
      <point x="214" y="503"/>
      <point x="221" y="495"/>
      <point x="238" y="495" type="curve" smooth="yes"/>
    </contour>
    <contour>
      <point x="89" y="495" type="line" smooth="yes"/>
      <point x="110" y="495"/>
      <point x="118" y="502"/>
      <point x="119" y="521" type="curve" smooth="yes"/>
      <point x="125" y="671" type="line" smooth="yes"/>
      <point x="126" y="691"/>
      <point x="117" y="697"/>
      <point x="94" y="697" type="curve" smooth="yes"/>
      <point x="78" y="697" type="line" smooth="yes"/>
      <point x="55" y="697"/>
      <point x="46" y="691"/>
      <point x="47" y="671" type="curve" smooth="yes"/>
      <point x="52" y="521" type="line" smooth="yes"/>
      <point x="53" y="503"/>
      <point x="60" y="495"/>
      <point x="77" y="495" type="curve" smooth="yes"/>
    </contour>
  </outline>
</glyph>
<glyph name="ampersand" format="1">
  <advance width="727"/>
  <unicode hex="0026"/>
  <note>
	ampersand
  </note>
  <outline>
    <contour>
      <point x="532" y="-15"/>
      <point x="613" y="112"/>
      <point x="613" y="268" type="curve" smooth="yes"/>
      <point x="613" y="325" type="line"/>
      <point x="661" y="325" type="line" smooth="yes"/>
      <point x="682" y="325"/>
      <point x="690" y="332"/>
      <point x="690" y="353" type="curve" smooth="yes"/>
      <point x="690" y="369" type="line" smooth="yes"/>
      <point x="690" y="390"/>
      <point x="682" y="398"/>
      <point x="661" y="398" type="curve" smooth="yes"/>
      <point x="319" y="398" type="line" smooth="yes"/>
      <point x="229" y="398"/>
      <point x="164" y="412"/>
      <point x="164" y="507" type="curve" smooth="yes"/>
      <point x="164" y="589"/>
      <point x="230" y="622"/>
      <point x="332" y="622" type="curve" smooth="yes"/>
      <point x="416" y="622"/>
      <point x="458" y="602"/>
      <point x="493" y="575" type="curve"/>
      <point x="503" y="568"/>
      <point x="507" y="570"/>
      <point x="513" y="579" type="curve" smooth="yes"/>
      <point x="536" y="613" type="line" smooth="yes"/>
      <point x="542" y="622"/>
      <point x="541" y="628"/>
      <point x="532" y="635" type="curve" smooth="yes"/>
      <point x="488" y="669"/>
      <point x="429" y="695"/>
      <point x="325" y="695" type="curve" smooth="yes"/>
      <point x="189" y="695"/>
      <point x="76" y="637"/>
      <point x="76" y="507" type="curve" smooth="yes"/>
      <point x="76" y="446"/>
      <point x="106" y="391"/>
      <point x="156" y="364" type="curve"/>
      <point x="81" y="336"/>
      <point x="48" y="262"/>
      <point x="48" y="189" type="curve" smooth="yes"/>
      <point x="48" y="74"/>
      <point x="131" y="-15"/>
      <point x="327" y="-15" type="curve" smooth="yes"/>
    </contour>
    <contour>
      <point x="203" y="55"/>
      <point x="136" y="99"/>
      <point x="136" y="194" type="curve" smooth="yes"/>
      <point x="136" y="284"/>
      <point x="189" y="325"/>
      <point x="279" y="325" type="curve" smooth="yes"/>
      <point x="527" y="325" type="line"/>
      <point x="527" y="267" type="line" smooth="yes"/>
      <point x="527" y="132"/>
      <point x="471" y="55"/>
      <point x="328" y="55" type="curve" smooth="yes"/>
    </contour>
  </outline>
</glyph>
<glyph name="quotesingle" format="1">
  <advance width="176"/>
  <unicode hex="0027"/>
  <note>
	quotesingle
  </note>
  <outline>
    <contour>
      <point x="94" y="495" type="line" smooth="yes"/>
      <point x="115" y="495"/>
      <point x="123" y="502"/>
      <point x="124" y="521" type="curve" smooth="yes"/>
      <point x="130" y="671" type="line" smooth="yes"/>
      <point x="131" y="691"/>
      <point x="122" y="697"/>
      <point x="99" y="697" type="curve" smooth="yes"/>
      <point x="78" y="697" type="line" smooth="yes"/>
      <point x="55" y="697"/>
      <point x="46" y="691"/>
      <point x="47" y="671" type="curve" smooth="yes"/>
      <point x="52" y="521" type="line" smooth="yes"/>
      <point x="53" y="503"/>
      <point x="60" y="495"/>
      <point x="77" y="495" type="curve" smooth="yes"/>
    </contour>
  </outline>
</glyph>
<glyph name="parenright" format="1">
  <advance width="342"/>
  <unicode hex="0029"/>
  <note>
	parenright
  </note>
  <outline>
    <contour>
      <point x="216" y="-64"/>
      <point x="295" y="114"/>
      <point x="295" y="316" type="curve" smooth="yes"/>
      <point x="295" y="518"/>
      <point x="216" y="696"/>
      <point x="80" y="758" type="curve" smooth="yes"/>
      <point x="49" y="771"/>
      <point x="29" y="765"/>
      <point x="29" y="736" type="curve" smooth="yes"/>
      <point x="29" y="709"/>
      <point x="36" y="703"/>
      <point x="55" y="690" type="curve" smooth="yes"/>
      <point x="158" y="623"/>
      <point x="206" y="480"/>
      <point x="206" y="316" type="curve" smooth="yes"/>
      <point x="206" y="152"/>
      <point x="158" y="9"/>
      <point x="55" y="-58" type="curve" smooth="yes"/>
      <point x="36" y="-71"/>
      <point x="29" y="-77"/>
      <point x="29" y="-104" type="curve" smooth="yes"/>
      <point x="29" y="-133"/>
      <point x="49" y="-139"/>
      <point x="80" y="-126" type="curve" smooth="yes"/>
    </contour>
  </outline>
</glyph>
<glyph name="plus" format="1">
  <advance width="473"/>
  <unicode hex="002B"/>
  <note>
	plus
  </note>
  <outline>
    <contour>
      <point x="255" y="125" type="line" smooth="yes"/>
      <point x="269" y="125"/>
      <point x="276" y="132"/>
      <point x="276" y="146" type="curve" smooth="yes"/>
      <point x="276" y="260" type="line"/>
      <point x="405" y="260" type="line" smooth="yes"/>
      <point x="419" y="260"/>
      <point x="426" y="267"/>
      <point x="426" y="281" type="curve" smooth="yes"/>
      <point x="426" y="312" type="line" smooth="yes"/>
      <point x="426" y="326"/>
      <point x="419" y="333"/>
      <point x="405" y="333" type="curve" smooth="yes"/>
      <point x="276" y="333" type="line"/>
      <point x="276" y="448" type="line" smooth="yes"/>
      <point x="276" y="462"/>
      <point x="269" y="469"/>
      <point x="255" y="469" type="curve" smooth="yes"/>
      <point x="217" y="469" type="line" smooth="yes"/>
      <point x="203" y="469"/>
      <point x="196" y="462"/>
      <point x="196" y="448" type="curve" smooth="yes"/>
      <point x="196" y="333" type="line"/>
      <point x="68" y="333" type="line" smooth="yes"/>
      <point x="54" y="333"/>
      <point x="47" y="326"/>
      <point x="47" y="312" type="curve" smooth="yes"/>
      <point x="47" y="281" type="line" smooth="yes"/>
      <point x="47" y="267"/>
      <point x="54" y="260"/>
      <point x="68" y="260" type="curve" smooth="yes"/>
      <point x="196" y="260" type="line"/>
      <point x="196" y="146" type="line" smooth="yes"/>
      <point x="196" y="132"/>
      <point x="203" y="125"/>
      <point x="217" y="125" type="curve" smooth="yes"/>
    </contour>
  </outline>
</glyph>
<glyph name="slash" format="1">
  <advance width="457"/>
  <unicode hex="002F"/>
  <note>
	slash
  </note>
  <outline>
    <contour>
      <point x="122" y="0" type="line" smooth="yes"/>
      <point x="133" y="0"/>
      <point x="139" y="5"/>
      <point x="142" y="13" type="curve" smooth="yes"/>
      <point x="408" y="661" type="line" smooth="yes"/>
      <point x="412" y="671"/>
      <point x="411" y="680"/>
      <point x="399" y="680" type="curve" smooth="yes"/>
      <point x="335" y="680" type="line" smooth="yes"/>
      <point x="325" y="680"/>
      <point x="319" y="675"/>
      <point x="316" y="667" type="curve" smooth="yes"/>
      <point x="50" y="19" type="line" smooth="yes"/>
      <point x="46" y="9"/>
      <point x="46" y="0"/>
      <point x="59" y="0" type="curve" smooth="yes"/>
    </contour>
  </outline>
</glyph>
<glyph name="zero" format="1">
  <advance width="739"/>
  <unicode hex="0030"/>
  <note>
	zero
  </note>
  <outline>
    <contour>
      <point x="583" y="-15"/>
      <point x="692" y="115"/>
      <point x="692" y="340" type="curve" smooth="yes"/>
      <point x="692" y="565"/>
      <point x="583" y="695"/>
      <point x="370" y="695" type="curve" smooth="yes"/>
      <point x="156" y="695"/>
      <point x="47" y="565"/>
      <point x="47" y="340" type="curve" smooth="yes"/>
      <point x="47" y="115"/>
      <point x="156" y="-15"/>
      <point x="370" y="-15" type="curve" smooth="yes"/>
    </contour>
    <contour>
      <point x="155" y="188"/>
      <point x="136" y="253"/>
      <point x="136" y="340" type="curve" smooth="yes"/>
      <point x="136" y="528"/>
      <point x="214" y="625"/>
      <point x="370" y="625" type="curve" smooth="yes"/>
      <point x="425" y="625"/>
      <point x="471" y="612"/>
      <point x="506" y="587" type="curve"/>
      <point x="192" y="144" type="line"/>
    </contour>
    <contour>
      <point x="315" y="55"/>
      <point x="270" y="67"/>
      <point x="235" y="90" type="curve"/>
      <point x="550" y="534" type="line"/>
      <point x="584" y="490"/>
      <point x="603" y="425"/>
      <point x="603" y="340" type="curve" smooth="yes"/>
      <point x="603" y="152"/>
      <point x="525" y="55"/>
      <point x="370" y="55" type="curve" smooth="yes"/>
    </contour>
  </outline>
</glyph>
<glyph name="three" format="1">
  <advance width="589"/>
  <unicode hex="0033"/>
  <note>
	three
  </note>
  <outline>
    <contour>
      <point x="454" y="-15"/>
      <point x="542" y="72"/>
      <point x="542" y="191" type="curve" smooth="yes"/>
      <point x="542" y="266"/>
      <point x="507" y="327"/>
      <point x="425" y="354" type="curve"/>
      <point x="487" y="383"/>
      <point x="521" y="445"/>
      <point x="521" y="508" type="curve" smooth="yes"/>
      <point x="521" y="621"/>
      <point x="430" y="695"/>
      <point x="281" y="695" type="curve" smooth="yes"/>
      <point x="192" y="695"/>
      <point x="114" y="675"/>
      <point x="70" y="645" type="curve" smooth="yes"/>
      <point x="61" y="639"/>
      <point x="60" y="633"/>
      <point x="66" y="623" type="curve" smooth="yes"/>
      <point x="86" y="589" type="line" smooth="yes"/>
      <point x="92" y="579"/>
      <point x="95" y="579"/>
      <point x="106" y="585" type="curve"/>
      <point x="143" y="607"/>
      <point x="199" y="625"/>
      <point x="270" y="625" type="curve" smooth="yes"/>
      <point x="372" y="625"/>
      <point x="432" y="587"/>
      <point x="432" y="506" type="curve" smooth="yes"/>
      <point x="432" y="445"/>
      <point x="395" y="388"/>
      <point x="308" y="388" type="curve" smooth="yes"/>
      <point x="220" y="388" type="line" smooth="yes"/>
      <point x="199" y="388"/>
      <point x="190" y="381"/>
      <point x="190" y="361" type="curve" smooth="yes"/>
      <point x="190" y="345" type="line" smooth="yes"/>
      <point x="190" y="324"/>
      <point x="199" y="316"/>
      <point x="220" y="316" type="curve" smooth="yes"/>
      <point x="306" y="316" type="line" smooth="yes"/>
      <point x="402" y="316"/>
      <point x="453" y="277"/>
      <point x="453" y="193" type="curve" smooth="yes"/>
      <point x="453" y="113"/>
      <point x="404" y="55"/>
      <point x="275" y="55" type="curve" smooth="yes"/>
      <point x="196" y="55"/>
      <point x="135" y="73"/>
      <point x="92" y="98" type="curve" smooth="yes"/>
      <point x="82" y="104"/>
      <point x="79" y="104"/>
      <point x="73" y="94" type="curve" smooth="yes"/>
      <point x="51" y="57" type="line" smooth="yes"/>
      <point x="45" y="47"/>
      <point x="47" y="41"/>
      <point x="56" y="35" type="curve"/>
      <point x="108" y="3"/>
      <point x="181" y="-15"/>
      <point x="285" y="-15" type="curve" smooth="yes"/>
    </contour>
  </outline>
</glyph>
<glyph name="five" format="1">
  <advance width="611"/>
  <unicode hex="0035"/>
  <note>
	five
  </note>
  <outline>
    <contour>
      <point x="455" y="-15"/>
      <point x="564" y="75"/>
      <point x="564" y="217" type="curve" smooth="yes"/>
      <point x="564" y="383"/>
      <point x="464" y="448"/>
      <point x="309" y="448" type="curve" smooth="yes"/>
      <point x="244" y="448"/>
      <point x="197" y="440"/>
      <point x="155" y="425" type="curve"/>
      <point x="167" y="607" type="line"/>
      <point x="503" y="607" type="line" smooth="yes"/>
      <point x="524" y="607"/>
      <point x="533" y="615"/>
      <point x="533" y="636" type="curve" smooth="yes"/>
      <point x="533" y="653" type="line" smooth="yes"/>
      <point x="533" y="673"/>
      <point x="524" y="680"/>
      <point x="503" y="680" type="curve" smooth="yes"/>
      <point x="117" y="680" type="line" smooth="yes"/>
      <point x="95" y="680"/>
      <point x="88" y="670"/>
      <point x="87" y="652" type="curve" smooth="yes"/>
      <point x="70" y="392" type="line" smooth="yes"/>
      <point x="68" y="352"/>
      <point x="108" y="337"/>
      <point x="142" y="351" type="curve"/>
      <point x="181" y="370"/>
      <point x="233" y="381"/>
      <point x="293" y="381" type="curve" smooth="yes"/>
      <point x="419" y="381"/>
      <point x="474" y="341"/>
      <point x="474" y="217" type="curve" smooth="yes"/>
      <point x="474" y="109"/>
      <point x="407" y="55"/>
      <point x="280" y="55" type="curve" smooth="yes"/>
      <point x="198" y="55"/>
      <point x="131" y="75"/>
      <point x="92" y="99" type="curve" smooth="yes"/>
      <point x="82" y="105"/>
      <point x="78" y="105"/>
      <point x="73" y="96" type="curve" smooth="yes"/>
      <point x="51" y="59" type="line" smooth="yes"/>
      <point x="45" y="49"/>
      <point x="47" y="43"/>
      <point x="56" y="37" type="curve" smooth="yes"/>
      <point x="101" y="6"/>
      <point x="190" y="-15"/>
      <point x="280" y="-15" type="curve" smooth="yes"/>
    </contour>
  </outline>
</glyph>
<glyph name="six" format="1">
  <advance width="639"/>
  <unicode hex="0036"/>
  <note>
	six
  </note>
  <outline>
    <contour>
      <point x="486" y="-15"/>
      <point x="592" y="72"/>
      <point x="592" y="244" type="curve" smooth="yes"/>
      <point x="592" y="386"/>
      <point x="484" y="475"/>
      <point x="341" y="475" type="curve" smooth="yes"/>
      <point x="248" y="475"/>
      <point x="183" y="451"/>
      <point x="137" y="399" type="curve"/>
      <point x="158" y="547"/>
      <point x="223" y="625"/>
      <point x="343" y="625" type="curve" smooth="yes"/>
      <point x="411" y="625"/>
      <point x="453" y="613"/>
      <point x="491" y="587" type="curve" smooth="yes"/>
      <point x="501" y="580"/>
      <point x="505" y="581"/>
      <point x="511" y="591" type="curve" smooth="yes"/>
      <point x="531" y="625" type="line" smooth="yes"/>
      <point x="537" y="635"/>
      <point x="535" y="640"/>
      <point x="526" y="647" type="curve"/>
      <point x="483" y="677"/>
      <point x="424" y="695"/>
      <point x="343" y="695" type="curve" smooth="yes"/>
      <point x="198" y="695"/>
      <point x="47" y="606"/>
      <point x="47" y="293" type="curve" smooth="yes"/>
      <point x="47" y="63"/>
      <point x="170" y="-15"/>
      <point x="316" y="-15" type="curve" smooth="yes"/>
    </contour>
    <contour>
      <point x="218" y="55"/>
      <point x="138" y="102"/>
      <point x="138" y="240" type="curve" smooth="yes"/>
      <point x="138" y="363"/>
      <point x="240" y="410"/>
      <point x="321" y="410" type="curve" smooth="yes"/>
      <point x="427" y="410"/>
      <point x="503" y="350"/>
      <point x="503" y="244" type="curve" smooth="yes"/>
      <point x="503" y="113"/>
      <point x="435" y="55"/>
      <point x="316" y="55" type="curve" smooth="yes"/>
    </contour>
  </outline>
</glyph>
<glyph name="less" format="1">
  <advance width="574"/>
  <unicode hex="003C"/>
  <note>
	less
  </note>
  <outline>
    <contour>
      <point x="519" y="25"/>
      <point x="527" y="31"/>
      <point x="527" y="42" type="curve" smooth="yes"/>
      <point x="527" y="92" type="line" smooth="yes"/>
      <point x="527" y="108"/>
      <point x="522" y="112"/>
      <point x="510" y="117" type="curve" smooth="yes"/>
      <point x="159" y="274" type="line"/>
      <point x="510" y="431" type="line" smooth="yes"/>
      <point x="522" y="436"/>
      <point x="527" y="440"/>
      <point x="527" y="456" type="curve" smooth="yes"/>
      <point x="527" y="505" type="line" smooth="yes"/>
      <point x="527" y="516"/>
      <point x="519" y="522"/>
      <point x="508" y="517" type="curve" smooth="yes"/>
      <point x="64" y="312" type="line" smooth="yes"/>
      <point x="52" y="306"/>
      <point x="47" y="300"/>
      <point x="47" y="288" type="curve" smooth="yes"/>
      <point x="47" y="260" type="line" smooth="yes"/>
      <point x="47" y="247"/>
      <point x="52" y="241"/>
      <point x="64" y="235" type="curve" smooth="yes"/>
      <point x="508" y="30" type="line" smooth="yes"/>
    </contour>
  </outline>
</glyph>
<glyph name="greater" format="1">
  <advance width="574"/>
  <unicode hex="003E"/>
  <note>
	greater
  </note>
  <outline>
    <contour>
      <point x="510" y="235" type="line" smooth="yes"/>
      <point x="522" y="241"/>
      <point x="527" y="247"/>
      <point x="527" y="260" type="curve" smooth="yes"/>
      <point x="527" y="288" type="line" smooth="yes"/>
      <point x="527" y="301"/>
      <point x="522" y="306"/>
      <point x="510" y="312" type="curve" smooth="yes"/>
      <point x="66" y="517" type="line" smooth="yes"/>
      <point x="55" y="522"/>
      <point x="47" y="516"/>
      <point x="47" y="505" type="curve" smooth="yes"/>
      <point x="47" y="459" type="line" smooth="yes"/>
      <point x="47" y="443"/>
      <point x="53" y="439"/>
      <point x="64" y="434" type="curve" smooth="yes"/>
      <point x="417" y="274" type="line"/>
      <point x="64" y="114" type="line" smooth="yes"/>
      <point x="53" y="109"/>
      <point x="47" y="105"/>
      <point x="47" y="89" type="curve" smooth="yes"/>
      <point x="47" y="42" type="line" smooth="yes"/>
      <point x="47" y="31"/>
      <point x="55" y="25"/>
      <point x="66" y="30" type="curve" smooth="yes"/>
    </contour>
  </outline>
</glyph>
<glyph name="D" format="1">
  <advance width="680"/>
  <unicode hex="0044"/>
  <note>
	D
  </note>
  <outline>
    <contour>
      <point x="287" y="0" type="line" smooth="yes"/>
      <point x="499" y="0"/>
      <point x="633" y="92"/>
      <point x="633" y="340" type="curve" smooth="yes"/>
      <point x="633" y="589"/>
      <point x="499" y="680"/>
      <point x="287" y="680" type="curve" smooth="yes"/>
      <point x="97" y="680" type="line" smooth="yes"/>
      <point x="76" y="680"/>
      <point x="67" y="670"/>
      <point x="67" y="650" type="curve" smooth="yes"/>
      <point x="67" y="30" type="line" smooth="yes"/>
      <point x="67" y="10"/>
      <point x="76" y="0"/>
      <point x="97" y="0" type="curve" smooth="yes"/>
    </contour>
    <contour>
      <point x="158" y="607" type="line"/>
      <point x="294" y="607" type="line" smooth="yes"/>
      <point x="448" y="607"/>
      <point x="544" y="543"/>
      <point x="544" y="340" type="curve" smooth="yes"/>
      <point x="544" y="137"/>
      <point x="448" y="73"/>
      <point x="294" y="73" type="curve" smooth="yes"/>
      <point x="158" y="73" type="line"/>
    </contour>
  </outline>
</glyph>
<glyph name="E" format="1">
  <advance width="579"/>
  <unicode hex="0045"/>
  <note>
	E
  </note>
  <outline>
    <contour>
      <point x="513" y="0" type="line" smooth="yes"/>
      <point x="534" y="0"/>
      <point x="542" y="7"/>
      <point x="542" y="27" type="curve" smooth="yes"/>
      <point x="542" y="44" type="line" smooth="yes"/>
      <point x="542" y="65"/>
      <point x="534" y="73"/>
      <point x="513" y="73" type="curve" smooth="yes"/>
      <point x="158" y="73" type="line"/>
      <point x="158" y="304" type="line"/>
      <point x="425" y="304" type="line" smooth="yes"/>
      <point x="446" y="304"/>
      <point x="455" y="313"/>
      <point x="455" y="333" type="curve" smooth="yes"/>
      <point x="455" y="349" type="line" smooth="yes"/>
      <point x="455" y="370"/>
      <point x="446" y="377"/>
      <point x="425" y="377" type="curve" smooth="yes"/>
      <point x="158" y="377" type="line"/>
      <point x="158" y="607" type="line"/>
      <point x="513" y="607" type="line" smooth="yes"/>
      <point x="534" y="607"/>
      <point x="542" y="615"/>
      <point x="542" y="636" type="curve" smooth="yes"/>
      <point x="542" y="653" type="line" smooth="yes"/>
      <point x="542" y="673"/>
      <point x="534" y="680"/>
      <point x="513" y="680" type="curve" smooth="yes"/>
      <point x="97" y="680" type="line" smooth="yes"/>
      <point x="76" y="680"/>
      <point x="67" y="670"/>
      <point x="67" y="650" type="curve" smooth="yes"/>
      <point x="67" y="30" type="line" smooth="yes"/>
      <point x="67" y="10"/>
      <point x="76" y="0"/>
      <point x="97" y="0" type="curve" smooth="yes"/>
    </contour>
  </outline>
</glyph>
<glyph name="F" format="1">
  <advance width="569"/>
  <unicode hex="0046"/>
  <note>
	F
  </note>
  <outline>
    <contour>
      <point x="128" y="0" type="line" smooth="yes"/>
      <point x="150" y="0"/>
      <point x="158" y="10"/>
      <point x="158" y="30" type="curve" smooth="yes"/>
      <point x="158" y="304" type="line"/>
      <point x="425" y="304" type="line" smooth="yes"/>
      <point x="446" y="304"/>
      <point x="455" y="312"/>
      <point x="455" y="333" type="curve" smooth="yes"/>
      <point x="455" y="350" type="line" smooth="yes"/>
      <point x="455" y="370"/>
      <point x="446" y="377"/>
      <point x="425" y="377" type="curve" smooth="yes"/>
      <point x="158" y="377" type="line"/>
      <point x="158" y="607" type="line"/>
      <point x="513" y="607" type="line" smooth="yes"/>
      <point x="534" y="607"/>
      <point x="542" y="615"/>
      <point x="542" y="636" type="curve" smooth="yes"/>
      <point x="542" y="653" type="line" smooth="yes"/>
      <point x="542" y="673"/>
      <point x="534" y="680"/>
      <point x="513" y="680" type="curve" smooth="yes"/>
      <point x="97" y="680" type="line" smooth="yes"/>
      <point x="76" y="680"/>
      <point x="67" y="670"/>
      <point x="67" y="650" type="curve" smooth="yes"/>
      <point x="67" y="30" type="line" smooth="yes"/>
      <point x="67" y="10"/>
      <point x="76" y="0"/>
      <point x="97" y="0" type="curve" smooth="yes"/>
    </contour>
  </outline>
</glyph>
<glyph name="I" format="1">
  <advance width="225"/>
  <unicode hex="0049"/>
  <note>
	I
  </note>
  <outline>
    <contour>
      <point x="128" y="0" type="line" smooth="yes"/>
      <point x="150" y="0"/>
      <point x="158" y="10"/>
      <point x="158" y="30" type="curve" smooth="yes"/>
      <point x="158" y="650" type="line" smooth="yes"/>
      <point x="158" y="670"/>
      <point x="150" y="680"/>
      <point x="128" y="680" type="curve" smooth="yes"/>
      <point x="97" y="680" type="line" smooth="yes"/>
      <point x="76" y="680"/>
      <point x="67" y="670"/>
      <point x="67" y="650" type="curve" smooth="yes"/>
      <point x="67" y="30" type="line" smooth="yes"/>
      <point x="67" y="10"/>
      <point x="76" y="0"/>
      <point x="97" y="0" type="curve" smooth="yes"/>
    </contour>
  </outline>
</glyph>
<glyph name="J" format="1">
  <advance width="475"/>
  <unicode hex="004A"/>
  <note>
	J
  </note>
  <outline>
    <contour>
      <point x="352" y="-15"/>
      <point x="413" y="68"/>
      <point x="413" y="182" type="curve" smooth="yes"/>
      <point x="413" y="650" type="line" smooth="yes"/>
      <point x="413" y="670"/>
      <point x="405" y="680"/>
      <point x="383" y="680" type="curve" smooth="yes"/>
      <point x="353" y="680" type="line" smooth="yes"/>
      <point x="331" y="680"/>
      <point x="322" y="670"/>
      <point x="322" y="650" type="curve" smooth="yes"/>
      <point x="322" y="181" type="line" smooth="yes"/>
      <point x="322" y="97"/>
      <point x="289" y="55"/>
      <point x="210" y="55" type="curve" smooth="yes"/>
      <point x="156" y="55"/>
      <point x="105" y="70"/>
      <point x="73" y="90" type="curve" smooth="yes"/>
      <point x="63" y="96"/>
      <point x="59" y="96"/>
      <point x="53" y="86" type="curve" smooth="yes"/>
      <point x="31" y="50" type="line" smooth="yes"/>
      <point x="25" y="40"/>
      <point x="28" y="33"/>
      <point x="36" y="29" type="curve"/>
      <point x="85" y="1"/>
      <point x="142" y="-15"/>
      <point x="210" y="-15" type="curve" smooth="yes"/>
    </contour>
  </outline>
</glyph>
<glyph name="L" format="1">
  <advance width="545"/>
  <unicode hex="004C"/>
  <note>
	L
  </note>
  <outline>
    <contour>
      <point x="489" y="0" type="line" smooth="yes"/>
      <point x="510" y="0"/>
      <point x="518" y="7"/>
      <point x="518" y="27" type="curve" smooth="yes"/>
      <point x="518" y="44" type="line" smooth="yes"/>
      <point x="518" y="65"/>
      <point x="510" y="73"/>
      <point x="489" y="73" type="curve" smooth="yes"/>
      <point x="158" y="73" type="line"/>
      <point x="158" y="650" type="line" smooth="yes"/>
      <point x="158" y="670"/>
      <point x="150" y="680"/>
      <point x="128" y="680" type="curve" smooth="yes"/>
      <point x="97" y="680" type="line" smooth="yes"/>
      <point x="76" y="680"/>
      <point x="67" y="670"/>
      <point x="67" y="650" type="curve" smooth="yes"/>
      <point x="67" y="30" type="line" smooth="yes"/>
      <point x="67" y="10"/>
      <point x="76" y="0"/>
      <point x="97" y="0" type="curve" smooth="yes"/>
    </contour>
  </outline>
</glyph>
<glyph name="M" format="1">
  <advance width="788"/>
  <unicode hex="004D"/>
  <note>
	M
  </note>
  <outline>
    <contour>
      <point x="123" y="0" type="line" smooth="yes"/>
      <point x="145" y="0"/>
      <point x="154" y="10"/>
      <point x="154" y="30" type="curve" smooth="yes"/>
      <point x="154" y="513" type="line"/>
      <point x="362" y="50" type="line" smooth="yes"/>
      <point x="368" y="36"/>
      <point x="376" y="28"/>
      <point x="394" y="28" type="curve" smooth="yes"/>
      <point x="413" y="28"/>
      <point x="420" y="36"/>
      <point x="426" y="50" type="curve" smooth="yes"/>
      <point x="635" y="513" type="line"/>
      <point x="635" y="30" type="line" smooth="yes"/>
      <point x="635" y="10"/>
      <point x="643" y="0"/>
      <point x="665" y="0" type="curve" smooth="yes"/>
      <point x="691" y="0" type="line" smooth="yes"/>
      <point x="713" y="0"/>
      <point x="721" y="10"/>
      <point x="721" y="30" type="curve" smooth="yes"/>
      <point x="721" y="650" type="line" smooth="yes"/>
      <point x="721" y="670"/>
      <point x="713" y="680"/>
      <point x="691" y="680" type="curve" smooth="yes"/>
      <point x="657" y="680" type="line" smooth="yes"/>
      <point x="641" y="680"/>
      <point x="632" y="678"/>
      <point x="625" y="663" type="curve" smooth="yes"/>
      <point x="394" y="141" type="line"/>
      <point x="164" y="663" type="line" smooth="yes"/>
      <point x="157" y="678"/>
      <point x="148" y="680"/>
      <point x="132" y="680" type="curve" smooth="yes"/>
      <point x="98" y="680" type="line" smooth="yes"/>
      <point x="76" y="680"/>
      <point x="67" y="670"/>
      <point x="67" y="650" type="curve" smooth="yes"/>
      <point x="67" y="30" type="line" smooth="yes"/>
      <point x="67" y="10"/>
      <point x="76" y="0"/>
      <point x="97" y="0" type="curve" smooth="yes"/>
    </contour>
  </outline>
</glyph>
<glyph name="Q" format="1">
  <advance width="765"/>
  <unicode hex="0051"/>
  <note>
	Q
  </note>
  <outline>
    <contour>
      <point x="589" y="-181"/>
      <point x="632" y="-168"/>
      <point x="675" y="-142" type="curve" smooth="yes"/>
      <point x="683" y="-137"/>
      <point x="686" y="-132"/>
      <point x="681" y="-123" type="curve"/>
      <point x="659" y="-88" type="line"/>
      <point x="654" y="-81"/>
      <point x="651" y="-80"/>
      <point x="642" y="-85" type="curve"/>
      <point x="614" y="-103"/>
      <point x="579" y="-115"/>
      <point x="537" y="-115" type="curve" smooth="yes"/>
      <point x="466" y="-115"/>
      <point x="412" y="-87"/>
      <point x="412" y="-13" type="curve"/>
      <point x="607" y="-1"/>
      <point x="718" y="126"/>
      <point x="718" y="340" type="curve" smooth="yes"/>
      <point x="718" y="564"/>
      <point x="596" y="695"/>
      <point x="383" y="695" type="curve" smooth="yes"/>
      <point x="169" y="695"/>
      <point x="47" y="564"/>
      <point x="47" y="340" type="curve" smooth="yes"/>
      <point x="47" y="133"/>
      <point x="151" y="5"/>
      <point x="335" y="-12" type="curve"/>
      <point x="335" y="-115"/>
      <point x="408" y="-181"/>
      <point x="530" y="-181" type="curve" smooth="yes"/>
    </contour>
    <contour>
      <point x="227" y="55"/>
      <point x="136" y="153"/>
      <point x="136" y="340" type="curve" smooth="yes"/>
      <point x="136" y="527"/>
      <point x="227" y="625"/>
      <point x="383" y="625" type="curve" smooth="yes"/>
      <point x="538" y="625"/>
      <point x="629" y="527"/>
      <point x="629" y="340" type="curve" smooth="yes"/>
      <point x="629" y="153"/>
      <point x="538" y="55"/>
      <point x="383" y="55" type="curve" smooth="yes"/>
    </contour>
  </outline>
</glyph>
<glyph name="T" format="1">
  <advance width="574"/>
  <unicode hex="0054"/>
  <note>
	T
  </note>
  <outline>
    <contour>
      <point x="302" y="0" type="line" smooth="yes"/>
      <point x="324" y="0"/>
      <point x="332" y="10"/>
      <point x="332" y="30" type="curve" smooth="yes"/>
      <point x="332" y="607" type="line"/>
      <point x="517" y="607" type="line" smooth="yes"/>
      <point x="538" y="607"/>
      <point x="547" y="614"/>
      <point x="547" y="634" type="curve" smooth="yes"/>
      <point x="547" y="651" type="line" smooth="yes"/>
      <point x="547" y="671"/>
      <point x="538" y="680"/>
      <point x="517" y="680" type="curve" smooth="yes"/>
      <point x="56" y="680" type="line" smooth="yes"/>
      <point x="35" y="680"/>
      <point x="27" y="671"/>
      <point x="27" y="651" type="curve" smooth="yes"/>
      <point x="27" y="634" type="line" smooth="yes"/>
      <point x="27" y="614"/>
      <point x="35" y="607"/>
      <point x="56" y="607" type="curve" smooth="yes"/>
      <point x="241" y="607" type="line"/>
      <point x="241" y="30" type="line" smooth="yes"/>
      <point x="241" y="10"/>
      <point x="250" y="0"/>
      <point x="272" y="0" type="curve" smooth="yes"/>
    </contour>
  </outline>
</glyph>
<glyph name="X" format="1">
  <advance width="695"/>
  <unicode hex="0058"/>
  <note>
	X
  </note>
  <outline>
    <contour>
      <point x="123" y="0" type="line" smooth="yes"/>
      <point x="135" y="0"/>
      <point x="138" y="2"/>
      <point x="144" y="10" type="curve" smooth="yes"/>
      <point x="347" y="279" type="line"/>
      <point x="551" y="10" type="line" smooth="yes"/>
      <point x="557" y="2"/>
      <point x="560" y="0"/>
      <point x="572" y="0" type="curve" smooth="yes"/>
      <point x="634" y="0" type="line" smooth="yes"/>
      <point x="647" y="0"/>
      <point x="652" y="12"/>
      <point x="643" y="23" type="curve"/>
      <point x="398" y="347" type="line"/>
      <point x="632" y="657" type="line" smooth="yes"/>
      <point x="640" y="668"/>
      <point x="639" y="680"/>
      <point x="625" y="680" type="curve" smooth="yes"/>
      <point x="563" y="680" type="line" smooth="yes"/>
      <point x="549" y="680"/>
      <point x="545" y="677"/>
      <point x="540" y="670" type="curve" smooth="yes"/>
      <point x="347" y="415" type="line"/>
      <point x="155" y="670" type="line" smooth="yes"/>
      <point x="150" y="677"/>
      <point x="146" y="680"/>
      <point x="132" y="680" type="curve" smooth="yes"/>
      <point x="70" y="680" type="line" smooth="yes"/>
      <point x="56" y="680"/>
      <point x="55" y="668"/>
      <point x="63" y="657" type="curve" smooth="yes"/>
      <point x="296" y="347" type="line"/>
      <point x="52" y="23" type="line"/>
      <point x="43" y="12"/>
      <point x="48" y="0"/>
      <point x="61" y="0" type="curve" smooth="yes"/>
    </contour>
  </outline>
</glyph>
<glyph name="bracketright" format="1">
  <advance width="285"/>
  <unicode hex="005D"/>
  <note>
	bracketright
  </note>
  <outline>
    <contour>
      <point x="210" y="-70" type="line" smooth="yes"/>
      <point x="229" y="-70"/>
      <point x="238" y="-60"/>
      <point x="238" y="-40" type="curve" smooth="yes"/>
      <point x="238" y="720" type="line" smooth="yes"/>
      <point x="238" y="740"/>
      <point x="229" y="750"/>
      <point x="210" y="750" type="curve" smooth="yes"/>
      <point x="66" y="750" type="line" smooth="yes"/>
      <point x="45" y="750"/>
      <point x="37" y="743"/>
      <point x="37" y="723" type="curve" smooth="yes"/>
      <point x="37" y="706" type="line" smooth="yes"/>
      <point x="37" y="685"/>
      <point x="45" y="677"/>
      <point x="66" y="677" type="curve" smooth="yes"/>
      <point x="147" y="677" type="line"/>
      <point x="147" y="3" type="line"/>
      <point x="66" y="3" type="line" smooth="yes"/>
      <point x="45" y="3"/>
      <point x="37" y="-5"/>
      <point x="37" y="-26" type="curve" smooth="yes"/>
      <point x="37" y="-43" type="line" smooth="yes"/>
      <point x="37" y="-63"/>
      <point x="45" y="-70"/>
      <point x="66" y="-70" type="curve" smooth="yes"/>
    </contour>
  </outline>
</glyph>
<glyph name="underscore" format="1">
  <advance width="551"/>
  <unicode hex="005F"/>
  <note>
	underscore
  </note>
  <outline>
    <contour>
      <point x="483" y="-88" type="line" smooth="yes"/>
      <point x="497" y="-88"/>
      <point x="504" y="-81"/>
      <point x="504" y="-67" type="curve" smooth="yes"/>
      <point x="504" y="-36" type="line" smooth="yes"/>
      <point x="504" y="-22"/>
      <point x="497" y="-15"/>
      <point x="483" y="-15" type="curve" smooth="yes"/>
      <point x="68" y="-15" type="line" smooth="yes"/>
      <point x="54" y="-15"/>
      <point x="47" y="-22"/>
      <point x="47" y="-36" type="curve" smooth="yes"/>
      <point x="47" y="-67" type="line" smooth="yes"/>
      <point x="47" y="-81"/>
      <point x="54" y="-88"/>
      <point x="68" y="-88" type="curve" smooth="yes"/>
    </contour>
  </outline>
</glyph>
<glyph name="grave" format="1">
  <advance width="245"/>
  <unicode hex="0060"/>
  <note>
	grave
  </note>
  <outline>
    <contour>
      <point x="182" y="569" type="line" smooth="yes"/>
      <point x="197" y="569"/>
      <point x="201" y="578"/>
      <point x="196" y="591" type="curve" smooth="yes"/>
      <point x="144" y="732" type="line" smooth="yes"/>
      <point x="140" y="742"/>
      <point x="137" y="746"/>
      <point x="122" y="746" type="curve" smooth="yes"/>
      <point x="64" y="746" type="line" smooth="yes"/>
      <point x="47" y="746"/>
      <point x="44" y="736"/>
      <point x="51" y="722" type="curve" smooth="yes"/>
      <point x="118" y="586" type="line" smooth="yes"/>
      <point x="124" y="573"/>
      <point x="129" y="569"/>
      <point x="144" y="569" type="curve" smooth="yes"/>
    </contour>
  </outline>
</glyph>
<glyph name="h" format="1">
  <advance width="592"/>
  <unicode hex="0068"/>
  <note>
	h
  </note>
  <outline>
    <contour>
      <point x="128" y="0" type="line" smooth="yes"/>
      <point x="150" y="0"/>
      <point x="158" y="10"/>
      <point x="158" y="30" type="curve" smooth="yes"/>
      <point x="158" y="303" type="line" smooth="yes"/>
      <point x="158" y="377"/>
      <point x="246" y="426"/>
      <point x="323" y="426" type="curve" smooth="yes"/>
      <point x="397" y="426"/>
      <point x="439" y="399"/>
      <point x="439" y="319" type="curve" smooth="yes"/>
      <point x="439" y="30" type="line" smooth="yes"/>
      <point x="439" y="10"/>
      <point x="448" y="0"/>
      <point x="470" y="0" type="curve" smooth="yes"/>
      <point x="500" y="0" type="line" smooth="yes"/>
      <point x="522" y="0"/>
      <point x="530" y="10"/>
      <point x="530" y="30" type="curve" smooth="yes"/>
      <point x="530" y="324" type="line" smooth="yes"/>
      <point x="530" y="444"/>
      <point x="454" y="495"/>
      <point x="351" y="495" type="curve" smooth="yes"/>
      <point x="261" y="495"/>
      <point x="203" y="471"/>
      <point x="158" y="421" type="curve"/>
      <point x="158" y="655" type="line" smooth="yes"/>
      <point x="158" y="672"/>
      <point x="154" y="680"/>
      <point x="135" y="680" type="curve" smooth="yes"/>
      <point x="90" y="680" type="line" smooth="yes"/>
      <point x="71" y="680"/>
      <point x="67" y="672"/>
      <point x="67" y="655" type="curve" smooth="yes"/>
      <point x="67" y="30" type="line" smooth="yes"/>
      <point x="67" y="10"/>
      <point x="76" y="0"/>
      <point x="98" y="0" type="curve" smooth="yes"/>
    </contour>
  </outline>
</glyph>
<glyph name="i" format="1">
  <advance width="244"/>
  <unicode hex="0069"/>
  <note>
	i
  </note>
  <outline>
    <contour>
      <point x="137" y="0" type="line" smooth="yes"/>
      <point x="159" y="0"/>
      <point x="168" y="10"/>
      <point x="168" y="30" type="curve" smooth="yes"/>
      <point x="168" y="450" type="line" smooth="yes"/>
      <point x="168" y="470"/>
      <point x="159" y="480"/>
      <point x="137" y="480" type="curve" smooth="yes"/>
      <point x="107" y="480" type="line" smooth="yes"/>
      <point x="85" y="480"/>
      <point x="77" y="470"/>
      <point x="77" y="450" type="curve" smooth="yes"/>
      <point x="77" y="30" type="line" smooth="yes"/>
      <point x="77" y="10"/>
      <point x="85" y="0"/>
      <point x="107" y="0" type="curve" smooth="yes"/>
    </contour>
    <contour>
      <point x="136" y="580" type="line" smooth="yes"/>
      <point x="163" y="580"/>
      <point x="177" y="599"/>
      <point x="177" y="620" type="curve" smooth="yes"/>
      <point x="177" y="640" type="line" smooth="yes"/>
      <point x="177" y="661"/>
      <point x="162" y="680"/>
      <point x="136" y="680" type="curve" smooth="yes"/>
      <point x="108" y="680" type="line" smooth="yes"/>
      <point x="82" y="680"/>
      <point x="67" y="661"/>
      <point x="67" y="640" type="curve" smooth="yes"/>
      <point x="67" y="620" type="line" smooth="yes"/>
      <point x="67" y="599"/>
      <point x="82" y="580"/>
      <point x="108" y="580" type="curve" smooth="yes"/>
    </contour>
  </outline>
</glyph>
<glyph name="j" format="1">
  <advance width="284"/>
  <unicode hex="006A"/>
  <note>
	j
  </note>
  <outline>
    <contour>
      <point x="157" y="-170"/>
      <point x="208" y="-105"/>
      <point x="208" y="-4" type="curve" smooth="yes"/>
      <point x="208" y="450" type="line" smooth="yes"/>
      <point x="208" y="470"/>
      <point x="199" y="480"/>
      <point x="177" y="480" type="curve" smooth="yes"/>
      <point x="147" y="480" type="line" smooth="yes"/>
      <point x="125" y="480"/>
      <point x="116" y="470"/>
      <point x="116" y="450" type="curve" smooth="yes"/>
      <point x="116" y="-1" type="line" smooth="yes"/>
      <point x="116" y="-68"/>
      <point x="100" y="-100"/>
      <point x="28" y="-100" type="curve" smooth="yes"/>
      <point x="-12" y="-100"/>
      <point x="-39" y="-89"/>
      <point x="-69" y="-69" type="curve"/>
      <point x="-79" y="-63"/>
      <point x="-83" y="-63"/>
      <point x="-89" y="-73" type="curve" smooth="yes"/>
      <point x="-110" y="-108" type="line" smooth="yes"/>
      <point x="-116" y="-118"/>
      <point x="-113" y="-124"/>
      <point x="-105" y="-130" type="curve" smooth="yes"/>
      <point x="-68" y="-157"/>
      <point x="-15" y="-170"/>
      <point x="40" y="-170" type="curve" smooth="yes"/>
    </contour>
    <contour>
      <point x="176" y="580" type="line" smooth="yes"/>
      <point x="202" y="580"/>
      <point x="217" y="599"/>
      <point x="217" y="620" type="curve" smooth="yes"/>
      <point x="217" y="640" type="line" smooth="yes"/>
      <point x="217" y="661"/>
      <point x="202" y="680"/>
      <point x="176" y="680" type="curve" smooth="yes"/>
      <point x="147" y="680" type="line" smooth="yes"/>
      <point x="122" y="680"/>
      <point x="107" y="661"/>
      <point x="107" y="640" type="curve" smooth="yes"/>
      <point x="107" y="620" type="line" smooth="yes"/>
      <point x="107" y="599"/>
      <point x="122" y="580"/>
      <point x="147" y="580" type="curve" smooth="yes"/>
    </contour>
  </outline>
</glyph>
<glyph name="p" format="1">
  <advance width="615"/>
  <unicode hex="0070"/>
  <note>
	p
  </note>
  <outline>
    <contour>
      <point x="127" y="-202" type="line" smooth="yes"/>
      <point x="149" y="-202"/>
      <point x="157" y="-192"/>
      <point x="157" y="-172" type="curve" smooth="yes"/>
      <point x="157" y="57" type="line"/>
      <point x="200" y="7"/>
      <point x="257" y="-15"/>
      <point x="333" y="-15" type="curve" smooth="yes"/>
      <point x="477" y="-15"/>
      <point x="568" y="80"/>
      <point x="568" y="240" type="curve" smooth="yes"/>
      <point x="568" y="411"/>
      <point x="472" y="495"/>
      <point x="283" y="495" type="curve" smooth="yes"/>
      <point x="202" y="495"/>
      <point x="113" y="469"/>
      <point x="67" y="438" type="curve"/>
      <point x="67" y="-172" type="line" smooth="yes"/>
      <point x="67" y="-192"/>
      <point x="76" y="-202"/>
      <point x="97" y="-202" type="curve" smooth="yes"/>
    </contour>
    <contour>
      <point x="232" y="54"/>
      <point x="156" y="102"/>
      <point x="156" y="186" type="curve" smooth="yes"/>
      <point x="156" y="402" type="line"/>
      <point x="184" y="417"/>
      <point x="225" y="426"/>
      <point x="281" y="426" type="curve" smooth="yes"/>
      <point x="410" y="426"/>
      <point x="478" y="378"/>
      <point x="478" y="245" type="curve" smooth="yes"/>
      <point x="478" y="123"/>
      <point x="425" y="54"/>
      <point x="310" y="54" type="curve" smooth="yes"/>
    </contour>
  </outline>
</glyph>
<glyph name="q" format="1">
  <advance width="615"/>
  <unicode hex="0071"/>
  <note>
	q
  </note>
  <outline>
    <contour>
      <point x="517" y="-202" type="line" smooth="yes"/>
      <point x="539" y="-202"/>
      <point x="548" y="-192"/>
      <point x="548" y="-172" type="curve" smooth="yes"/>
      <point x="548" y="438" type="line"/>
      <point x="502" y="469"/>
      <point x="416" y="495"/>
      <point x="332" y="495" type="curve" smooth="yes"/>
      <point x="149" y="495"/>
      <point x="47" y="397"/>
      <point x="47" y="226" type="curve" smooth="yes"/>
      <point x="47" y="76"/>
      <point x="138" y="-15"/>
      <point x="281" y="-15" type="curve" smooth="yes"/>
      <point x="358" y="-15"/>
      <point x="415" y="7"/>
      <point x="458" y="57" type="curve"/>
      <point x="458" y="-172" type="line" smooth="yes"/>
      <point x="458" y="-192"/>
      <point x="466" y="-202"/>
      <point x="488" y="-202" type="curve" smooth="yes"/>
    </contour>
    <contour>
      <point x="190" y="54"/>
      <point x="136" y="116"/>
      <point x="136" y="231" type="curve" smooth="yes"/>
      <point x="136" y="364"/>
      <point x="210" y="426"/>
      <point x="333" y="426" type="curve" smooth="yes"/>
      <point x="385" y="426"/>
      <point x="430" y="417"/>
      <point x="458" y="402" type="curve"/>
      <point x="458" y="186" type="line" smooth="yes"/>
      <point x="458" y="102"/>
      <point x="383" y="54"/>
      <point x="305" y="54" type="curve" smooth="yes"/>
    </contour>
  </outline>
</glyph>
<glyph name="braceleft" format="1">
  <advance width="369"/>
  <unicode hex="007B"/>
  <note>
	braceleft
  </note>
  <outline>
    <contour>
      <point x="302" y="-70" type="line" smooth="yes"/>
      <point x="323" y="-70"/>
      <point x="332" y="-63"/>
      <point x="332" y="-43" type="curve" smooth="yes"/>
      <point x="332" y="-28" type="line" smooth="yes"/>
      <point x="332" y="-7"/>
      <point x="323" y="1"/>
      <point x="302" y="1" type="curve" smooth="yes"/>
      <point x="230" y="1" type="line"/>
      <point x="230" y="679" type="line"/>
      <point x="302" y="679" type="line" smooth="yes"/>
      <point x="323" y="679"/>
      <point x="332" y="687"/>
      <point x="332" y="708" type="curve" smooth="yes"/>
      <point x="332" y="723" type="line" smooth="yes"/>
      <point x="332" y="743"/>
      <point x="323" y="750"/>
      <point x="302" y="750" type="curve" smooth="yes"/>
      <point x="170" y="750" type="line" smooth="yes"/>
      <point x="148" y="750"/>
      <point x="140" y="740"/>
      <point x="140" y="720" type="curve" smooth="yes"/>
      <point x="140" y="376" type="line"/>
      <point x="56" y="376" type="line" smooth="yes"/>
      <point x="35" y="376"/>
      <point x="27" y="368"/>
      <point x="27" y="347" type="curve" smooth="yes"/>
      <point x="27" y="332" type="line" smooth="yes"/>
      <point x="27" y="312"/>
      <point x="35" y="305"/>
      <point x="56" y="305" type="curve" smooth="yes"/>
      <point x="140" y="305" type="line"/>
      <point x="140" y="-40" type="line" smooth="yes"/>
      <point x="140" y="-60"/>
      <point x="148" y="-70"/>
      <point x="170" y="-70" type="curve" smooth="yes"/>
    </contour>
  </outline>
</glyph>
<glyph name="braceright" format="1">
  <advance width="369"/>
  <unicode hex="007D"/>
  <note>
	braceright
  </note>
  <outline>
    <contour>
      <point x="199" y="-70" type="line" smooth="yes"/>
      <point x="221" y="-70"/>
      <point x="229" y="-60"/>
      <point x="229" y="-40" type="curve" smooth="yes"/>
      <point x="229" y="305" type="line"/>
      <point x="312" y="305" type="line" smooth="yes"/>
      <point x="333" y="305"/>
      <point x="342" y="312"/>
      <point x="342" y="332" type="curve" smooth="yes"/>
      <point x="342" y="347" type="line" smooth="yes"/>
      <point x="342" y="368"/>
      <point x="333" y="376"/>
      <point x="312" y="376" type="curve" smooth="yes"/>
      <point x="229" y="376" type="line"/>
      <point x="229" y="720" type="line" smooth="yes"/>
      <point x="229" y="740"/>
      <point x="221" y="750"/>
      <point x="199" y="750" type="curve" smooth="yes"/>
      <point x="66" y="750" type="line" smooth="yes"/>
      <point x="45" y="750"/>
      <point x="37" y="743"/>
      <point x="37" y="723" type="curve" smooth="yes"/>
      <point x="37" y="708" type="line" smooth="yes"/>
      <point x="37" y="687"/>
      <point x="45" y="679"/>
      <point x="66" y="679" type="curve" smooth="yes"/>
      <point x="139" y="679" type="line"/>
      <point x="139" y="1" type="line"/>
      <point x="66" y="1" type="line" smooth="yes"/>
      <point x="45" y="1"/>
      <point x="37" y="-7"/>
      <point x="37" y="-28" type="curve" smooth="yes"/>
      <point x="37" y="-43" type="line" smooth="yes"/>
      <point x="37" y="-63"/>
      <point x="45" y="-70"/>
      <point x="66" y="-70" type="curve" smooth="yes"/>
    </contour>
  </outline>
</glyph>
<glyph name="asciitilde" format="1">
  <advance width="584"/>
  <unicode hex="007E"/>
  <note>
	asciitilde
  </note>
  <outline>
    <contour>
      <point x="458" y="234"/>
      <point x="493" y="263"/>
      <point x="523" y="301" type="curve" smooth="yes"/>
      <point x="541" y="323"/>
      <point x="540" y="335"/>
      <point x="523" y="348" type="curve"/>
      <point x="499" y="368"/>
      <point x="483" y="365"/>
      <point x="465" y="345" type="curve" smooth="yes"/>
      <point x="446" y="323"/>
      <point x="429" y="307"/>
      <point x="394" y="307" type="curve" smooth="yes"/>
      <point x="328" y="307"/>
      <point x="274" y="383"/>
      <point x="186" y="383" type="curve" smooth="yes"/>
      <point x="127" y="383"/>
      <point x="91" y="354"/>
      <point x="61" y="316" type="curve" smooth="yes"/>
      <point x="43" y="294"/>
      <point x="44" y="282"/>
      <point x="61" y="269" type="curve"/>
      <point x="85" y="249"/>
      <point x="101" y="253"/>
      <point x="119" y="272" type="curve" smooth="yes"/>
      <point x="138" y="293"/>
      <point x="155" y="310"/>
      <point x="190" y="310" type="curve" smooth="yes"/>
      <point x="257" y="310"/>
      <point x="314" y="234"/>
      <point x="400" y="234" type="curve" smooth="yes"/>
    </contour>
  </outline>
</glyph>
<glyph name="sterling" format="1">
  <advance width="570"/>
  <unicode hex="00A3"/>
  <note>
	sterling
  </note>
  <outline>
    <contour>
      <point x="493" y="0" type="line" smooth="yes"/>
      <point x="514" y="0"/>
      <point x="523" y="9"/>
      <point x="523" y="29" type="curve" smooth="yes"/>
      <point x="523" y="44" type="line" smooth="yes"/>
      <point x="523" y="64"/>
      <point x="514" y="71"/>
      <point x="493" y="71" type="curve" smooth="yes"/>
      <point x="193" y="71" type="line"/>
      <point x="221" y="98"/>
      <point x="228" y="132"/>
      <point x="228" y="182" type="curve" smooth="yes"/>
      <point x="228" y="338" type="line"/>
      <point x="395" y="338" type="line" smooth="yes"/>
      <point x="416" y="338"/>
      <point x="424" y="346"/>
      <point x="424" y="367" type="curve" smooth="yes"/>
      <point x="424" y="382" type="line" smooth="yes"/>
      <point x="424" y="402"/>
      <point x="416" y="409"/>
      <point x="395" y="409" type="curve" smooth="yes"/>
      <point x="228" y="409" type="line"/>
      <point x="228" y="517" type="line" smooth="yes"/>
      <point x="228" y="595"/>
      <point x="278" y="628"/>
      <point x="344" y="628" type="curve" smooth="yes"/>
      <point x="380" y="628"/>
      <point x="418" y="618"/>
      <point x="445" y="602" type="curve" smooth="yes"/>
      <point x="454" y="597"/>
      <point x="458" y="598"/>
      <point x="463" y="606" type="curve" smooth="yes"/>
      <point x="482" y="638" type="line" smooth="yes"/>
      <point x="488" y="648"/>
      <point x="484" y="653"/>
      <point x="477" y="659" type="curve"/>
      <point x="443" y="685"/>
      <point x="392" y="695"/>
      <point x="336" y="695" type="curve" smooth="yes"/>
      <point x="214" y="695"/>
      <point x="137" y="620"/>
      <point x="137" y="517" type="curve" smooth="yes"/>
      <point x="137" y="409" type="line"/>
      <point x="84" y="409" type="line" smooth="yes"/>
      <point x="63" y="409"/>
      <point x="55" y="402"/>
      <point x="55" y="382" type="curve" smooth="yes"/>
      <point x="55" y="367" type="line" smooth="yes"/>
      <point x="55" y="346"/>
      <point x="63" y="338"/>
      <point x="84" y="338" type="curve" smooth="yes"/>
      <point x="137" y="338" type="line"/>
      <point x="137" y="167" type="line" smooth="yes"/>
      <point x="137" y="108"/>
      <point x="112" y="71"/>
      <point x="76" y="71" type="curve" smooth="yes"/>
      <point x="55" y="71"/>
      <point x="47" y="64"/>
      <point x="47" y="44" type="curve" smooth="yes"/>
      <point x="47" y="29" type="line" smooth="yes"/>
      <point x="47" y="9"/>
      <point x="55" y="0"/>
      <point x="76" y="0" type="curve" smooth="yes"/>
    </contour>
  </outline>
</glyph>
<glyph name="yen" format="1">
  <advance width="694"/>
  <unicode hex="00A5"/>
  <note>
	yen
  </note>
  <outline>
    <contour>
      <point x="362" y="0" type="line" smooth="yes"/>
      <point x="384" y="0"/>
      <point x="393" y="10"/>
      <point x="393" y="30" type="curve" smooth="yes"/>
      <point x="393" y="96" type="line"/>
      <point x="515" y="96" type="line" smooth="yes"/>
      <point x="536" y="96"/>
      <point x="544" y="101"/>
      <point x="544" y="122" type="curve" smooth="yes"/>
      <point x="544" y="135" type="line" smooth="yes"/>
      <point x="544" y="155"/>
      <point x="536" y="162"/>
      <point x="515" y="162" type="curve" smooth="yes"/>
      <point x="393" y="162" type="line"/>
      <point x="393" y="224" type="line"/>
      <point x="515" y="224" type="line" smooth="yes"/>
      <point x="536" y="224"/>
      <point x="544" y="229"/>
      <point x="544" y="249" type="curve" smooth="yes"/>
      <point x="544" y="262" type="line" smooth="yes"/>
      <point x="544" y="283"/>
      <point x="536" y="289"/>
      <point x="515" y="289" type="curve" smooth="yes"/>
      <point x="430" y="289" type="line"/>
      <point x="644" y="657" type="line" smooth="yes"/>
      <point x="651" y="669"/>
      <point x="647" y="680"/>
      <point x="631" y="680" type="curve" smooth="yes"/>
      <point x="578" y="680" type="line" smooth="yes"/>
      <point x="561" y="680"/>
      <point x="559" y="677"/>
      <point x="554" y="668" type="curve" smooth="yes"/>
      <point x="347" y="310" type="line"/>
      <point x="140" y="668" type="line" smooth="yes"/>
      <point x="135" y="677"/>
      <point x="133" y="680"/>
      <point x="116" y="680" type="curve" smooth="yes"/>
      <point x="63" y="680" type="line" smooth="yes"/>
      <point x="47" y="680"/>
      <point x="43" y="669"/>
      <point x="50" y="657" type="curve" smooth="yes"/>
      <point x="264" y="289" type="line"/>
      <point x="179" y="289" type="line" smooth="yes"/>
      <point x="158" y="289"/>
      <point x="150" y="283"/>
      <point x="150" y="262" type="curve" smooth="yes"/>
      <point x="150" y="249" type="line" smooth="yes"/>
      <point x="150" y="229"/>
      <point x="158" y="224"/>
      <point x="179" y="224" type="curve" smooth="yes"/>
      <point x="301" y="224" type="line"/>
      <point x="301" y="162" type="line"/>
      <point x="179" y="162" type="line" smooth="yes"/>
      <point x="158" y="162"/>
      <point x="150" y="155"/>
      <point x="150" y="135" type="curve" smooth="yes"/>
      <point x="150" y="122" type="line" smooth="yes"/>
      <point x="150" y="101"/>
      <point x="158" y="96"/>
      <point x="179" y="96" type="curve" smooth="yes"/>
      <point x="301" y="96" type="line"/>
      <point x="301" y="30" type="line" smooth="yes"/>
      <point x="301" y="10"/>
      <point x="310" y="0"/>
      <point x="332" y="0" type="curve" smooth="yes"/>
    </contour>
  </outline>
</glyph>
<glyph name="section" format="1">
  <advance width="581"/>
  <unicode hex="00A7"/>
  <note>
	section
  </note>
  <outline>
    <contour>
      <point x="452" y="-156"/>
      <point x="534" y="-89"/>
      <point x="534" y="21" type="curve" smooth="yes"/>
      <point x="534" y="56"/>
      <point x="528" y="82"/>
      <point x="515" y="104" type="curve"/>
      <point x="527" y="121"/>
      <point x="533" y="143"/>
      <point x="533" y="166" type="curve" smooth="yes"/>
      <point x="533" y="295"/>
      <point x="451" y="329"/>
      <point x="338" y="372" type="curve" smooth="yes"/>
      <point x="220" y="417"/>
      <point x="157" y="429"/>
      <point x="157" y="514" type="curve" smooth="yes"/>
      <point x="157" y="596"/>
      <point x="205" y="625"/>
      <point x="302" y="625" type="curve" smooth="yes"/>
      <point x="367" y="625"/>
      <point x="429" y="607"/>
      <point x="471" y="582" type="curve"/>
      <point x="480" y="576"/>
      <point x="485" y="577"/>
      <point x="490" y="585" type="curve" smooth="yes"/>
      <point x="512" y="621" type="line" smooth="yes"/>
      <point x="516" y="628"/>
      <point x="515" y="635"/>
      <point x="505" y="642" type="curve" smooth="yes"/>
      <point x="458" y="673"/>
      <point x="382" y="695"/>
      <point x="293" y="695" type="curve" smooth="yes"/>
      <point x="160" y="695"/>
      <point x="68" y="634"/>
      <point x="68" y="517" type="curve" smooth="yes"/>
      <point x="68" y="486"/>
      <point x="76" y="456"/>
      <point x="90" y="434" type="curve"/>
      <point x="76" y="417"/>
      <point x="68" y="393"/>
      <point x="68" y="361" type="curve" smooth="yes"/>
      <point x="68" y="247"/>
      <point x="170" y="199"/>
      <point x="265" y="167" type="curve" smooth="yes"/>
      <point x="384" y="127"/>
      <point x="444" y="105"/>
      <point x="444" y="23" type="curve" smooth="yes"/>
      <point x="444" y="-58"/>
      <point x="384" y="-86"/>
      <point x="285" y="-86" type="curve" smooth="yes"/>
      <point x="199" y="-86"/>
      <point x="146" y="-73"/>
      <point x="92" y="-42" type="curve" smooth="yes"/>
      <point x="82" y="-36"/>
      <point x="78" y="-36"/>
      <point x="73" y="-45" type="curve"/>
      <point x="51" y="-81" type="line" smooth="yes"/>
      <point x="46" y="-89"/>
      <point x="48" y="-99"/>
      <point x="59" y="-105" type="curve" smooth="yes"/>
      <point x="128" y="-142"/>
      <point x="193" y="-156"/>
      <point x="291" y="-156" type="curve" smooth="yes"/>
    </contour>
    <contour>
      <point x="411" y="192"/>
      <point x="349" y="211"/>
      <point x="277" y="238" type="curve" smooth="yes"/>
      <point x="188" y="272"/>
      <point x="145" y="293"/>
      <point x="145" y="363" type="curve" smooth="yes"/>
      <point x="145" y="370"/>
      <point x="146" y="376"/>
      <point x="148" y="381" type="curve"/>
      <point x="186" y="351"/>
      <point x="236" y="333"/>
      <point x="284" y="316" type="curve" smooth="yes"/>
      <point x="330" y="301" type="line" smooth="yes"/>
      <point x="419" y="272"/>
      <point x="454" y="245"/>
      <point x="457" y="176" type="curve"/>
      <point x="457" y="169"/>
      <point x="456" y="163"/>
      <point x="455" y="159" type="curve"/>
    </contour>
  </outline>
</glyph>
<glyph name="dieresis" format="1">
  <advance width="388"/>
  <unicode hex="00A8"/>
  <note>
	dieresis
  </note>
  <outline>
    <contour>
      <point x="301" y="564" type="line" smooth="yes"/>
      <point x="325" y="564"/>
      <point x="341" y="583"/>
      <point x="341" y="606" type="curve" smooth="yes"/>
      <point x="341" y="622" type="line" smooth="yes"/>
      <point x="341" y="645"/>
      <point x="324" y="664"/>
      <point x="301" y="664" type="curve" smooth="yes"/>
      <point x="284" y="664" type="line" smooth="yes"/>
      <point x="260" y="664"/>
      <point x="244" y="645"/>
      <point x="244" y="622" type="curve" smooth="yes"/>
      <point x="244" y="606" type="line" smooth="yes"/>
      <point x="244" y="583"/>
      <point x="260" y="564"/>
      <point x="284" y="564" type="curve" smooth="yes"/>
    </contour>
    <contour>
      <point x="104" y="564" type="line" smooth="yes"/>
      <point x="128" y="564"/>
      <point x="144" y="583"/>
      <point x="144" y="606" type="curve" smooth="yes"/>
      <point x="144" y="622" type="line" smooth="yes"/>
      <point x="144" y="645"/>
      <point x="127" y="664"/>
      <point x="104" y="664" type="curve" smooth="yes"/>
      <point x="87" y="664" type="line" smooth="yes"/>
      <point x="64" y="664"/>
      <point x="47" y="645"/>
      <point x="47" y="622" type="curve" smooth="yes"/>
      <point x="47" y="606" type="line" smooth="yes"/>
      <point x="47" y="583"/>
      <point x="64" y="564"/>
      <point x="87" y="564" type="curve" smooth="yes"/>
    </contour>
  </outline>
</glyph>
<glyph name="copyright" format="1">
  <advance width="808"/>
  <unicode hex="00A9"/>
  <note>
	copyright
  </note>
  <outline>
    <contour>
      <point x="600" y="-15"/>
      <point x="761" y="144"/>
      <point x="761" y="340" type="curve" smooth="yes"/>
      <point x="761" y="536"/>
      <point x="600" y="695"/>
      <point x="404" y="695" type="curve" smooth="yes"/>
      <point x="208" y="695"/>
      <point x="47" y="536"/>
      <point x="47" y="340" type="curve" smooth="yes"/>
      <point x="47" y="144"/>
      <point x="208" y="-15"/>
      <point x="404" y="-15" type="curve" smooth="yes"/>
    </contour>
    <contour>
      <point x="478" y="96"/>
      <point x="533" y="113"/>
      <point x="578" y="144" type="curve"/>
      <point x="586" y="150"/>
      <point x="586" y="155"/>
      <point x="582" y="163" type="curve" smooth="yes"/>
      <point x="567" y="191" type="line" smooth="yes"/>
      <point x="563" y="199"/>
      <point x="558" y="199"/>
      <point x="550" y="194" type="curve"/>
      <point x="515" y="170"/>
      <point x="474" y="154"/>
      <point x="412" y="154" type="curve" smooth="yes"/>
      <point x="299" y="154"/>
      <point x="233" y="211"/>
      <point x="233" y="338" type="curve" smooth="yes"/>
      <point x="233" y="456"/>
      <point x="296" y="527"/>
      <point x="403" y="527" type="curve" smooth="yes"/>
      <point x="471" y="527"/>
      <point x="510" y="512"/>
      <point x="545" y="488" type="curve"/>
      <point x="553" y="483"/>
      <point x="557" y="483"/>
      <point x="561" y="491" type="curve" smooth="yes"/>
      <point x="576" y="519" type="line" smooth="yes"/>
      <point x="581" y="528"/>
      <point x="579" y="532"/>
      <point x="572" y="538" type="curve"/>
      <point x="526" y="574"/>
      <point x="470" y="585"/>
      <point x="396" y="585" type="curve" smooth="yes"/>
      <point x="256" y="585"/>
      <point x="162" y="487"/>
      <point x="162" y="338" type="curve" smooth="yes"/>
      <point x="162" y="180"/>
      <point x="255" y="96"/>
      <point x="406" y="96" type="curve" smooth="yes"/>
    </contour>
    <contour>
      <point x="237" y="45"/>
      <point x="110" y="173"/>
      <point x="110" y="340" type="curve" smooth="yes"/>
      <point x="110" y="507"/>
      <point x="237" y="635"/>
      <point x="404" y="635" type="curve" smooth="yes"/>
      <point x="571" y="635"/>
      <point x="698" y="507"/>
      <point x="698" y="340" type="curve" smooth="yes"/>
      <point x="698" y="173"/>
      <point x="571" y="45"/>
      <point x="404" y="45" type="curve" smooth="yes"/>
    </contour>
  </outline>
</glyph>
<glyph name="ordfeminine" format="1">
  <advance width="378"/>
  <unicode hex="00AA"/>
  <note>
	ordfeminine
  </note>
  <outline>
    <contour>
      <point x="207" y="368"/>
      <point x="248" y="386"/>
      <point x="272" y="417" type="curve"/>
      <point x="276" y="390" type="line" smooth="yes"/>
      <point x="277" y="382"/>
      <point x="282" y="377"/>
      <point x="291" y="377" type="curve" smooth="yes"/>
      <point x="316" y="377" type="line" smooth="yes"/>
      <point x="326" y="377"/>
      <point x="331" y="382"/>
      <point x="331" y="390" type="curve" smooth="yes"/>
      <point x="331" y="564" type="line" smooth="yes"/>
      <point x="331" y="651"/>
      <point x="292" y="695"/>
      <point x="194" y="695" type="curve" smooth="yes"/>
      <point x="152" y="695"/>
      <point x="116" y="687"/>
      <point x="88" y="674" type="curve" smooth="yes"/>
      <point x="80" y="670"/>
      <point x="76" y="666"/>
      <point x="79" y="660" type="curve"/>
      <point x="96" y="631" type="line"/>
      <point x="99" y="627"/>
      <point x="101" y="625"/>
      <point x="107" y="628" type="curve" smooth="yes"/>
      <point x="134" y="641"/>
      <point x="156" y="648"/>
      <point x="191" y="648" type="curve" smooth="yes"/>
      <point x="247" y="648"/>
      <point x="271" y="626"/>
      <point x="271" y="571" type="curve" smooth="yes"/>
      <point x="271" y="557" type="line"/>
      <point x="167" y="557" type="line" smooth="yes"/>
      <point x="94" y="557"/>
      <point x="47" y="524"/>
      <point x="47" y="461" type="curve" smooth="yes"/>
      <point x="47" y="400"/>
      <point x="93" y="368"/>
      <point x="158" y="368" type="curve" smooth="yes"/>
    </contour>
    <contour>
      <point x="128" y="413"/>
      <point x="104" y="429"/>
      <point x="104" y="463" type="curve" smooth="yes"/>
      <point x="104" y="499"/>
      <point x="128" y="513"/>
      <point x="175" y="513" type="curve" smooth="yes"/>
      <point x="271" y="513" type="line"/>
      <point x="271" y="498" type="line" smooth="yes"/>
      <point x="271" y="447"/>
      <point x="225" y="413"/>
      <point x="170" y="413" type="curve" smooth="yes"/>
    </contour>
  </outline>
</glyph>
<glyph name="logicalnot" format="1">
  <advance width="473"/>
  <unicode hex="00AC"/>
  <note>
	logicalnot
  </note>
  <outline>
    <contour>
      <point x="396" y="123" type="line" smooth="yes"/>
      <point x="416" y="123"/>
      <point x="426" y="131"/>
      <point x="426" y="152" type="curve" smooth="yes"/>
      <point x="426" y="304" type="line" smooth="yes"/>
      <point x="426" y="325"/>
      <point x="417" y="333"/>
      <point x="396" y="333" type="curve" smooth="yes"/>
      <point x="76" y="333" type="line" smooth="yes"/>
      <point x="55" y="333"/>
      <point x="47" y="325"/>
      <point x="47" y="304" type="curve" smooth="yes"/>
      <point x="47" y="288" type="line" smooth="yes"/>
      <point x="47" y="267"/>
      <point x="55" y="260"/>
      <point x="76" y="260" type="curve" smooth="yes"/>
      <point x="346" y="260" type="line"/>
      <point x="346" y="152" type="line" smooth="yes"/>
      <point x="346" y="131"/>
      <point x="355" y="123"/>
      <point x="375" y="123" type="curve" smooth="yes"/>
    </contour>
  </outline>
</glyph>
<glyph name="registered" format="1">
  <advance width="808"/>
  <unicode hex="00AE"/>
  <note>
	registered
  </note>
  <outline>
    <contour>
      <point x="600" y="-15"/>
      <point x="761" y="144"/>
      <point x="761" y="340" type="curve" smooth="yes"/>
      <point x="761" y="536"/>
      <point x="600" y="695"/>
      <point x="404" y="695" type="curve" smooth="yes"/>
      <point x="208" y="695"/>
      <point x="47" y="536"/>
      <point x="47" y="340" type="curve" smooth="yes"/>
      <point x="47" y="144"/>
      <point x="208" y="-15"/>
      <point x="404" y="-15" type="curve" smooth="yes"/>
    </contour>
    <contour>
      <point x="237" y="45"/>
      <point x="110" y="173"/>
      <point x="110" y="340" type="curve" smooth="yes"/>
      <point x="110" y="507"/>
      <point x="237" y="635"/>
      <point x="404" y="635" type="curve" smooth="yes"/>
      <point x="571" y="635"/>
      <point x="698" y="507"/>
      <point x="698" y="340" type="curve" smooth="yes"/>
      <point x="698" y="173"/>
      <point x="571" y="45"/>
      <point x="404" y="45" type="curve" smooth="yes"/>
    </contour>
    <contour>
      <point x="292" y="112" type="line" smooth="yes"/>
      <point x="309" y="112"/>
      <point x="316" y="121"/>
      <point x="316" y="136" type="curve" smooth="yes"/>
      <point x="316" y="291" type="line"/>
      <point x="423" y="291" type="line"/>
      <point x="500" y="123" type="line" smooth="yes"/>
      <point x="504" y="114"/>
      <point x="508" y="112"/>
      <point x="517" y="112" type="curve" smooth="yes"/>
      <point x="559" y="112" type="line" smooth="yes"/>
      <point x="571" y="112"/>
      <point x="572" y="119"/>
      <point x="567" y="130" type="curve" smooth="yes"/>
      <point x="488" y="298" type="line"/>
      <point x="571" y="315"/>
      <point x="600" y="365"/>
      <point x="600" y="432" type="curve" smooth="yes"/>
      <point x="600" y="523"/>
      <point x="550" y="572"/>
      <point x="453" y="572" type="curve" smooth="yes"/>
      <point x="271" y="572" type="line" smooth="yes"/>
      <point x="254" y="572"/>
      <point x="246" y="564"/>
      <point x="246" y="549" type="curve" smooth="yes"/>
      <point x="246" y="136" type="line" smooth="yes"/>
      <point x="246" y="121"/>
      <point x="254" y="112"/>
      <point x="271" y="112" type="curve" smooth="yes"/>
    </contour>
    <contour>
      <point x="314" y="515" type="line"/>
      <point x="445" y="515" type="line" smooth="yes"/>
      <point x="513" y="515"/>
      <point x="534" y="493"/>
      <point x="534" y="432" type="curve" smooth="yes"/>
      <point x="534" y="377"/>
      <point x="514" y="348"/>
      <point x="440" y="348" type="curve" smooth="yes"/>
      <point x="314" y="348" type="line"/>
    </contour>
  </outline>
</glyph>
<glyph name="twosuperior" format="1">
  <advance width="388"/>
  <unicode hex="00B2"/>
  <note>
	twosuperior
  </note>
  <outline>
    <contour>
      <point x="325" y="286" type="line" smooth="yes"/>
      <point x="336" y="286"/>
      <point x="341" y="290"/>
      <point x="341" y="302" type="curve" smooth="yes"/>
      <point x="341" y="331" type="line" smooth="yes"/>
      <point x="341" y="345"/>
      <point x="336" y="349"/>
      <point x="325" y="349" type="curve" smooth="yes"/>
      <point x="128" y="349" type="line"/>
      <point x="131" y="382"/>
      <point x="166" y="404"/>
      <point x="228" y="439" type="curve" smooth="yes"/>
      <point x="307" y="484"/>
      <point x="338" y="518"/>
      <point x="338" y="581" type="curve" smooth="yes"/>
      <point x="338" y="648"/>
      <point x="284" y="695"/>
      <point x="194" y="695" type="curve" smooth="yes"/>
      <point x="143" y="695"/>
      <point x="88" y="680"/>
      <point x="62" y="662" type="curve"/>
      <point x="57" y="658"/>
      <point x="56" y="656"/>
      <point x="59" y="649" type="curve"/>
      <point x="76" y="613" type="line"/>
      <point x="79" y="609"/>
      <point x="82" y="609"/>
      <point x="88" y="612" type="curve"/>
      <point x="115" y="627"/>
      <point x="148" y="636"/>
      <point x="184" y="636" type="curve" smooth="yes"/>
      <point x="237" y="636"/>
      <point x="265" y="612"/>
      <point x="265" y="577" type="curve" smooth="yes"/>
      <point x="265" y="535"/>
      <point x="253" y="515"/>
      <point x="172" y="472" type="curve" smooth="yes"/>
      <point x="95" y="429"/>
      <point x="48" y="393"/>
      <point x="48" y="341" type="curve" smooth="yes"/>
      <point x="48" y="303" type="line" smooth="yes"/>
      <point x="48" y="291"/>
      <point x="53" y="286"/>
      <point x="64" y="286" type="curve" smooth="yes"/>
    </contour>
  </outline>
</glyph>
<glyph name="threesuperior" format="1">
  <advance width="390"/>
  <unicode hex="00B3"/>
  <note>
	threesuperior
  </note>
  <outline>
    <contour>
      <point x="295" y="279"/>
      <point x="343" y="331"/>
      <point x="343" y="401" type="curve" smooth="yes"/>
      <point x="343" y="447"/>
      <point x="326" y="479"/>
      <point x="277" y="495" type="curve"/>
      <point x="317" y="515"/>
      <point x="331" y="543"/>
      <point x="331" y="585" type="curve" smooth="yes"/>
      <point x="331" y="650"/>
      <point x="281" y="695"/>
      <point x="185" y="695" type="curve" smooth="yes"/>
      <point x="135" y="695"/>
      <point x="83" y="681"/>
      <point x="58" y="662" type="curve" smooth="yes"/>
      <point x="53" y="658"/>
      <point x="53" y="656"/>
      <point x="56" y="650" type="curve" smooth="yes"/>
      <point x="73" y="615" type="line"/>
      <point x="75" y="610"/>
      <point x="78" y="610"/>
      <point x="84" y="613" type="curve"/>
      <point x="113" y="626"/>
      <point x="140" y="638"/>
      <point x="178" y="638" type="curve" smooth="yes"/>
      <point x="234" y="638"/>
      <point x="255" y="619"/>
      <point x="255" y="584" type="curve" smooth="yes"/>
      <point x="255" y="551"/>
      <point x="242" y="524"/>
      <point x="198" y="524" type="curve" smooth="yes"/>
      <point x="150" y="524" type="line" smooth="yes"/>
      <point x="137" y="524"/>
      <point x="132" y="520"/>
      <point x="132" y="508" type="curve" smooth="yes"/>
      <point x="132" y="482" type="line" smooth="yes"/>
      <point x="132" y="469"/>
      <point x="137" y="465"/>
      <point x="150" y="465" type="curve" smooth="yes"/>
      <point x="196" y="465" type="line" smooth="yes"/>
      <point x="247" y="465"/>
      <point x="268" y="447"/>
      <point x="268" y="402" type="curve" smooth="yes"/>
      <point x="268" y="355"/>
      <point x="242" y="336"/>
      <point x="174" y="336" type="curve" smooth="yes"/>
      <point x="138" y="336"/>
      <point x="106" y="347"/>
      <point x="77" y="361" type="curve" smooth="yes"/>
      <point x="71" y="364"/>
      <point x="68" y="364"/>
      <point x="66" y="359" type="curve"/>
      <point x="49" y="324" type="line" smooth="yes"/>
      <point x="46" y="318"/>
      <point x="46" y="316"/>
      <point x="52" y="312" type="curve"/>
      <point x="77" y="294"/>
      <point x="135" y="279"/>
      <point x="181" y="279" type="curve" smooth="yes"/>
    </contour>
  </outline>
</glyph>
<glyph name="micro" format="1">
  <advance width="673"/>
  <unicode hex="00B5"/>
  <note>
	pi
  </note>
  <outline>
    <contour>
      <point x="557" y="-15"/>
      <point x="603" y="-1"/>
      <point x="625" y="15" type="curve" smooth="yes"/>
      <point x="636" y="23"/>
      <point x="638" y="28"/>
      <point x="633" y="37" type="curve"/>
      <point x="611" y="72" type="line" smooth="yes"/>
      <point x="605" y="82"/>
      <point x="602" y="83"/>
      <point x="593" y="77" type="curve" smooth="yes"/>
      <point x="570" y="62"/>
      <point x="553" y="55"/>
      <point x="525" y="55" type="curve" smooth="yes"/>
      <point x="492" y="55"/>
      <point x="475" y="71"/>
      <point x="475" y="119" type="curve" smooth="yes"/>
      <point x="475" y="407" type="line"/>
      <point x="523" y="407" type="line" smooth="yes"/>
      <point x="544" y="407"/>
      <point x="552" y="414"/>
      <point x="552" y="434" type="curve" smooth="yes"/>
      <point x="552" y="452" type="line" smooth="yes"/>
      <point x="552" y="472"/>
      <point x="544" y="480"/>
      <point x="523" y="480" type="curve" smooth="yes"/>
      <point x="66" y="480" type="line" smooth="yes"/>
      <point x="45" y="480"/>
      <point x="37" y="472"/>
      <point x="37" y="452" type="curve" smooth="yes"/>
      <point x="37" y="434" type="line" smooth="yes"/>
      <point x="37" y="414"/>
      <point x="45" y="407"/>
      <point x="66" y="407" type="curve" smooth="yes"/>
      <point x="115" y="407" type="line"/>
      <point x="115" y="30" type="line" smooth="yes"/>
      <point x="115" y="10"/>
      <point x="124" y="0"/>
      <point x="146" y="0" type="curve" smooth="yes"/>
      <point x="173" y="0" type="line" smooth="yes"/>
      <point x="195" y="0"/>
      <point x="204" y="10"/>
      <point x="204" y="30" type="curve" smooth="yes"/>
      <point x="204" y="407" type="line"/>
      <point x="387" y="407" type="line"/>
      <point x="387" y="122" type="line" smooth="yes"/>
      <point x="387" y="33"/>
      <point x="426" y="-15"/>
      <point x="522" y="-15" type="curve" smooth="yes"/>
    </contour>
  </outline>
</glyph>
<glyph name="paragraph" format="1">
  <advance width="737"/>
  <unicode hex="00B6"/>
  <note>
	paragraph
  </note>
  <outline>
    <contour>
      <point x="339" y="-100" type="line" smooth="yes"/>
      <point x="361" y="-100"/>
      <point x="370" y="-90"/>
      <point x="370" y="-70" type="curve" smooth="yes"/>
      <point x="370" y="607" type="line"/>
      <point x="500" y="607" type="line"/>
      <point x="500" y="-70" type="line" smooth="yes"/>
      <point x="500" y="-90"/>
      <point x="509" y="-100"/>
      <point x="530" y="-100" type="curve" smooth="yes"/>
      <point x="560" y="-100" type="line" smooth="yes"/>
      <point x="582" y="-100"/>
      <point x="591" y="-90"/>
      <point x="591" y="-70" type="curve" smooth="yes"/>
      <point x="591" y="607" type="line"/>
      <point x="669" y="607" type="line" smooth="yes"/>
      <point x="683" y="607"/>
      <point x="690" y="614"/>
      <point x="690" y="628" type="curve" smooth="yes"/>
      <point x="690" y="659" type="line" smooth="yes"/>
      <point x="690" y="673"/>
      <point x="683" y="680"/>
      <point x="669" y="680" type="curve" smooth="yes"/>
      <point x="299" y="680" type="line" smooth="yes"/>
      <point x="124" y="680"/>
      <point x="47" y="619"/>
      <point x="47" y="471" type="curve" smooth="yes"/>
      <point x="47" y="334"/>
      <point x="127" y="279"/>
      <point x="279" y="279" type="curve"/>
      <point x="279" y="-70" type="line" smooth="yes"/>
      <point x="279" y="-90"/>
      <point x="288" y="-100"/>
      <point x="310" y="-100" type="curve" smooth="yes"/>
    </contour>
  </outline>
</glyph>
<glyph name="cedilla" format="1">
  <advance width="282"/>
  <unicode hex="00B8"/>
  <note>
	cedilla
  </note>
  <outline>
    <contour>
      <point x="197" y="-235"/>
      <point x="235" y="-205"/>
      <point x="235" y="-155" type="curve" smooth="yes"/>
      <point x="235" y="-108"/>
      <point x="206" y="-83"/>
      <point x="160" y="-81" type="curve"/>
      <point x="183" y="-31" type="line" smooth="yes"/>
      <point x="188" y="-21"/>
      <point x="185" y="-15"/>
      <point x="173" y="-15" type="curve" smooth="yes"/>
      <point x="128" y="-15" type="line" smooth="yes"/>
      <point x="114" y="-15"/>
      <point x="110" y="-18"/>
      <point x="106" y="-29" type="curve" smooth="yes"/>
      <point x="79" y="-97" type="line" smooth="yes"/>
      <point x="75" y="-107"/>
      <point x="79" y="-113"/>
      <point x="89" y="-113" type="curve" smooth="yes"/>
      <point x="103" y="-113" type="line" smooth="yes"/>
      <point x="146" y="-113"/>
      <point x="168" y="-118"/>
      <point x="168" y="-149" type="curve" smooth="yes"/>
      <point x="168" y="-173"/>
      <point x="156" y="-182"/>
      <point x="126" y="-182" type="curve" smooth="yes"/>
      <point x="110" y="-182"/>
      <point x="91" y="-179"/>
      <point x="78" y="-171" type="curve"/>
      <point x="69" y="-165"/>
      <point x="64" y="-166"/>
      <point x="60" y="-175" type="curve" smooth="yes"/>
      <point x="49" y="-201" type="line" smooth="yes"/>
      <point x="45" y="-211"/>
      <point x="48" y="-213"/>
      <point x="59" y="-219" type="curve" smooth="yes"/>
      <point x="77" y="-229"/>
      <point x="106" y="-235"/>
      <point x="133" y="-235" type="curve" smooth="yes"/>
    </contour>
  </outline>
</glyph>
<glyph name="onesuperior" format="1">
  <advance width="376"/>
  <unicode hex="00B9"/>
  <note>
	onesuperior
  </note>
  <outline>
    <contour>
      <point x="325" y="286" type="line" smooth="yes"/>
      <point x="342" y="286"/>
      <point x="349" y="291"/>
      <point x="349" y="309" type="curve" smooth="yes"/>
      <point x="349" y="323" type="line" smooth="yes"/>
      <point x="349" y="340"/>
      <point x="342" y="347"/>
      <point x="325" y="347" type="curve" smooth="yes"/>
      <point x="246" y="347" type="line"/>
      <point x="246" y="655" type="line" smooth="yes"/>
      <point x="246" y="671"/>
      <point x="239" y="680"/>
      <point x="221" y="680" type="curve" smooth="yes"/>
      <point x="201" y="680" type="line" smooth="yes"/>
      <point x="191" y="680"/>
      <point x="186" y="678"/>
      <point x="180" y="674" type="curve"/>
      <point x="59" y="601" type="line" smooth="yes"/>
      <point x="48" y="594"/>
      <point x="44" y="587"/>
      <point x="51" y="575" type="curve"/>
      <point x="63" y="556" type="line" smooth="yes"/>
      <point x="71" y="543"/>
      <point x="80" y="543"/>
      <point x="91" y="550" type="curve" smooth="yes"/>
      <point x="171" y="598" type="line"/>
      <point x="171" y="347" type="line"/>
      <point x="90" y="347" type="line" smooth="yes"/>
      <point x="73" y="347"/>
      <point x="65" y="340"/>
      <point x="65" y="323" type="curve" smooth="yes"/>
      <point x="65" y="309" type="line" smooth="yes"/>
      <point x="65" y="291"/>
      <point x="73" y="286"/>
      <point x="90" y="286" type="curve" smooth="yes"/>
    </contour>
  </outline>
</glyph>
<glyph name="ordmasculine" format="1">
  <advance width="413"/>
  <unicode hex="00BA"/>
  <note>
	ordmasculine
  </note>
  <outline>
    <contour>
      <point x="307" y="368"/>
      <point x="366" y="429"/>
      <point x="366" y="531" type="curve" smooth="yes"/>
      <point x="366" y="634"/>
      <point x="307" y="695"/>
      <point x="207" y="695" type="curve" smooth="yes"/>
      <point x="106" y="695"/>
      <point x="47" y="634"/>
      <point x="47" y="531" type="curve" smooth="yes"/>
      <point x="47" y="429"/>
      <point x="106" y="368"/>
      <point x="207" y="368" type="curve" smooth="yes"/>
    </contour>
    <contour>
      <point x="145" y="417"/>
      <point x="109" y="457"/>
      <point x="109" y="531" type="curve" smooth="yes"/>
      <point x="109" y="607"/>
      <point x="145" y="645"/>
      <point x="207" y="645" type="curve" smooth="yes"/>
      <point x="268" y="645"/>
      <point x="304" y="607"/>
      <point x="304" y="531" type="curve" smooth="yes"/>
      <point x="304" y="457"/>
      <point x="268" y="417"/>
      <point x="207" y="417" type="curve" smooth="yes"/>
    </contour>
  </outline>
</glyph>
<glyph name="onequarter" format="1">
  <advance width="800"/>
  <unicode hex="00BC"/>
  <note>
	onequarter
  </note>
  <outline>
    <contour>
      <point x="231" y="0" type="line" smooth="yes"/>
      <point x="245" y="0"/>
      <point x="254" y="2"/>
      <point x="260" y="12" type="curve"/>
      <point x="693" y="661" type="line" smooth="yes"/>
      <point x="699" y="670"/>
      <point x="697" y="680"/>
      <point x="684" y="680" type="curve" smooth="yes"/>
      <point x="626" y="680" type="line" smooth="yes"/>
      <point x="615" y="680"/>
      <point x="610" y="675"/>
      <point x="605" y="667" type="curve" smooth="yes"/>
      <point x="173" y="19" type="line" smooth="yes"/>
      <point x="167" y="10"/>
      <point x="169" y="0"/>
      <point x="182" y="0" type="curve" smooth="yes"/>
    </contour>
    <contour>
      <point x="325" y="286" type="line" smooth="yes"/>
      <point x="342" y="286"/>
      <point x="349" y="291"/>
      <point x="349" y="309" type="curve" smooth="yes"/>
      <point x="349" y="323" type="line" smooth="yes"/>
      <point x="349" y="340"/>
      <point x="342" y="347"/>
      <point x="325" y="347" type="curve" smooth="yes"/>
      <point x="246" y="347" type="line"/>
      <point x="246" y="655" type="line" smooth="yes"/>
      <point x="246" y="671"/>
      <point x="239" y="680"/>
      <point x="221" y="680" type="curve" smooth="yes"/>
      <point x="201" y="680" type="line" smooth="yes"/>
      <point x="191" y="680"/>
      <point x="186" y="678"/>
      <point x="180" y="674" type="curve"/>
      <point x="59" y="601" type="line" smooth="yes"/>
      <point x="48" y="594"/>
      <point x="44" y="587"/>
      <point x="51" y="575" type="curve"/>
      <point x="63" y="556" type="line" smooth="yes"/>
      <point x="71" y="543"/>
      <point x="80" y="543"/>
      <point x="91" y="550" type="curve" smooth="yes"/>
      <point x="171" y="598" type="line"/>
      <point x="171" y="347" type="line"/>
      <point x="90" y="347" type="line" smooth="yes"/>
      <point x="73" y="347"/>
      <point x="65" y="340"/>
      <point x="65" y="323" type="curve" smooth="yes"/>
      <point x="65" y="309" type="line" smooth="yes"/>
      <point x="65" y="291"/>
      <point x="73" y="286"/>
      <point x="90" y="286" type="curve" smooth="yes"/>
    </contour>
    <contour>
      <point x="662" y="0" type="line" smooth="yes"/>
      <point x="680" y="0"/>
      <point x="688" y="8"/>
      <point x="688" y="24" type="curve" smooth="yes"/>
      <point x="688" y="90" type="line"/>
      <point x="731" y="90" type="line" smooth="yes"/>
      <point x="749" y="90"/>
      <point x="756" y="95"/>
      <point x="756" y="112" type="curve" smooth="yes"/>
      <point x="756" y="125" type="line" smooth="yes"/>
      <point x="756" y="142"/>
      <point x="749" y="149"/>
      <point x="731" y="149" type="curve" smooth="yes"/>
      <point x="688" y="149" type="line"/>
      <point x="688" y="377" type="line" smooth="yes"/>
      <point x="688" y="388"/>
      <point x="683" y="394"/>
      <point x="670" y="394" type="curve" smooth="yes"/>
      <point x="627" y="394" type="line" smooth="yes"/>
      <point x="615" y="394"/>
      <point x="611" y="388"/>
      <point x="605" y="381" type="curve"/>
      <point x="424" y="152" type="line" smooth="yes"/>
      <point x="415" y="141"/>
      <point x="413" y="133"/>
      <point x="413" y="124" type="curve" smooth="yes"/>
      <point x="413" y="102" type="line" smooth="yes"/>
      <point x="413" y="93"/>
      <point x="417" y="90"/>
      <point x="427" y="90" type="curve" smooth="yes"/>
      <point x="611" y="90" type="line"/>
      <point x="611" y="24" type="line" smooth="yes"/>
      <point x="611" y="8"/>
      <point x="619" y="0"/>
      <point x="637" y="0" type="curve" smooth="yes"/>
    </contour>
    <contour>
      <point x="618" y="299" type="line"/>
      <point x="618" y="149" type="line"/>
      <point x="503" y="149" type="line"/>
    </contour>
  </outline>
</glyph>
<glyph name="Acircumflex" format="1">
  <advance width="727"/>
  <unicode hex="00C2"/>
  <note>
	Acircumflex
  </note>
  <outline>
    <contour>
      <point x="116" y="0" type="line" smooth="yes"/>
      <point x="133" y="0"/>
      <point x="136" y="3"/>
      <point x="141" y="15" type="curve" smooth="yes"/>
      <point x="209" y="178" type="line"/>
      <point x="518" y="178" type="line"/>
      <point x="586" y="15" type="line" smooth="yes"/>
      <point x="591" y="3"/>
      <point x="594" y="0"/>
      <point x="611" y="0" type="curve" smooth="yes"/>
      <point x="664" y="0" type="line" smooth="yes"/>
      <point x="678" y="0"/>
      <point x="682" y="10"/>
      <point x="677" y="23" type="curve" smooth="yes"/>
      <point x="408" y="659" type="line" smooth="yes"/>
      <point x="401" y="675"/>
      <point x="397" y="680"/>
      <point x="382" y="680" type="curve" smooth="yes"/>
      <point x="345" y="680" type="line" smooth="yes"/>
      <point x="330" y="680"/>
      <point x="326" y="675"/>
      <point x="319" y="659" type="curve" smooth="yes"/>
      <point x="50" y="23" type="line" smooth="yes"/>
      <point x="45" y="10"/>
      <point x="49" y="0"/>
      <point x="63" y="0" type="curve" smooth="yes"/>
    </contour>
    <contour>
      <point x="363" y="557" type="line"/>
      <point x="491" y="249" type="line"/>
      <point x="235" y="249" type="line"/>
    </contour>
    <contour>
      <point x="254" y="730" type="line" smooth="yes"/>
      <point x="274" y="730"/>
      <point x="279" y="737"/>
      <point x="287" y="749" type="curve" smooth="yes"/>
      <point x="363" y="860" type="line"/>
      <point x="439" y="749" type="line" smooth="yes"/>
      <point x="447" y="737"/>
      <point x="452" y="730"/>
      <point x="472" y="730" type="curve" smooth="yes"/>
      <point x="505" y="730" type="line" smooth="yes"/>
      <point x="520" y="730"/>
      <point x="529" y="741"/>
      <point x="519" y="755" type="curve" smooth="yes"/>
      <point x="411" y="904" type="line" smooth="yes"/>
      <point x="401" y="917"/>
      <point x="398" y="923"/>
      <point x="380" y="923" type="curve" smooth="yes"/>
      <point x="346" y="923" type="line" smooth="yes"/>
      <point x="328" y="923"/>
      <point x="325" y="917"/>
      <point x="315" y="904" type="curve" smooth="yes"/>
      <point x="207" y="755" type="line" smooth="yes"/>
      <point x="197" y="741"/>
      <point x="206" y="730"/>
      <point x="221" y="730" type="curve" smooth="yes"/>
    </contour>
  </outline>
</glyph>
<glyph name="Aring" format="1">
  <advance width="727"/>
  <unicode hex="00C5"/>
  <note>
	Aring
  </note>
  <outline>
    <contour>
      <point x="116" y="0" type="line" smooth="yes"/>
      <point x="133" y="0"/>
      <point x="136" y="3"/>
      <point x="141" y="15" type="curve" smooth="yes"/>
      <point x="209" y="178" type="line"/>
      <point x="518" y="178" type="line"/>
      <point x="586" y="15" type="line" smooth="yes"/>
      <point x="591" y="3"/>
      <point x="594" y="0"/>
      <point x="611" y="0" type="curve" smooth="yes"/>
      <point x="664" y="0" type="line" smooth="yes"/>
      <point x="678" y="0"/>
      <point x="682" y="10"/>
      <point x="677" y="23" type="curve" smooth="yes"/>
      <point x="408" y="659" type="line" smooth="yes"/>
      <point x="401" y="675"/>
      <point x="397" y="680"/>
      <point x="382" y="680" type="curve" smooth="yes"/>
      <point x="345" y="680" type="line" smooth="yes"/>
      <point x="330" y="680"/>
      <point x="326" y="675"/>
      <point x="319" y="659" type="curve" smooth="yes"/>
      <point x="50" y="23" type="line" smooth="yes"/>
      <point x="45" y="10"/>
      <point x="49" y="0"/>
      <point x="63" y="0" type="curve" smooth="yes"/>
    </contour>
    <contour>
      <point x="363" y="557" type="line"/>
      <point x="491" y="249" type="line"/>
      <point x="235" y="249" type="line"/>
    </contour>
    <contour>
      <point x="426" y="638"/>
      <point x="477" y="688"/>
      <point x="477" y="751" type="curve" smooth="yes"/>
      <point x="477" y="814"/>
      <point x="426" y="865"/>
      <point x="363" y="865" type="curve" smooth="yes"/>
      <point x="300" y="865"/>
      <point x="250" y="814"/>
      <point x="250" y="751" type="curve" smooth="yes"/>
      <point x="250" y="688"/>
      <point x="300" y="638"/>
      <point x="363" y="638" type="curve" smooth="yes"/>
    </contour>
    <contour>
      <point x="329" y="690"/>
      <point x="302" y="717"/>
      <point x="302" y="751" type="curve" smooth="yes"/>
      <point x="302" y="785"/>
      <point x="329" y="812"/>
      <point x="363" y="812" type="curve" smooth="yes"/>
      <point x="397" y="812"/>
      <point x="424" y="785"/>
      <point x="424" y="751" type="curve" smooth="yes"/>
      <point x="424" y="717"/>
      <point x="397" y="690"/>
      <point x="363" y="690" type="curve" smooth="yes"/>
    </contour>
  </outline>
</glyph>
<glyph name="AE" format="1">
  <advance width="892"/>
  <unicode hex="00C6"/>
  <note>
	AE
  </note>
  <outline>
    <contour>
      <point x="106" y="0" type="line" smooth="yes"/>
      <point x="127" y="0"/>
      <point x="137" y="4"/>
      <point x="143" y="19" type="curve" smooth="yes"/>
      <point x="209" y="178" type="line"/>
      <point x="423" y="178" type="line"/>
      <point x="423" y="30" type="line" smooth="yes"/>
      <point x="423" y="10"/>
      <point x="432" y="0"/>
      <point x="454" y="0" type="curve" smooth="yes"/>
      <point x="825" y="0" type="line" smooth="yes"/>
      <point x="846" y="0"/>
      <point x="855" y="7"/>
      <point x="855" y="27" type="curve" smooth="yes"/>
      <point x="855" y="44" type="line" smooth="yes"/>
      <point x="855" y="65"/>
      <point x="846" y="73"/>
      <point x="825" y="73" type="curve" smooth="yes"/>
      <point x="511" y="73" type="line"/>
      <point x="511" y="304" type="line"/>
      <point x="738" y="304" type="line" smooth="yes"/>
      <point x="759" y="304"/>
      <point x="767" y="313"/>
      <point x="767" y="333" type="curve" smooth="yes"/>
      <point x="767" y="349" type="line" smooth="yes"/>
      <point x="767" y="370"/>
      <point x="759" y="377"/>
      <point x="738" y="377" type="curve" smooth="yes"/>
      <point x="511" y="377" type="line"/>
      <point x="511" y="607" type="line"/>
      <point x="825" y="607" type="line" smooth="yes"/>
      <point x="846" y="607"/>
      <point x="855" y="615"/>
      <point x="855" y="636" type="curve" smooth="yes"/>
      <point x="855" y="653" type="line" smooth="yes"/>
      <point x="855" y="673"/>
      <point x="846" y="680"/>
      <point x="825" y="680" type="curve" smooth="yes"/>
      <point x="345" y="680" type="line" smooth="yes"/>
      <point x="330" y="680"/>
      <point x="325" y="675"/>
      <point x="319" y="659" type="curve"/>
      <point x="50" y="23" type="line" smooth="yes"/>
      <point x="45" y="10"/>
      <point x="50" y="0"/>
      <point x="63" y="0" type="curve" smooth="yes"/>
    </contour>
    <contour>
      <point x="383" y="607" type="line"/>
      <point x="423" y="607" type="line"/>
      <point x="423" y="249" type="line"/>
      <point x="233" y="249" type="line"/>
    </contour>
  </outline>
</glyph>
<glyph name="Ccedilla" format="1">
  <advance width="676"/>
  <unicode hex="00C7"/>
  <note>
	Ccedilla
  </note>
  <outline>
    <contour>
      <point x="492" y="-15"/>
      <point x="566" y="1"/>
      <point x="620" y="37" type="curve" smooth="yes"/>
      <point x="630" y="44"/>
      <point x="632" y="47"/>
      <point x="627" y="56" type="curve" smooth="yes"/>
      <point x="605" y="94" type="line" smooth="yes"/>
      <point x="600" y="103"/>
      <point x="595" y="103"/>
      <point x="585" y="97" type="curve" smooth="yes"/>
      <point x="539" y="69"/>
      <point x="483" y="55"/>
      <point x="402" y="55" type="curve" smooth="yes"/>
      <point x="249" y="55"/>
      <point x="136" y="136"/>
      <point x="136" y="340" type="curve" smooth="yes"/>
      <point x="136" y="539"/>
      <point x="243" y="625"/>
      <point x="400" y="625" type="curve" smooth="yes"/>
      <point x="476" y="625"/>
      <point x="535" y="607"/>
      <point x="572" y="584" type="curve" smooth="yes"/>
      <point x="582" y="578"/>
      <point x="585" y="578"/>
      <point x="591" y="588" type="curve" smooth="yes"/>
      <point x="612" y="623" type="line" smooth="yes"/>
      <point x="618" y="633"/>
      <point x="616" y="638"/>
      <point x="607" y="644" type="curve" smooth="yes"/>
      <point x="555" y="678"/>
      <point x="476" y="695"/>
      <point x="393" y="695" type="curve" smooth="yes"/>
      <point x="171" y="695"/>
      <point x="47" y="565"/>
      <point x="47" y="340" type="curve" smooth="yes"/>
      <point x="47" y="115"/>
      <point x="173" y="-15"/>
      <point x="394" y="-15" type="curve" smooth="yes"/>
    </contour>
    <contour>
      <point x="445" y="-223"/>
      <point x="483" y="-193"/>
      <point x="483" y="-143" type="curve" smooth="yes"/>
      <point x="483" y="-94"/>
      <point x="454" y="-71"/>
      <point x="408" y="-69" type="curve"/>
      <point x="431" y="-19" type="line" smooth="yes"/>
      <point x="436" y="-9"/>
      <point x="433" y="-3"/>
      <point x="421" y="-3" type="curve" smooth="yes"/>
      <point x="376" y="-3" type="line" smooth="yes"/>
      <point x="362" y="-3"/>
      <point x="358" y="-6"/>
      <point x="354" y="-17" type="curve" smooth="yes"/>
      <point x="327" y="-85" type="line" smooth="yes"/>
      <point x="323" y="-95"/>
      <point x="327" y="-101"/>
      <point x="337" y="-101" type="curve" smooth="yes"/>
      <point x="351" y="-101" type="line" smooth="yes"/>
      <point x="393" y="-101"/>
      <point x="415" y="-106"/>
      <point x="415" y="-137" type="curve" smooth="yes"/>
      <point x="415" y="-161"/>
      <point x="404" y="-170"/>
      <point x="373" y="-170" type="curve" smooth="yes"/>
      <point x="358" y="-170"/>
      <point x="339" y="-166"/>
      <point x="326" y="-159" type="curve"/>
      <point x="317" y="-153"/>
      <point x="312" y="-154"/>
      <point x="308" y="-163" type="curve" smooth="yes"/>
      <point x="297" y="-189" type="line" smooth="yes"/>
      <point x="294" y="-196"/>
      <point x="296" y="-200"/>
      <point x="307" y="-207" type="curve"/>
      <point x="324" y="-217"/>
      <point x="353" y="-223"/>
      <point x="380" y="-223" type="curve" smooth="yes"/>
    </contour>
  </outline>
</glyph>
<glyph name="Eacute" format="1">
  <advance width="579"/>
  <unicode hex="00C9"/>
  <note>
	Eacute
  </note>
  <outline>
    <contour>
      <point x="513" y="0" type="line" smooth="yes"/>
      <point x="534" y="0"/>
      <point x="542" y="7"/>
      <point x="542" y="27" type="curve" smooth="yes"/>
      <point x="542" y="44" type="line" smooth="yes"/>
      <point x="542" y="65"/>
      <point x="534" y="73"/>
      <point x="513" y="73" type="curve" smooth="yes"/>
      <point x="158" y="73" type="line"/>
      <point x="158" y="304" type="line"/>
      <point x="425" y="304" type="line" smooth="yes"/>
      <point x="446" y="304"/>
      <point x="455" y="313"/>
      <point x="455" y="333" type="curve" smooth="yes"/>
      <point x="455" y="349" type="line" smooth="yes"/>
      <point x="455" y="370"/>
      <point x="446" y="377"/>
      <point x="425" y="377" type="curve" smooth="yes"/>
      <point x="158" y="377" type="line"/>
      <point x="158" y="607" type="line"/>
      <point x="513" y="607" type="line" smooth="yes"/>
      <point x="534" y="607"/>
      <point x="542" y="615"/>
      <point x="542" y="636" type="curve" smooth="yes"/>
      <point x="542" y="653" type="line" smooth="yes"/>
      <point x="542" y="673"/>
      <point x="534" y="680"/>
      <point x="513" y="680" type="curve" smooth="yes"/>
      <point x="97" y="680" type="line" smooth="yes"/>
      <point x="76" y="680"/>
      <point x="67" y="670"/>
      <point x="67" y="650" type="curve" smooth="yes"/>
      <point x="67" y="30" type="line" smooth="yes"/>
      <point x="67" y="10"/>
      <point x="76" y="0"/>
      <point x="97" y="0" type="curve" smooth="yes"/>
    </contour>
    <contour>
      <point x="305" y="759" type="line" smooth="yes"/>
      <point x="323" y="759"/>
      <point x="330" y="763"/>
      <point x="336" y="776" type="curve" smooth="yes"/>
      <point x="402" y="912" type="line" smooth="yes"/>
      <point x="410" y="928"/>
      <point x="404" y="936"/>
      <point x="387" y="936" type="curve" smooth="yes"/>
      <point x="336" y="936" type="line" smooth="yes"/>
      <point x="317" y="936"/>
      <point x="312" y="931"/>
      <point x="307" y="917" type="curve" smooth="yes"/>
      <point x="258" y="781" type="line" smooth="yes"/>
      <point x="253" y="768"/>
      <point x="256" y="759"/>
      <point x="271" y="759" type="curve" smooth="yes"/>
    </contour>
  </outline>
</glyph>
<glyph name="Ecircumflex" format="1">
  <advance width="579"/>
  <unicode hex="00CA"/>
  <note>
	Ecircumflex
  </note>
  <outline>
    <contour>
      <point x="513" y="0" type="line" smooth="yes"/>
      <point x="534" y="0"/>
      <point x="542" y="7"/>
      <point x="542" y="27" type="curve" smooth="yes"/>
      <point x="542" y="44" type="line" smooth="yes"/>
      <point x="542" y="65"/>
      <point x="534" y="73"/>
      <point x="513" y="73" type="curve" smooth="yes"/>
      <point x="158" y="73" type="line"/>
      <point x="158" y="304" type="line"/>
      <point x="425" y="304" type="line" smooth="yes"/>
      <point x="446" y="304"/>
      <point x="455" y="313"/>
      <point x="455" y="333" type="curve" smooth="yes"/>
      <point x="455" y="349" type="line" smooth="yes"/>
      <point x="455" y="370"/>
      <point x="446" y="377"/>
      <point x="425" y="377" type="curve" smooth="yes"/>
      <point x="158" y="377" type="line"/>
      <point x="158" y="607" type="line"/>
      <point x="513" y="607" type="line" smooth="yes"/>
      <point x="534" y="607"/>
      <point x="542" y="615"/>
      <point x="542" y="636" type="curve" smooth="yes"/>
      <point x="542" y="653" type="line" smooth="yes"/>
      <point x="542" y="673"/>
      <point x="534" y="680"/>
      <point x="513" y="680" type="curve" smooth="yes"/>
      <point x="97" y="680" type="line" smooth="yes"/>
      <point x="76" y="680"/>
      <point x="67" y="670"/>
      <point x="67" y="650" type="curve" smooth="yes"/>
      <point x="67" y="30" type="line" smooth="yes"/>
      <point x="67" y="10"/>
      <point x="76" y="0"/>
      <point x="97" y="0" type="curve" smooth="yes"/>
    </contour>
    <contour>
      <point x="192" y="754" type="line" smooth="yes"/>
      <point x="212" y="754"/>
      <point x="217" y="761"/>
      <point x="225" y="773" type="curve" smooth="yes"/>
      <point x="301" y="884" type="line"/>
      <point x="377" y="773" type="line" smooth="yes"/>
      <point x="385" y="761"/>
      <point x="390" y="754"/>
      <point x="410" y="754" type="curve" smooth="yes"/>
      <point x="443" y="754" type="line" smooth="yes"/>
      <point x="458" y="754"/>
      <point x="467" y="765"/>
      <point x="457" y="779" type="curve" smooth="yes"/>
      <point x="349" y="928" type="line" smooth="yes"/>
      <point x="339" y="941"/>
      <point x="336" y="947"/>
      <point x="318" y="947" type="curve" smooth="yes"/>
      <point x="284" y="947" type="line" smooth="yes"/>
      <point x="266" y="947"/>
      <point x="263" y="941"/>
      <point x="253" y="928" type="curve" smooth="yes"/>
      <point x="145" y="779" type="line" smooth="yes"/>
      <point x="135" y="765"/>
      <point x="144" y="754"/>
      <point x="159" y="754" type="curve" smooth="yes"/>
    </contour>
  </outline>
</glyph>
<glyph name="Igrave" format="1">
  <advance width="222"/>
  <unicode hex="00CC"/>
  <note>
	Igrave
  </note>
  <outline>
    <contour>
      <point x="127" y="0" type="line" smooth="yes"/>
      <point x="149" y="0"/>
      <point x="157" y="10"/>
      <point x="157" y="30" type="curve" smooth="yes"/>
      <point x="157" y="650" type="line" smooth="yes"/>
      <point x="157" y="670"/>
      <point x="149" y="680"/>
      <point x="127" y="680" type="curve" smooth="yes"/>
      <point x="96" y="680" type="line" smooth="yes"/>
      <point x="75" y="680"/>
      <point x="66" y="670"/>
      <point x="66" y="650" type="curve" smooth="yes"/>
      <point x="66" y="30" type="line" smooth="yes"/>
      <point x="66" y="10"/>
      <point x="75" y="0"/>
      <point x="96" y="0" type="curve" smooth="yes"/>
    </contour>
    <contour>
      <point x="132" y="759" type="line" smooth="yes"/>
      <point x="147" y="759"/>
      <point x="151" y="768"/>
      <point x="146" y="781" type="curve" smooth="yes"/>
      <point x="96" y="917" type="line" smooth="yes"/>
      <point x="91" y="932"/>
      <point x="87" y="936"/>
      <point x="67" y="936" type="curve" smooth="yes"/>
      <point x="17" y="936" type="line" smooth="yes"/>
      <point x="0" y="936"/>
      <point x="-7" y="928"/>
      <point x="1" y="912" type="curve" smooth="yes"/>
      <point x="68" y="776" type="line" smooth="yes"/>
      <point x="74" y="763"/>
      <point x="80" y="759"/>
      <point x="98" y="759" type="curve" smooth="yes"/>
    </contour>
  </outline>
</glyph>
<glyph name="Iacute" format="1">
  <advance width="233"/>
  <unicode hex="00CD"/>
  <note>
	Iacute
  </note>
  <outline>
    <contour>
      <point x="132" y="0" type="line" smooth="yes"/>
      <point x="154" y="0"/>
      <point x="162" y="10"/>
      <point x="162" y="30" type="curve" smooth="yes"/>
      <point x="162" y="650" type="line" smooth="yes"/>
      <point x="162" y="670"/>
      <point x="154" y="680"/>
      <point x="132" y="680" type="curve" smooth="yes"/>
      <point x="101" y="680" type="line" smooth="yes"/>
      <point x="80" y="680"/>
      <point x="71" y="670"/>
      <point x="71" y="650" type="curve" smooth="yes"/>
      <point x="71" y="30" type="line" smooth="yes"/>
      <point x="71" y="10"/>
      <point x="80" y="0"/>
      <point x="101" y="0" type="curve" smooth="yes"/>
    </contour>
    <contour>
      <point x="128" y="759" type="line" smooth="yes"/>
      <point x="146" y="759"/>
      <point x="153" y="763"/>
      <point x="159" y="776" type="curve" smooth="yes"/>
      <point x="225" y="912" type="line" smooth="yes"/>
      <point x="233" y="928"/>
      <point x="227" y="936"/>
      <point x="210" y="936" type="curve" smooth="yes"/>
      <point x="159" y="936" type="line" smooth="yes"/>
      <point x="140" y="936"/>
      <point x="135" y="931"/>
      <point x="130" y="917" type="curve" smooth="yes"/>
      <point x="81" y="781" type="line" smooth="yes"/>
      <point x="76" y="768"/>
      <point x="79" y="759"/>
      <point x="94" y="759" type="curve" smooth="yes"/>
    </contour>
  </outline>
</glyph>
<glyph name="Ocircumflex" format="1">
  <advance width="765"/>
  <unicode hex="00D4"/>
  <note>
	Ocircumflex
  </note>
  <outline>
    <contour>
      <point x="596" y="-15"/>
      <point x="718" y="116"/>
      <point x="718" y="340" type="curve" smooth="yes"/>
      <point x="718" y="564"/>
      <point x="596" y="695"/>
      <point x="383" y="695" type="curve" smooth="yes"/>
      <point x="169" y="695"/>
      <point x="47" y="564"/>
      <point x="47" y="340" type="curve" smooth="yes"/>
      <point x="47" y="116"/>
      <point x="169" y="-15"/>
      <point x="383" y="-15" type="curve" smooth="yes"/>
    </contour>
    <contour>
      <point x="227" y="55"/>
      <point x="136" y="153"/>
      <point x="136" y="340" type="curve" smooth="yes"/>
      <point x="136" y="527"/>
      <point x="227" y="625"/>
      <point x="383" y="625" type="curve" smooth="yes"/>
      <point x="538" y="625"/>
      <point x="629" y="527"/>
      <point x="629" y="340" type="curve" smooth="yes"/>
      <point x="629" y="153"/>
      <point x="538" y="55"/>
      <point x="383" y="55" type="curve" smooth="yes"/>
    </contour>
    <contour>
      <point x="273" y="754" type="line" smooth="yes"/>
      <point x="293" y="754"/>
      <point x="298" y="761"/>
      <point x="306" y="773" type="curve" smooth="yes"/>
      <point x="382" y="884" type="line"/>
      <point x="458" y="773" type="line" smooth="yes"/>
      <point x="466" y="761"/>
      <point x="471" y="754"/>
      <point x="491" y="754" type="curve" smooth="yes"/>
      <point x="524" y="754" type="line" smooth="yes"/>
      <point x="539" y="754"/>
      <point x="548" y="765"/>
      <point x="538" y="779" type="curve" smooth="yes"/>
      <point x="430" y="928" type="line" smooth="yes"/>
      <point x="420" y="941"/>
      <point x="417" y="947"/>
      <point x="399" y="947" type="curve" smooth="yes"/>
      <point x="365" y="947" type="line" smooth="yes"/>
      <point x="347" y="947"/>
      <point x="344" y="941"/>
      <point x="334" y="928" type="curve" smooth="yes"/>
      <point x="226" y="779" type="line" smooth="yes"/>
      <point x="216" y="765"/>
      <point x="225" y="754"/>
      <point x="240" y="754" type="curve" smooth="yes"/>
    </contour>
  </outline>
</glyph>
<glyph name="Otilde" format="1">
  <advance width="765"/>
  <unicode hex="00D5"/>
  <note>
	Otilde
  </note>
  <outline>
    <contour>
      <point x="596" y="-15"/>
      <point x="718" y="116"/>
      <point x="718" y="340" type="curve" smooth="yes"/>
      <point x="718" y="564"/>
      <point x="596" y="695"/>
      <point x="383" y="695" type="curve" smooth="yes"/>
      <point x="169" y="695"/>
      <point x="47" y="564"/>
      <point x="47" y="340" type="curve" smooth="yes"/>
      <point x="47" y="116"/>
      <point x="169" y="-15"/>
      <point x="383" y="-15" type="curve" smooth="yes"/>
    </contour>
    <contour>
      <point x="227" y="55"/>
      <point x="136" y="153"/>
      <point x="136" y="340" type="curve" smooth="yes"/>
      <point x="136" y="527"/>
      <point x="227" y="625"/>
      <point x="383" y="625" type="curve" smooth="yes"/>
      <point x="538" y="625"/>
      <point x="629" y="527"/>
      <point x="629" y="340" type="curve" smooth="yes"/>
      <point x="629" y="153"/>
      <point x="538" y="55"/>
      <point x="383" y="55" type="curve" smooth="yes"/>
    </contour>
    <contour>
      <point x="524" y="759"/>
      <point x="554" y="780"/>
      <point x="583" y="823" type="curve" smooth="yes"/>
      <point x="595" y="841"/>
      <point x="594" y="852"/>
      <point x="574" y="868" type="curve" smooth="yes"/>
      <point x="555" y="884"/>
      <point x="542" y="884"/>
      <point x="531" y="869" type="curve" smooth="yes"/>
      <point x="509" y="840"/>
      <point x="494" y="831"/>
      <point x="466" y="831" type="curve" smooth="yes"/>
      <point x="404" y="831"/>
      <point x="361" y="884"/>
      <point x="279" y="884" type="curve" smooth="yes"/>
      <point x="232" y="884"/>
      <point x="203" y="857"/>
      <point x="180" y="830" type="curve" smooth="yes"/>
      <point x="167" y="815"/>
      <point x="167" y="802"/>
      <point x="181" y="788" type="curve" smooth="yes"/>
      <point x="199" y="770"/>
      <point x="213" y="768"/>
      <point x="224" y="781" type="curve"/>
      <point x="244" y="803"/>
      <point x="254" y="813"/>
      <point x="283" y="813" type="curve" smooth="yes"/>
      <point x="338" y="813"/>
      <point x="397" y="759"/>
      <point x="466" y="759" type="curve" smooth="yes"/>
    </contour>
  </outline>
</glyph>
<glyph name="Odieresis" format="1">
  <advance width="765"/>
  <unicode hex="00D6"/>
  <note>
	Odieresis
  </note>
  <outline>
    <contour>
      <point x="596" y="-15"/>
      <point x="718" y="116"/>
      <point x="718" y="340" type="curve" smooth="yes"/>
      <point x="718" y="564"/>
      <point x="596" y="695"/>
      <point x="383" y="695" type="curve" smooth="yes"/>
      <point x="169" y="695"/>
      <point x="47" y="564"/>
      <point x="47" y="340" type="curve" smooth="yes"/>
      <point x="47" y="116"/>
      <point x="169" y="-15"/>
      <point x="383" y="-15" type="curve" smooth="yes"/>
    </contour>
    <contour>
      <point x="227" y="55"/>
      <point x="136" y="153"/>
      <point x="136" y="340" type="curve" smooth="yes"/>
      <point x="136" y="527"/>
      <point x="227" y="625"/>
      <point x="383" y="625" type="curve" smooth="yes"/>
      <point x="538" y="625"/>
      <point x="629" y="527"/>
      <point x="629" y="340" type="curve" smooth="yes"/>
      <point x="629" y="153"/>
      <point x="538" y="55"/>
      <point x="383" y="55" type="curve" smooth="yes"/>
    </contour>
    <contour>
      <point x="296" y="752" type="line" smooth="yes"/>
      <point x="320" y="752"/>
      <point x="336" y="771"/>
      <point x="336" y="794" type="curve" smooth="yes"/>
      <point x="336" y="810" type="line" smooth="yes"/>
      <point x="336" y="833"/>
      <point x="319" y="852"/>
      <point x="296" y="852" type="curve" smooth="yes"/>
      <point x="279" y="852" type="line" smooth="yes"/>
      <point x="255" y="852"/>
      <point x="239" y="833"/>
      <point x="239" y="810" type="curve" smooth="yes"/>
      <point x="239" y="794" type="line" smooth="yes"/>
      <point x="239" y="771"/>
      <point x="255" y="752"/>
      <point x="279" y="752" type="curve" smooth="yes"/>
    </contour>
    <contour>
      <point x="484" y="752" type="line" smooth="yes"/>
      <point x="509" y="752"/>
      <point x="524" y="771"/>
      <point x="524" y="794" type="curve" smooth="yes"/>
      <point x="524" y="810" type="line" smooth="yes"/>
      <point x="524" y="833"/>
      <point x="508" y="852"/>
      <point x="484" y="852" type="curve" smooth="yes"/>
      <point x="467" y="852" type="line" smooth="yes"/>
      <point x="444" y="852"/>
      <point x="427" y="833"/>
      <point x="427" y="810" type="curve" smooth="yes"/>
      <point x="427" y="794" type="line" smooth="yes"/>
      <point x="427" y="771"/>
      <point x="444" y="752"/>
      <point x="467" y="752" type="curve" smooth="yes"/>
    </contour>
  </outline>
</glyph>
<glyph name="multiply" format="1">
  <advance width="388"/>
  <unicode hex="00D7"/>
  <note>
	multiply
  </note>
  <outline>
    <contour>
      <point x="125" y="145"/>
      <point x="135" y="145"/>
      <point x="144" y="155" type="curve"/>
      <point x="235" y="245" type="line"/>
      <point x="326" y="155" type="line"/>
      <point x="335" y="145"/>
      <point x="345" y="145"/>
      <point x="355" y="155" type="curve" smooth="yes"/>
      <point x="377" y="176" type="line" smooth="yes"/>
      <point x="387" y="186"/>
      <point x="387" y="196"/>
      <point x="377" y="206" type="curve" smooth="yes"/>
      <point x="287" y="297" type="line"/>
      <point x="377" y="387" type="line" smooth="yes"/>
      <point x="387" y="397"/>
      <point x="387" y="407"/>
      <point x="377" y="417" type="curve" smooth="yes"/>
      <point x="355" y="439" type="line" smooth="yes"/>
      <point x="345" y="449"/>
      <point x="335" y="449"/>
      <point x="326" y="439" type="curve"/>
      <point x="235" y="348" type="line"/>
      <point x="144" y="439" type="line"/>
      <point x="135" y="449"/>
      <point x="125" y="449"/>
      <point x="115" y="439" type="curve" smooth="yes"/>
      <point x="93" y="417" type="line" smooth="yes"/>
      <point x="83" y="407"/>
      <point x="83" y="397"/>
      <point x="93" y="387" type="curve" smooth="yes"/>
      <point x="183" y="297" type="line"/>
      <point x="93" y="206" type="line" smooth="yes"/>
      <point x="83" y="196"/>
      <point x="83" y="186"/>
      <point x="93" y="176" type="curve" smooth="yes"/>
      <point x="115" y="155" type="line" smooth="yes"/>
    </contour>
  </outline>
</glyph>
<glyph name="Oslash" format="1">
  <advance width="765"/>
  <unicode hex="00D8"/>
  <note>
	Oslash
  </note>
  <outline>
    <contour>
      <point x="596" y="-15"/>
      <point x="718" y="116"/>
      <point x="718" y="340" type="curve" smooth="yes"/>
      <point x="718" y="564"/>
      <point x="596" y="695"/>
      <point x="383" y="695" type="curve" smooth="yes"/>
      <point x="169" y="695"/>
      <point x="47" y="564"/>
      <point x="47" y="340" type="curve" smooth="yes"/>
      <point x="47" y="116"/>
      <point x="169" y="-15"/>
      <point x="383" y="-15" type="curve" smooth="yes"/>
    </contour>
    <contour>
      <point x="236" y="-86" type="line" smooth="yes"/>
      <point x="247" y="-86"/>
      <point x="253" y="-81"/>
      <point x="256" y="-73" type="curve" smooth="yes"/>
      <point x="586" y="732" type="line" smooth="yes"/>
      <point x="590" y="742"/>
      <point x="589" y="751"/>
      <point x="577" y="751" type="curve" smooth="yes"/>
      <point x="513" y="751" type="line" smooth="yes"/>
      <point x="503" y="751"/>
      <point x="497" y="746"/>
      <point x="494" y="738" type="curve" smooth="yes"/>
      <point x="164" y="-67" type="line" smooth="yes"/>
      <point x="160" y="-77"/>
      <point x="160" y="-86"/>
      <point x="173" y="-86" type="curve" smooth="yes"/>
    </contour>
    <contour>
      <point x="227" y="55"/>
      <point x="136" y="153"/>
      <point x="136" y="340" type="curve" smooth="yes"/>
      <point x="136" y="527"/>
      <point x="227" y="625"/>
      <point x="383" y="625" type="curve" smooth="yes"/>
      <point x="538" y="625"/>
      <point x="629" y="527"/>
      <point x="629" y="340" type="curve" smooth="yes"/>
      <point x="629" y="153"/>
      <point x="538" y="55"/>
      <point x="383" y="55" type="curve" smooth="yes"/>
    </contour>
  </outline>
</glyph>
<glyph name="Thorn" format="1">
  <advance width="633"/>
  <unicode hex="00DE"/>
  <note>
	Thorn
  </note>
  <outline>
    <contour>
      <point x="128" y="0" type="line" smooth="yes"/>
      <point x="150" y="0"/>
      <point x="158" y="10"/>
      <point x="158" y="30" type="curve" smooth="yes"/>
      <point x="158" y="120" type="line"/>
      <point x="358" y="120" type="line" smooth="yes"/>
      <point x="513" y="120"/>
      <point x="586" y="204"/>
      <point x="586" y="340" type="curve" smooth="yes"/>
      <point x="586" y="476"/>
      <point x="513" y="561"/>
      <point x="359" y="561" type="curve" smooth="yes"/>
      <point x="158" y="561" type="line"/>
      <point x="158" y="650" type="line" smooth="yes"/>
      <point x="158" y="670"/>
      <point x="150" y="680"/>
      <point x="128" y="680" type="curve" smooth="yes"/>
      <point x="97" y="680" type="line" smooth="yes"/>
      <point x="76" y="680"/>
      <point x="67" y="670"/>
      <point x="67" y="650" type="curve" smooth="yes"/>
      <point x="67" y="30" type="line" smooth="yes"/>
      <point x="67" y="10"/>
      <point x="76" y="0"/>
      <point x="97" y="0" type="curve" smooth="yes"/>
    </contour>
    <contour>
      <point x="158" y="487" type="line"/>
      <point x="358" y="487" type="line" smooth="yes"/>
      <point x="452" y="487"/>
      <point x="496" y="439"/>
      <point x="496" y="340" type="curve" smooth="yes"/>
      <point x="496" y="241"/>
      <point x="452" y="193"/>
      <point x="358" y="193" type="curve" smooth="yes"/>
      <point x="158" y="193" type="line"/>
    </contour>
  </outline>
</glyph>
<glyph name="germandbls" format="1">
  <advance width="646"/>
  <unicode hex="00DF"/>
  <note>
	germandbls
  </note>
  <outline>
    <contour>
      <point x="517" y="-15"/>
      <point x="599" y="63"/>
      <point x="599" y="186" type="curve" smooth="yes"/>
      <point x="599" y="272"/>
      <point x="572" y="332"/>
      <point x="481" y="362" type="curve"/>
      <point x="544" y="388"/>
      <point x="578" y="453"/>
      <point x="578" y="520" type="curve" smooth="yes"/>
      <point x="578" y="631"/>
      <point x="518" y="720"/>
      <point x="330" y="720" type="curve" smooth="yes"/>
      <point x="145" y="720"/>
      <point x="62" y="608"/>
      <point x="62" y="476" type="curve" smooth="yes"/>
      <point x="62" y="30" type="line" smooth="yes"/>
      <point x="62" y="8"/>
      <point x="71" y="0"/>
      <point x="96" y="0" type="curve" smooth="yes"/>
      <point x="122" y="0" type="line" smooth="yes"/>
      <point x="144" y="0"/>
      <point x="153" y="10"/>
      <point x="153" y="30" type="curve" smooth="yes"/>
      <point x="153" y="480" type="line" smooth="yes"/>
      <point x="153" y="579"/>
      <point x="209" y="650"/>
      <point x="326" y="650" type="curve" smooth="yes"/>
      <point x="450" y="650"/>
      <point x="489" y="601"/>
      <point x="489" y="514" type="curve" smooth="yes"/>
      <point x="489" y="430"/>
      <point x="448" y="395"/>
      <point x="368" y="395" type="curve" smooth="yes"/>
      <point x="285" y="395" type="line" smooth="yes"/>
      <point x="266" y="395"/>
      <point x="258" y="390"/>
      <point x="258" y="372" type="curve" smooth="yes"/>
      <point x="258" y="350" type="line" smooth="yes"/>
      <point x="258" y="332"/>
      <point x="268" y="325"/>
      <point x="286" y="325" type="curve" smooth="yes"/>
      <point x="384" y="325" type="line" smooth="yes"/>
      <point x="476" y="325"/>
      <point x="510" y="273"/>
      <point x="510" y="186" type="curve" smooth="yes"/>
      <point x="510" y="98"/>
      <point x="470" y="56"/>
      <point x="377" y="56" type="curve" smooth="yes"/>
      <point x="325" y="56"/>
      <point x="281" y="70"/>
      <point x="248" y="93" type="curve"/>
      <point x="240" y="98"/>
      <point x="236" y="97"/>
      <point x="231" y="89" type="curve" smooth="yes"/>
      <point x="209" y="53" type="line"/>
      <point x="204" y="44"/>
      <point x="203" y="37"/>
      <point x="214" y="30" type="curve" smooth="yes"/>
      <point x="258" y="2"/>
      <point x="314" y="-15"/>
      <point x="381" y="-15" type="curve" smooth="yes"/>
    </contour>
  </outline>
</glyph>
<glyph name="agrave" format="1">
  <advance width="614"/>
  <unicode hex="00E0"/>
  <note>
	agrave
  </note>
  <outline>
    <contour>
      <point x="354" y="-15"/>
      <point x="418" y="7"/>
      <point x="462" y="65" type="curve"/>
      <point x="467" y="21" type="line" smooth="yes"/>
      <point x="469" y="7"/>
      <point x="474" y="0"/>
      <point x="490" y="0" type="curve" smooth="yes"/>
      <point x="521" y="0" type="line" smooth="yes"/>
      <point x="540" y="0"/>
      <point x="547" y="8"/>
      <point x="547" y="25" type="curve" smooth="yes"/>
      <point x="547" y="437" type="line"/>
      <point x="503" y="468"/>
      <point x="431" y="495"/>
      <point x="342" y="495" type="curve" smooth="yes"/>
      <point x="159" y="495"/>
      <point x="47" y="381"/>
      <point x="47" y="210" type="curve" smooth="yes"/>
      <point x="47" y="64"/>
      <point x="134" y="-15"/>
      <point x="265" y="-15" type="curve" smooth="yes"/>
    </contour>
    <contour>
      <point x="190" y="54"/>
      <point x="136" y="104"/>
      <point x="136" y="215" type="curve" smooth="yes"/>
      <point x="136" y="349"/>
      <point x="219" y="427"/>
      <point x="340" y="427" type="curve" smooth="yes"/>
      <point x="385" y="427"/>
      <point x="427" y="418"/>
      <point x="459" y="402" type="curve"/>
      <point x="459" y="187" type="line" smooth="yes"/>
      <point x="459" y="103"/>
      <point x="377" y="54"/>
      <point x="299" y="54" type="curve" smooth="yes"/>
    </contour>
    <contour>
      <point x="386" y="555" type="line" smooth="yes"/>
      <point x="401" y="555"/>
      <point x="405" y="564"/>
      <point x="400" y="577" type="curve" smooth="yes"/>
      <point x="350" y="713" type="line" smooth="yes"/>
      <point x="345" y="728"/>
      <point x="341" y="732"/>
      <point x="321" y="732" type="curve" smooth="yes"/>
      <point x="271" y="732" type="line" smooth="yes"/>
      <point x="254" y="732"/>
      <point x="247" y="724"/>
      <point x="255" y="708" type="curve" smooth="yes"/>
      <point x="322" y="572" type="line" smooth="yes"/>
      <point x="328" y="559"/>
      <point x="334" y="555"/>
      <point x="352" y="555" type="curve" smooth="yes"/>
    </contour>
  </outline>
</glyph>
<glyph name="atilde" format="1">
  <advance width="617"/>
  <unicode hex="00E3"/>
  <note>
	atilde
  </note>
  <outline>
    <contour>
      <point x="354" y="-15"/>
      <point x="418" y="7"/>
      <point x="462" y="65" type="curve"/>
      <point x="467" y="21" type="line" smooth="yes"/>
      <point x="469" y="7"/>
      <point x="474" y="0"/>
      <point x="490" y="0" type="curve" smooth="yes"/>
      <point x="521" y="0" type="line" smooth="yes"/>
      <point x="540" y="0"/>
      <point x="547" y="8"/>
      <point x="547" y="25" type="curve" smooth="yes"/>
      <point x="547" y="437" type="line"/>
      <point x="503" y="468"/>
      <point x="431" y="495"/>
      <point x="342" y="495" type="curve" smooth="yes"/>
      <point x="159" y="495"/>
      <point x="47" y="381"/>
      <point x="47" y="210" type="curve" smooth="yes"/>
      <point x="47" y="64"/>
      <point x="134" y="-15"/>
      <point x="265" y="-15" type="curve" smooth="yes"/>
    </contour>
    <contour>
      <point x="190" y="54"/>
      <point x="136" y="104"/>
      <point x="136" y="215" type="curve" smooth="yes"/>
      <point x="136" y="349"/>
      <point x="219" y="427"/>
      <point x="340" y="427" type="curve" smooth="yes"/>
      <point x="385" y="427"/>
      <point x="427" y="418"/>
      <point x="459" y="402" type="curve"/>
      <point x="459" y="187" type="line" smooth="yes"/>
      <point x="459" y="103"/>
      <point x="377" y="54"/>
      <point x="299" y="54" type="curve" smooth="yes"/>
    </contour>
    <contour>
      <point x="485" y="539"/>
      <point x="515" y="560"/>
      <point x="544" y="603" type="curve" smooth="yes"/>
      <point x="556" y="621"/>
      <point x="555" y="632"/>
      <point x="535" y="648" type="curve" smooth="yes"/>
      <point x="516" y="664"/>
      <point x="503" y="664"/>
      <point x="492" y="649" type="curve" smooth="yes"/>
      <point x="470" y="620"/>
      <point x="455" y="611"/>
      <point x="427" y="611" type="curve" smooth="yes"/>
      <point x="365" y="611"/>
      <point x="322" y="664"/>
      <point x="240" y="664" type="curve" smooth="yes"/>
      <point x="193" y="664"/>
      <point x="164" y="637"/>
      <point x="141" y="610" type="curve" smooth="yes"/>
      <point x="128" y="595"/>
      <point x="128" y="582"/>
      <point x="142" y="568" type="curve" smooth="yes"/>
      <point x="160" y="550"/>
      <point x="174" y="548"/>
      <point x="185" y="561" type="curve"/>
      <point x="205" y="583"/>
      <point x="215" y="593"/>
      <point x="244" y="593" type="curve" smooth="yes"/>
      <point x="299" y="593"/>
      <point x="358" y="539"/>
      <point x="427" y="539" type="curve" smooth="yes"/>
    </contour>
  </outline>
</glyph>
<glyph name="adieresis" format="1">
  <advance width="614"/>
  <unicode hex="00E4"/>
  <note>
	adieresis
  </note>
  <outline>
    <contour>
      <point x="354" y="-15"/>
      <point x="418" y="7"/>
      <point x="462" y="65" type="curve"/>
      <point x="467" y="21" type="line" smooth="yes"/>
      <point x="469" y="7"/>
      <point x="474" y="0"/>
      <point x="490" y="0" type="curve" smooth="yes"/>
      <point x="521" y="0" type="line" smooth="yes"/>
      <point x="540" y="0"/>
      <point x="547" y="8"/>
      <point x="547" y="25" type="curve" smooth="yes"/>
      <point x="547" y="437" type="line"/>
      <point x="503" y="468"/>
      <point x="431" y="495"/>
      <point x="342" y="495" type="curve" smooth="yes"/>
      <point x="159" y="495"/>
      <point x="47" y="381"/>
      <point x="47" y="210" type="curve" smooth="yes"/>
      <point x="47" y="64"/>
      <point x="134" y="-15"/>
      <point x="265" y="-15" type="curve" smooth="yes"/>
    </contour>
    <contour>
      <point x="190" y="54"/>
      <point x="136" y="104"/>
      <point x="136" y="215" type="curve" smooth="yes"/>
      <point x="136" y="349"/>
      <point x="219" y="427"/>
      <point x="340" y="427" type="curve" smooth="yes"/>
      <point x="385" y="427"/>
      <point x="427" y="418"/>
      <point x="459" y="402" type="curve"/>
      <point x="459" y="187" type="line" smooth="yes"/>
      <point x="459" y="103"/>
      <point x="377" y="54"/>
      <point x="299" y="54" type="curve" smooth="yes"/>
    </contour>
    <contour>
      <point x="255" y="562" type="line" smooth="yes"/>
      <point x="279" y="562"/>
      <point x="295" y="581"/>
      <point x="295" y="604" type="curve" smooth="yes"/>
      <point x="295" y="620" type="line" smooth="yes"/>
      <point x="295" y="643"/>
      <point x="278" y="662"/>
      <point x="255" y="662" type="curve" smooth="yes"/>
      <point x="238" y="662" type="line" smooth="yes"/>
      <point x="214" y="662"/>
      <point x="198" y="643"/>
      <point x="198" y="620" type="curve" smooth="yes"/>
      <point x="198" y="604" type="line" smooth="yes"/>
      <point x="198" y="581"/>
      <point x="214" y="562"/>
      <point x="238" y="562" type="curve" smooth="yes"/>
    </contour>
    <contour>
      <point x="443" y="562" type="line" smooth="yes"/>
      <point x="468" y="562"/>
      <point x="483" y="581"/>
      <point x="483" y="604" type="curve" smooth="yes"/>
      <point x="483" y="620" type="line" smooth="yes"/>
      <point x="483" y="643"/>
      <point x="467" y="662"/>
      <point x="443" y="662" type="curve" smooth="yes"/>
      <point x="426" y="662" type="line" smooth="yes"/>
      <point x="403" y="662"/>
      <point x="386" y="643"/>
      <point x="386" y="620" type="curve" smooth="yes"/>
      <point x="386" y="604" type="line" smooth="yes"/>
      <point x="386" y="581"/>
      <point x="403" y="562"/>
      <point x="426" y="562" type="curve" smooth="yes"/>
    </contour>
  </outline>
</glyph>
<glyph name="igrave" format="1">
  <advance width="224"/>
  <unicode hex="00EC"/>
  <note>
	igrave
  </note>
  <outline>
    <contour>
      <point x="126" y="0" type="line" smooth="yes"/>
      <point x="148" y="0"/>
      <point x="156" y="10"/>
      <point x="156" y="30" type="curve" smooth="yes"/>
      <point x="156" y="450" type="line" smooth="yes"/>
      <point x="156" y="470"/>
      <point x="148" y="480"/>
      <point x="126" y="480" type="curve" smooth="yes"/>
      <point x="95" y="480" type="line" smooth="yes"/>
      <point x="74" y="480"/>
      <point x="65" y="470"/>
      <point x="65" y="450" type="curve" smooth="yes"/>
      <point x="65" y="30" type="line" smooth="yes"/>
      <point x="65" y="10"/>
      <point x="74" y="0"/>
      <point x="95" y="0" type="curve" smooth="yes"/>
    </contour>
    <contour>
      <point x="137" y="555" type="line" smooth="yes"/>
      <point x="152" y="555"/>
      <point x="156" y="564"/>
      <point x="151" y="577" type="curve" smooth="yes"/>
      <point x="101" y="713" type="line" smooth="yes"/>
      <point x="96" y="728"/>
      <point x="92" y="732"/>
      <point x="72" y="732" type="curve" smooth="yes"/>
      <point x="22" y="732" type="line" smooth="yes"/>
      <point x="5" y="732"/>
      <point x="-2" y="724"/>
      <point x="6" y="708" type="curve" smooth="yes"/>
      <point x="73" y="572" type="line" smooth="yes"/>
      <point x="79" y="559"/>
      <point x="85" y="555"/>
      <point x="103" y="555" type="curve" smooth="yes"/>
    </contour>
  </outline>
</glyph>
<glyph name="ntilde" format="1">
  <advance width="596"/>
  <unicode hex="00F1"/>
  <note>
	ntilde
  </note>
  <outline>
    <contour>
      <point x="128" y="0" type="line" smooth="yes"/>
      <point x="150" y="0"/>
      <point x="158" y="10"/>
      <point x="158" y="30" type="curve" smooth="yes"/>
      <point x="158" y="303" type="line" smooth="yes"/>
      <point x="158" y="377"/>
      <point x="241" y="426"/>
      <point x="323" y="426" type="curve" smooth="yes"/>
      <point x="402" y="426"/>
      <point x="439" y="399"/>
      <point x="439" y="319" type="curve" smooth="yes"/>
      <point x="439" y="30" type="line" smooth="yes"/>
      <point x="439" y="10"/>
      <point x="448" y="0"/>
      <point x="470" y="0" type="curve" smooth="yes"/>
      <point x="500" y="0" type="line" smooth="yes"/>
      <point x="522" y="0"/>
      <point x="530" y="10"/>
      <point x="530" y="30" type="curve" smooth="yes"/>
      <point x="530" y="324" type="line" smooth="yes"/>
      <point x="530" y="444"/>
      <point x="454" y="495"/>
      <point x="351" y="495" type="curve" smooth="yes"/>
      <point x="255" y="495"/>
      <point x="189" y="464"/>
      <point x="145" y="413" type="curve"/>
      <point x="145" y="459" type="line" smooth="yes"/>
      <point x="145" y="473"/>
      <point x="139" y="480"/>
      <point x="123" y="480" type="curve" smooth="yes"/>
      <point x="90" y="480" type="line" smooth="yes"/>
      <point x="71" y="480"/>
      <point x="67" y="472"/>
      <point x="67" y="455" type="curve" smooth="yes"/>
      <point x="67" y="30" type="line" smooth="yes"/>
      <point x="67" y="10"/>
      <point x="76" y="0"/>
      <point x="98" y="0" type="curve" smooth="yes"/>
    </contour>
    <contour>
      <point x="436" y="549"/>
      <point x="466" y="570"/>
      <point x="495" y="613" type="curve" smooth="yes"/>
      <point x="507" y="631"/>
      <point x="506" y="642"/>
      <point x="486" y="658" type="curve" smooth="yes"/>
      <point x="467" y="674"/>
      <point x="454" y="674"/>
      <point x="443" y="659" type="curve" smooth="yes"/>
      <point x="421" y="630"/>
      <point x="406" y="621"/>
      <point x="378" y="621" type="curve" smooth="yes"/>
      <point x="316" y="621"/>
      <point x="273" y="674"/>
      <point x="191" y="674" type="curve" smooth="yes"/>
      <point x="144" y="674"/>
      <point x="115" y="647"/>
      <point x="92" y="620" type="curve" smooth="yes"/>
      <point x="79" y="605"/>
      <point x="79" y="592"/>
      <point x="93" y="578" type="curve" smooth="yes"/>
      <point x="111" y="560"/>
      <point x="125" y="558"/>
      <point x="136" y="571" type="curve"/>
      <point x="156" y="593"/>
      <point x="166" y="603"/>
      <point x="195" y="603" type="curve" smooth="yes"/>
      <point x="250" y="603"/>
      <point x="309" y="549"/>
      <point x="378" y="549" type="curve" smooth="yes"/>
    </contour>
  </outline>
</glyph>
<glyph name="ograve" format="1">
  <advance width="620"/>
  <unicode hex="00F2"/>
  <note>
	ograve
  </note>
  <outline>
    <contour>
      <point x="481" y="-15"/>
      <point x="573" y="86"/>
      <point x="573" y="240" type="curve" smooth="yes"/>
      <point x="573" y="394"/>
      <point x="481" y="495"/>
      <point x="310" y="495" type="curve" smooth="yes"/>
      <point x="138" y="495"/>
      <point x="47" y="394"/>
      <point x="47" y="240" type="curve" smooth="yes"/>
      <point x="47" y="86"/>
      <point x="138" y="-15"/>
      <point x="310" y="-15" type="curve" smooth="yes"/>
    </contour>
    <contour>
      <point x="197" y="55"/>
      <point x="136" y="121"/>
      <point x="136" y="240" type="curve" smooth="yes"/>
      <point x="136" y="359"/>
      <point x="197" y="424"/>
      <point x="310" y="424" type="curve" smooth="yes"/>
      <point x="423" y="424"/>
      <point x="483" y="359"/>
      <point x="483" y="240" type="curve" smooth="yes"/>
      <point x="483" y="121"/>
      <point x="423" y="55"/>
      <point x="310" y="55" type="curve" smooth="yes"/>
    </contour>
    <contour>
      <point x="341" y="535" type="line" smooth="yes"/>
      <point x="356" y="535"/>
      <point x="360" y="544"/>
      <point x="355" y="557" type="curve" smooth="yes"/>
      <point x="305" y="693" type="line" smooth="yes"/>
      <point x="300" y="708"/>
      <point x="296" y="712"/>
      <point x="276" y="712" type="curve" smooth="yes"/>
      <point x="226" y="712" type="line" smooth="yes"/>
      <point x="209" y="712"/>
      <point x="202" y="704"/>
      <point x="210" y="688" type="curve" smooth="yes"/>
      <point x="277" y="552" type="line" smooth="yes"/>
      <point x="283" y="539"/>
      <point x="289" y="535"/>
      <point x="307" y="535" type="curve" smooth="yes"/>
    </contour>
  </outline>
</glyph>
<glyph name="divide" format="1">
  <advance width="473"/>
  <unicode hex="00F7"/>
  <note>
	divide
  </note>
  <outline>
    <contour>
      <point x="405" y="260" type="line" smooth="yes"/>
      <point x="419" y="260"/>
      <point x="426" y="267"/>
      <point x="426" y="281" type="curve" smooth="yes"/>
      <point x="426" y="312" type="line" smooth="yes"/>
      <point x="426" y="326"/>
      <point x="419" y="333"/>
      <point x="405" y="333" type="curve" smooth="yes"/>
      <point x="68" y="333" type="line" smooth="yes"/>
      <point x="54" y="333"/>
      <point x="47" y="326"/>
      <point x="47" y="312" type="curve" smooth="yes"/>
      <point x="47" y="281" type="line" smooth="yes"/>
      <point x="47" y="267"/>
      <point x="54" y="260"/>
      <point x="68" y="260" type="curve" smooth="yes"/>
    </contour>
    <contour>
      <point x="243" y="118" type="line" smooth="yes"/>
      <point x="266" y="118"/>
      <point x="280" y="136"/>
      <point x="280" y="157" type="curve" smooth="yes"/>
      <point x="280" y="173" type="line" smooth="yes"/>
      <point x="280" y="194"/>
      <point x="265" y="211"/>
      <point x="243" y="211" type="curve" smooth="yes"/>
      <point x="227" y="211" type="line" smooth="yes"/>
      <point x="206" y="211"/>
      <point x="190" y="194"/>
      <point x="190" y="173" type="curve" smooth="yes"/>
      <point x="190" y="157" type="line" smooth="yes"/>
      <point x="190" y="136"/>
      <point x="206" y="118"/>
      <point x="227" y="118" type="curve" smooth="yes"/>
    </contour>
    <contour>
      <point x="243" y="382" type="line" smooth="yes"/>
      <point x="266" y="382"/>
      <point x="280" y="400"/>
      <point x="280" y="421" type="curve" smooth="yes"/>
      <point x="280" y="437" type="line" smooth="yes"/>
      <point x="280" y="458"/>
      <point x="265" y="475"/>
      <point x="243" y="475" type="curve" smooth="yes"/>
      <point x="227" y="475" type="line" smooth="yes"/>
      <point x="206" y="475"/>
      <point x="190" y="458"/>
      <point x="190" y="437" type="curve" smooth="yes"/>
      <point x="190" y="421" type="line" smooth="yes"/>
      <point x="190" y="400"/>
      <point x="206" y="382"/>
      <point x="227" y="382" type="curve" smooth="yes"/>
    </contour>
  </outline>
</glyph>
<glyph name="ugrave" format="1">
  <advance width="584"/>
  <unicode hex="00F9"/>
  <note>
	ugrave
  </note>
  <outline>
    <contour>
      <point x="339" y="-15"/>
      <point x="396" y="18"/>
      <point x="439" y="69" type="curve"/>
      <point x="442" y="21" type="line" smooth="yes"/>
      <point x="443" y="7"/>
      <point x="447" y="0"/>
      <point x="462" y="0" type="curve" smooth="yes"/>
      <point x="495" y="0" type="line" smooth="yes"/>
      <point x="514" y="0"/>
      <point x="517" y="8"/>
      <point x="517" y="25" type="curve" smooth="yes"/>
      <point x="517" y="450" type="line" smooth="yes"/>
      <point x="517" y="470"/>
      <point x="509" y="480"/>
      <point x="487" y="480" type="curve" smooth="yes"/>
      <point x="457" y="480" type="line" smooth="yes"/>
      <point x="435" y="480"/>
      <point x="426" y="470"/>
      <point x="426" y="450" type="curve" smooth="yes"/>
      <point x="426" y="179" type="line" smooth="yes"/>
      <point x="426" y="104"/>
      <point x="357" y="54"/>
      <point x="274" y="54" type="curve" smooth="yes"/>
      <point x="197" y="54"/>
      <point x="153" y="85"/>
      <point x="153" y="165" type="curve" smooth="yes"/>
      <point x="153" y="450" type="line" smooth="yes"/>
      <point x="153" y="470"/>
      <point x="145" y="480"/>
      <point x="123" y="480" type="curve" smooth="yes"/>
      <point x="92" y="480" type="line" smooth="yes"/>
      <point x="71" y="480"/>
      <point x="62" y="470"/>
      <point x="62" y="450" type="curve" smooth="yes"/>
      <point x="62" y="164" type="line" smooth="yes"/>
      <point x="62" y="43"/>
      <point x="140" y="-15"/>
      <point x="245" y="-15" type="curve" smooth="yes"/>
    </contour>
    <contour>
      <point x="326" y="535" type="line" smooth="yes"/>
      <point x="341" y="535"/>
      <point x="345" y="544"/>
      <point x="340" y="557" type="curve" smooth="yes"/>
      <point x="290" y="693" type="line" smooth="yes"/>
      <point x="285" y="708"/>
      <point x="281" y="712"/>
      <point x="261" y="712" type="curve" smooth="yes"/>
      <point x="211" y="712" type="line" smooth="yes"/>
      <point x="194" y="712"/>
      <point x="187" y="704"/>
      <point x="195" y="688" type="curve" smooth="yes"/>
      <point x="262" y="552" type="line" smooth="yes"/>
      <point x="268" y="539"/>
      <point x="274" y="535"/>
      <point x="292" y="535" type="curve" smooth="yes"/>
    </contour>
  </outline>
</glyph>
<glyph name="ucircumflex" format="1">
  <advance width="584"/>
  <unicode hex="00FB"/>
  <note>
	ucircumflex
  </note>
  <outline>
    <contour>
      <point x="339" y="-15"/>
      <point x="396" y="18"/>
      <point x="439" y="69" type="curve"/>
      <point x="442" y="21" type="line" smooth="yes"/>
      <point x="443" y="7"/>
      <point x="447" y="0"/>
      <point x="462" y="0" type="curve" smooth="yes"/>
      <point x="495" y="0" type="line" smooth="yes"/>
      <point x="514" y="0"/>
      <point x="517" y="8"/>
      <point x="517" y="25" type="curve" smooth="yes"/>
      <point x="517" y="450" type="line" smooth="yes"/>
      <point x="517" y="470"/>
      <point x="509" y="480"/>
      <point x="487" y="480" type="curve" smooth="yes"/>
      <point x="457" y="480" type="line" smooth="yes"/>
      <point x="435" y="480"/>
      <point x="426" y="470"/>
      <point x="426" y="450" type="curve" smooth="yes"/>
      <point x="426" y="179" type="line" smooth="yes"/>
      <point x="426" y="104"/>
      <point x="357" y="54"/>
      <point x="274" y="54" type="curve" smooth="yes"/>
      <point x="197" y="54"/>
      <point x="153" y="85"/>
      <point x="153" y="165" type="curve" smooth="yes"/>
      <point x="153" y="450" type="line" smooth="yes"/>
      <point x="153" y="470"/>
      <point x="145" y="480"/>
      <point x="123" y="480" type="curve" smooth="yes"/>
      <point x="92" y="480" type="line" smooth="yes"/>
      <point x="71" y="480"/>
      <point x="62" y="470"/>
      <point x="62" y="450" type="curve" smooth="yes"/>
      <point x="62" y="164" type="line" smooth="yes"/>
      <point x="62" y="43"/>
      <point x="140" y="-15"/>
      <point x="245" y="-15" type="curve" smooth="yes"/>
    </contour>
    <contour>
      <point x="180" y="530" type="line" smooth="yes"/>
      <point x="200" y="530"/>
      <point x="205" y="537"/>
      <point x="213" y="549" type="curve" smooth="yes"/>
      <point x="289" y="660" type="line"/>
      <point x="365" y="549" type="line" smooth="yes"/>
      <point x="373" y="537"/>
      <point x="378" y="530"/>
      <point x="398" y="530" type="curve" smooth="yes"/>
      <point x="431" y="530" type="line" smooth="yes"/>
      <point x="446" y="530"/>
      <point x="455" y="541"/>
      <point x="445" y="555" type="curve" smooth="yes"/>
      <point x="337" y="704" type="line" smooth="yes"/>
      <point x="327" y="717"/>
      <point x="324" y="723"/>
      <point x="306" y="723" type="curve" smooth="yes"/>
      <point x="272" y="723" type="line" smooth="yes"/>
      <point x="254" y="723"/>
      <point x="251" y="717"/>
      <point x="241" y="704" type="curve" smooth="yes"/>
      <point x="133" y="555" type="line" smooth="yes"/>
      <point x="123" y="541"/>
      <point x="132" y="530"/>
      <point x="147" y="530" type="curve" smooth="yes"/>
    </contour>
  </outline>
</glyph>
<glyph name="thorn" format="1">
  <advance width="615"/>
  <unicode hex="00FE"/>
  <note>
	thorn
  </note>
  <outline>
    <contour>
      <point x="127" y="-202" type="line" smooth="yes"/>
      <point x="149" y="-202"/>
      <point x="157" y="-192"/>
      <point x="157" y="-172" type="curve" smooth="yes"/>
      <point x="157" y="48" type="line"/>
      <point x="197" y="3"/>
      <point x="257" y="-15"/>
      <point x="333" y="-15" type="curve" smooth="yes"/>
      <point x="477" y="-15"/>
      <point x="568" y="80"/>
      <point x="568" y="240" type="curve" smooth="yes"/>
      <point x="568" y="411"/>
      <point x="471" y="495"/>
      <point x="288" y="495" type="curve" smooth="yes"/>
      <point x="243" y="495"/>
      <point x="194" y="486"/>
      <point x="157" y="473" type="curve"/>
      <point x="157" y="665" type="line" smooth="yes"/>
      <point x="157" y="685"/>
      <point x="149" y="695"/>
      <point x="127" y="695" type="curve" smooth="yes"/>
      <point x="97" y="695" type="line" smooth="yes"/>
      <point x="76" y="695"/>
      <point x="67" y="685"/>
      <point x="67" y="665" type="curve" smooth="yes"/>
      <point x="67" y="-172" type="line" smooth="yes"/>
      <point x="67" y="-192"/>
      <point x="76" y="-202"/>
      <point x="97" y="-202" type="curve" smooth="yes"/>
    </contour>
    <contour>
      <point x="232" y="54"/>
      <point x="157" y="102"/>
      <point x="157" y="186" type="curve" smooth="yes"/>
      <point x="157" y="402" type="line"/>
      <point x="185" y="417"/>
      <point x="232" y="426"/>
      <point x="281" y="426" type="curve" smooth="yes"/>
      <point x="410" y="426"/>
      <point x="478" y="378"/>
      <point x="478" y="245" type="curve" smooth="yes"/>
      <point x="478" y="123"/>
      <point x="425" y="54"/>
      <point x="310" y="54" type="curve" smooth="yes"/>
    </contour>
  </outline>
</glyph>
<glyph name="ydieresis" format="1">
  <advance width="589"/>
  <unicode hex="00FF"/>
  <note>
	ydieresis
  </note>
  <outline>
    <contour>
      <point x="268" y="-156"/>
      <point x="299" y="-99"/>
      <point x="370" y="53" type="curve" smooth="yes"/>
      <point x="559" y="457" type="line" smooth="yes"/>
      <point x="565" y="469"/>
      <point x="563" y="480"/>
      <point x="548" y="480" type="curve" smooth="yes"/>
      <point x="495" y="480" type="line" smooth="yes"/>
      <point x="478" y="480"/>
      <point x="474" y="477"/>
      <point x="468" y="464" type="curve" smooth="yes"/>
      <point x="310" y="108" type="line"/>
      <point x="151" y="464" type="line" smooth="yes"/>
      <point x="145" y="477"/>
      <point x="141" y="480"/>
      <point x="124" y="480" type="curve" smooth="yes"/>
      <point x="71" y="480" type="line" smooth="yes"/>
      <point x="56" y="480"/>
      <point x="54" y="469"/>
      <point x="60" y="457" type="curve" smooth="yes"/>
      <point x="266" y="18" type="line"/>
      <point x="238" y="-53"/>
      <point x="217" y="-87"/>
      <point x="170" y="-87" type="curve" smooth="yes"/>
      <point x="135" y="-87"/>
      <point x="114" y="-77"/>
      <point x="93" y="-60" type="curve"/>
      <point x="85" y="-54"/>
      <point x="79" y="-54"/>
      <point x="74" y="-63" type="curve" smooth="yes"/>
      <point x="52" y="-100" type="line" smooth="yes"/>
      <point x="48" y="-107"/>
      <point x="48" y="-112"/>
      <point x="56" y="-118" type="curve"/>
      <point x="82" y="-140"/>
      <point x="123" y="-156"/>
      <point x="171" y="-156" type="curve" smooth="yes"/>
    </contour>
    <contour>
      <point x="205" y="552" type="line" smooth="yes"/>
      <point x="229" y="552"/>
      <point x="245" y="571"/>
      <point x="245" y="594" type="curve" smooth="yes"/>
      <point x="245" y="610" type="line" smooth="yes"/>
      <point x="245" y="633"/>
      <point x="228" y="652"/>
      <point x="205" y="652" type="curve" smooth="yes"/>
      <point x="188" y="652" type="line" smooth="yes"/>
      <point x="164" y="652"/>
      <point x="148" y="633"/>
      <point x="148" y="610" type="curve" smooth="yes"/>
      <point x="148" y="594" type="line" smooth="yes"/>
      <point x="148" y="571"/>
      <point x="164" y="552"/>
      <point x="188" y="552" type="curve" smooth="yes"/>
    </contour>
    <contour>
      <point x="393" y="552" type="line" smooth="yes"/>
      <point x="418" y="552"/>
      <point x="433" y="571"/>
      <point x="433" y="594" type="curve" smooth="yes"/>
      <point x="433" y="610" type="line" smooth="yes"/>
      <point x="433" y="633"/>
      <point x="417" y="652"/>
      <point x="393" y="652" type="curve" smooth="yes"/>
      <point x="376" y="652" type="line" smooth="yes"/>
      <point x="353" y="652"/>
      <point x="336" y="633"/>
      <point x="336" y="610" type="curve" smooth="yes"/>
      <point x="336" y="594" type="line" smooth="yes"/>
      <point x="336" y="571"/>
      <point x="353" y="552"/>
      <point x="376" y="552" type="curve" smooth="yes"/>
    </contour>
  </outline>
</glyph>
<glyph name="amacron" format="1">
  <advance width="614"/>
  <unicode hex="0101"/>
  <note>
	amacron
  </note>
  <outline>
    <contour>
      <point x="354" y="-15"/>
      <point x="418" y="7"/>
      <point x="462" y="65" type="curve"/>
      <point x="467" y="21" type="line" smooth="yes"/>
      <point x="469" y="7"/>
      <point x="474" y="0"/>
      <point x="490" y="0" type="curve" smooth="yes"/>
      <point x="521" y="0" type="line" smooth="yes"/>
      <point x="540" y="0"/>
      <point x="547" y="8"/>
      <point x="547" y="25" type="curve" smooth="yes"/>
      <point x="547" y="437" type="line"/>
      <point x="503" y="468"/>
      <point x="431" y="495"/>
      <point x="342" y="495" type="curve" smooth="yes"/>
      <point x="159" y="495"/>
      <point x="47" y="381"/>
      <point x="47" y="210" type="curve" smooth="yes"/>
      <point x="47" y="64"/>
      <point x="134" y="-15"/>
      <point x="265" y="-15" type="curve" smooth="yes"/>
    </contour>
    <contour>
      <point x="190" y="54"/>
      <point x="136" y="104"/>
      <point x="136" y="215" type="curve" smooth="yes"/>
      <point x="136" y="349"/>
      <point x="219" y="427"/>
      <point x="340" y="427" type="curve" smooth="yes"/>
      <point x="385" y="427"/>
      <point x="427" y="418"/>
      <point x="459" y="402" type="curve"/>
      <point x="459" y="187" type="line" smooth="yes"/>
      <point x="459" y="103"/>
      <point x="377" y="54"/>
      <point x="299" y="54" type="curve" smooth="yes"/>
    </contour>
    <contour>
      <point x="479" y="575" type="line" smooth="yes"/>
      <point x="500" y="575"/>
      <point x="508" y="582"/>
      <point x="508" y="603" type="curve" smooth="yes"/>
      <point x="508" y="619" type="line" smooth="yes"/>
      <point x="508" y="640"/>
      <point x="500" y="648"/>
      <point x="479" y="648" type="curve" smooth="yes"/>
      <point x="203" y="648" type="line" smooth="yes"/>
      <point x="182" y="648"/>
      <point x="174" y="640"/>
      <point x="174" y="619" type="curve" smooth="yes"/>
      <point x="174" y="603" type="line" smooth="yes"/>
      <point x="174" y="582"/>
      <point x="182" y="575"/>
      <point x="203" y="575" type="curve" smooth="yes"/>
    </contour>
  </outline>
</glyph>
<glyph name="Abreve" format="1">
  <advance width="727"/>
  <unicode hex="0102"/>
  <note>
	Abreve
  </note>
  <outline>
    <contour>
      <point x="116" y="0" type="line" smooth="yes"/>
      <point x="133" y="0"/>
      <point x="136" y="3"/>
      <point x="141" y="15" type="curve" smooth="yes"/>
      <point x="209" y="178" type="line"/>
      <point x="518" y="178" type="line"/>
      <point x="586" y="15" type="line" smooth="yes"/>
      <point x="591" y="3"/>
      <point x="594" y="0"/>
      <point x="611" y="0" type="curve" smooth="yes"/>
      <point x="664" y="0" type="line" smooth="yes"/>
      <point x="678" y="0"/>
      <point x="682" y="10"/>
      <point x="677" y="23" type="curve" smooth="yes"/>
      <point x="408" y="659" type="line" smooth="yes"/>
      <point x="401" y="675"/>
      <point x="397" y="680"/>
      <point x="382" y="680" type="curve" smooth="yes"/>
      <point x="345" y="680" type="line" smooth="yes"/>
      <point x="330" y="680"/>
      <point x="326" y="675"/>
      <point x="319" y="659" type="curve" smooth="yes"/>
      <point x="50" y="23" type="line" smooth="yes"/>
      <point x="45" y="10"/>
      <point x="49" y="0"/>
      <point x="63" y="0" type="curve" smooth="yes"/>
    </contour>
    <contour>
      <point x="363" y="557" type="line"/>
      <point x="491" y="249" type="line"/>
      <point x="235" y="249" type="line"/>
    </contour>
    <contour>
      <point x="467" y="762"/>
      <point x="516" y="828"/>
      <point x="516" y="920" type="curve" smooth="yes"/>
      <point x="516" y="931"/>
      <point x="510" y="938"/>
      <point x="500" y="938" type="curve" smooth="yes"/>
      <point x="455" y="938" type="line" smooth="yes"/>
      <point x="441" y="938"/>
      <point x="438" y="931"/>
      <point x="438" y="919" type="curve" smooth="yes"/>
      <point x="438" y="869"/>
      <point x="424" y="831"/>
      <point x="363" y="831" type="curve" smooth="yes"/>
      <point x="302" y="831"/>
      <point x="288" y="869"/>
      <point x="288" y="919" type="curve" smooth="yes"/>
      <point x="288" y="931"/>
      <point x="285" y="938"/>
      <point x="271" y="938" type="curve" smooth="yes"/>
      <point x="226" y="938" type="line" smooth="yes"/>
      <point x="216" y="938"/>
      <point x="210" y="931"/>
      <point x="210" y="920" type="curve" smooth="yes"/>
      <point x="210" y="828"/>
      <point x="258" y="762"/>
      <point x="363" y="762" type="curve" smooth="yes"/>
    </contour>
  </outline>
</glyph>
<glyph name="cdotaccent" format="1">
  <advance width="567"/>
  <unicode hex="010B"/>
  <note>
	cdotaccent
  </note>
  <outline>
    <contour>
      <point x="404" y="-15"/>
      <point x="461" y="2"/>
      <point x="511" y="35" type="curve" smooth="yes"/>
      <point x="521" y="42"/>
      <point x="522" y="47"/>
      <point x="516" y="56" type="curve"/>
      <point x="495" y="91" type="line" smooth="yes"/>
      <point x="489" y="101"/>
      <point x="486" y="102"/>
      <point x="476" y="95" type="curve" smooth="yes"/>
      <point x="440" y="70"/>
      <point x="398" y="54"/>
      <point x="331" y="54" type="curve" smooth="yes"/>
      <point x="203" y="54"/>
      <point x="136" y="112"/>
      <point x="136" y="238" type="curve" smooth="yes"/>
      <point x="136" y="354"/>
      <point x="203" y="427"/>
      <point x="322" y="427" type="curve" smooth="yes"/>
      <point x="386" y="427"/>
      <point x="429" y="414"/>
      <point x="469" y="386" type="curve" smooth="yes"/>
      <point x="479" y="379"/>
      <point x="482" y="380"/>
      <point x="488" y="390" type="curve" smooth="yes"/>
      <point x="508" y="424" type="line" smooth="yes"/>
      <point x="514" y="434"/>
      <point x="513" y="439"/>
      <point x="504" y="446" type="curve"/>
      <point x="453" y="482"/>
      <point x="401" y="495"/>
      <point x="320" y="495" type="curve" smooth="yes"/>
      <point x="153" y="495"/>
      <point x="47" y="390"/>
      <point x="47" y="238" type="curve" smooth="yes"/>
      <point x="47" y="73"/>
      <point x="153" y="-15"/>
      <point x="324" y="-15" type="curve" smooth="yes"/>
    </contour>
    <contour>
      <point x="327" y="568" type="line" smooth="yes"/>
      <point x="351" y="568"/>
      <point x="367" y="587"/>
      <point x="367" y="610" type="curve" smooth="yes"/>
      <point x="367" y="626" type="line" smooth="yes"/>
      <point x="367" y="649"/>
      <point x="350" y="668"/>
      <point x="327" y="668" type="curve" smooth="yes"/>
      <point x="309" y="668" type="line" smooth="yes"/>
      <point x="286" y="668"/>
      <point x="269" y="649"/>
      <point x="269" y="626" type="curve" smooth="yes"/>
      <point x="269" y="610" type="line" smooth="yes"/>
      <point x="269" y="587"/>
      <point x="286" y="568"/>
      <point x="309" y="568" type="curve" smooth="yes"/>
    </contour>
  </outline>
</glyph>
<glyph name="Ccaron" format="1">
  <advance width="676"/>
  <unicode hex="010C"/>
  <note>
	Ccaron
  </note>
  <outline>
    <contour>
      <point x="492" y="-15"/>
      <point x="566" y="1"/>
      <point x="620" y="37" type="curve" smooth="yes"/>
      <point x="630" y="44"/>
      <point x="632" y="47"/>
      <point x="627" y="56" type="curve" smooth="yes"/>
      <point x="605" y="94" type="line" smooth="yes"/>
      <point x="600" y="103"/>
      <point x="595" y="103"/>
      <point x="585" y="97" type="curve" smooth="yes"/>
      <point x="539" y="69"/>
      <point x="483" y="55"/>
      <point x="402" y="55" type="curve" smooth="yes"/>
      <point x="249" y="55"/>
      <point x="136" y="136"/>
      <point x="136" y="340" type="curve" smooth="yes"/>
      <point x="136" y="539"/>
      <point x="243" y="625"/>
      <point x="400" y="625" type="curve" smooth="yes"/>
      <point x="476" y="625"/>
      <point x="535" y="607"/>
      <point x="572" y="584" type="curve" smooth="yes"/>
      <point x="582" y="578"/>
      <point x="585" y="578"/>
      <point x="591" y="588" type="curve" smooth="yes"/>
      <point x="612" y="623" type="line" smooth="yes"/>
      <point x="618" y="633"/>
      <point x="616" y="638"/>
      <point x="607" y="644" type="curve" smooth="yes"/>
      <point x="555" y="678"/>
      <point x="476" y="695"/>
      <point x="393" y="695" type="curve" smooth="yes"/>
      <point x="171" y="695"/>
      <point x="47" y="565"/>
      <point x="47" y="340" type="curve" smooth="yes"/>
      <point x="47" y="115"/>
      <point x="173" y="-15"/>
      <point x="394" y="-15" type="curve" smooth="yes"/>
    </contour>
    <contour>
      <point x="418" y="756" type="line" smooth="yes"/>
      <point x="436" y="756"/>
      <point x="439" y="762"/>
      <point x="449" y="775" type="curve" smooth="yes"/>
      <point x="557" y="924" type="line" smooth="yes"/>
      <point x="567" y="937"/>
      <point x="564" y="949"/>
      <point x="549" y="949" type="curve" smooth="yes"/>
      <point x="509" y="949" type="line" smooth="yes"/>
      <point x="489" y="949"/>
      <point x="486" y="945"/>
      <point x="478" y="933" type="curve" smooth="yes"/>
      <point x="401" y="819" type="line"/>
      <point x="323" y="933" type="line" smooth="yes"/>
      <point x="315" y="945"/>
      <point x="312" y="949"/>
      <point x="292" y="949" type="curve" smooth="yes"/>
      <point x="252" y="949" type="line" smooth="yes"/>
      <point x="237" y="949"/>
      <point x="235" y="938"/>
      <point x="245" y="924" type="curve" smooth="yes"/>
      <point x="353" y="775" type="line" smooth="yes"/>
      <point x="363" y="762"/>
      <point x="366" y="756"/>
      <point x="384" y="756" type="curve" smooth="yes"/>
    </contour>
  </outline>
</glyph>
<glyph name="ccaron" format="1">
  <advance width="570"/>
  <unicode hex="010D"/>
  <note>
	ccaron
  </note>
  <outline>
    <contour>
      <point x="404" y="-15"/>
      <point x="461" y="2"/>
      <point x="511" y="35" type="curve" smooth="yes"/>
      <point x="521" y="42"/>
      <point x="522" y="47"/>
      <point x="516" y="56" type="curve"/>
      <point x="495" y="91" type="line" smooth="yes"/>
      <point x="489" y="101"/>
      <point x="486" y="102"/>
      <point x="476" y="95" type="curve" smooth="yes"/>
      <point x="440" y="70"/>
      <point x="398" y="54"/>
      <point x="331" y="54" type="curve" smooth="yes"/>
      <point x="203" y="54"/>
      <point x="136" y="112"/>
      <point x="136" y="238" type="curve" smooth="yes"/>
      <point x="136" y="354"/>
      <point x="203" y="427"/>
      <point x="322" y="427" type="curve" smooth="yes"/>
      <point x="386" y="427"/>
      <point x="429" y="414"/>
      <point x="469" y="386" type="curve" smooth="yes"/>
      <point x="479" y="379"/>
      <point x="482" y="380"/>
      <point x="488" y="390" type="curve" smooth="yes"/>
      <point x="508" y="424" type="line" smooth="yes"/>
      <point x="514" y="434"/>
      <point x="513" y="439"/>
      <point x="504" y="446" type="curve"/>
      <point x="453" y="482"/>
      <point x="401" y="495"/>
      <point x="320" y="495" type="curve" smooth="yes"/>
      <point x="153" y="495"/>
      <point x="47" y="390"/>
      <point x="47" y="238" type="curve" smooth="yes"/>
      <point x="47" y="73"/>
      <point x="153" y="-15"/>
      <point x="324" y="-15" type="curve" smooth="yes"/>
    </contour>
    <contour>
      <point x="331" y="552" type="line" smooth="yes"/>
      <point x="349" y="552"/>
      <point x="352" y="558"/>
      <point x="362" y="571" type="curve" smooth="yes"/>
      <point x="470" y="720" type="line" smooth="yes"/>
      <point x="480" y="733"/>
      <point x="477" y="745"/>
      <point x="462" y="745" type="curve" smooth="yes"/>
      <point x="422" y="745" type="line" smooth="yes"/>
      <point x="402" y="745"/>
      <point x="399" y="741"/>
      <point x="391" y="729" type="curve" smooth="yes"/>
      <point x="314" y="615" type="line"/>
      <point x="236" y="729" type="line" smooth="yes"/>
      <point x="228" y="741"/>
      <point x="225" y="745"/>
      <point x="205" y="745" type="curve" smooth="yes"/>
      <point x="165" y="745" type="line" smooth="yes"/>
      <point x="150" y="745"/>
      <point x="148" y="734"/>
      <point x="158" y="720" type="curve" smooth="yes"/>
      <point x="266" y="571" type="line" smooth="yes"/>
      <point x="276" y="558"/>
      <point x="279" y="552"/>
      <point x="297" y="552" type="curve" smooth="yes"/>
    </contour>
  </outline>
</glyph>
<glyph name="Ebreve" format="1">
  <advance width="579"/>
  <unicode hex="0114"/>
  <note>
	Ebreve
  </note>
  <outline>
    <contour>
      <point x="513" y="0" type="line" smooth="yes"/>
      <point x="534" y="0"/>
      <point x="542" y="7"/>
      <point x="542" y="27" type="curve" smooth="yes"/>
      <point x="542" y="44" type="line" smooth="yes"/>
      <point x="542" y="65"/>
      <point x="534" y="73"/>
      <point x="513" y="73" type="curve" smooth="yes"/>
      <point x="158" y="73" type="line"/>
      <point x="158" y="304" type="line"/>
      <point x="425" y="304" type="line" smooth="yes"/>
      <point x="446" y="304"/>
      <point x="455" y="313"/>
      <point x="455" y="333" type="curve" smooth="yes"/>
      <point x="455" y="349" type="line" smooth="yes"/>
      <point x="455" y="370"/>
      <point x="446" y="377"/>
      <point x="425" y="377" type="curve" smooth="yes"/>
      <point x="158" y="377" type="line"/>
      <point x="158" y="607" type="line"/>
      <point x="513" y="607" type="line" smooth="yes"/>
      <point x="534" y="607"/>
      <point x="542" y="615"/>
      <point x="542" y="636" type="curve" smooth="yes"/>
      <point x="542" y="653" type="line" smooth="yes"/>
      <point x="542" y="673"/>
      <point x="534" y="680"/>
      <point x="513" y="680" type="curve" smooth="yes"/>
      <point x="97" y="680" type="line" smooth="yes"/>
      <point x="76" y="680"/>
      <point x="67" y="670"/>
      <point x="67" y="650" type="curve" smooth="yes"/>
      <point x="67" y="30" type="line" smooth="yes"/>
      <point x="67" y="10"/>
      <point x="76" y="0"/>
      <point x="97" y="0" type="curve" smooth="yes"/>
    </contour>
    <contour>
      <point x="411" y="762"/>
      <point x="460" y="828"/>
      <point x="460" y="920" type="curve" smooth="yes"/>
      <point x="460" y="931"/>
      <point x="454" y="938"/>
      <point x="444" y="938" type="curve" smooth="yes"/>
      <point x="399" y="938" type="line" smooth="yes"/>
      <point x="385" y="938"/>
      <point x="382" y="931"/>
      <point x="382" y="919" type="curve" smooth="yes"/>
      <point x="382" y="869"/>
      <point x="368" y="831"/>
      <point x="307" y="831" type="curve" smooth="yes"/>
      <point x="246" y="831"/>
      <point x="232" y="869"/>
      <point x="232" y="919" type="curve" smooth="yes"/>
      <point x="232" y="931"/>
      <point x="229" y="938"/>
      <point x="215" y="938" type="curve" smooth="yes"/>
      <point x="170" y="938" type="line" smooth="yes"/>
      <point x="160" y="938"/>
      <point x="154" y="931"/>
      <point x="154" y="920" type="curve" smooth="yes"/>
      <point x="154" y="828"/>
      <point x="202" y="762"/>
      <point x="307" y="762" type="curve" smooth="yes"/>
    </contour>
  </outline>
</glyph>
<glyph name="Ecaron" format="1">
  <advance width="579"/>
  <unicode hex="011A"/>
  <note>
	Ecaron
  </note>
  <outline>
    <contour>
      <point x="513" y="0" type="line" smooth="yes"/>
      <point x="534" y="0"/>
      <point x="542" y="7"/>
      <point x="542" y="27" type="curve" smooth="yes"/>
      <point x="542" y="44" type="line" smooth="yes"/>
      <point x="542" y="65"/>
      <point x="534" y="73"/>
      <point x="513" y="73" type="curve" smooth="yes"/>
      <point x="158" y="73" type="line"/>
      <point x="158" y="304" type="line"/>
      <point x="425" y="304" type="line" smooth="yes"/>
      <point x="446" y="304"/>
      <point x="455" y="313"/>
      <point x="455" y="333" type="curve" smooth="yes"/>
      <point x="455" y="349" type="line" smooth="yes"/>
      <point x="455" y="370"/>
      <point x="446" y="377"/>
      <point x="425" y="377" type="curve" smooth="yes"/>
      <point x="158" y="377" type="line"/>
      <point x="158" y="607" type="line"/>
      <point x="513" y="607" type="line" smooth="yes"/>
      <point x="534" y="607"/>
      <point x="542" y="615"/>
      <point x="542" y="636" type="curve" smooth="yes"/>
      <point x="542" y="653" type="line" smooth="yes"/>
      <point x="542" y="673"/>
      <point x="534" y="680"/>
      <point x="513" y="680" type="curve" smooth="yes"/>
      <point x="97" y="680" type="line" smooth="yes"/>
      <point x="76" y="680"/>
      <point x="67" y="670"/>
      <point x="67" y="650" type="curve" smooth="yes"/>
      <point x="67" y="30" type="line" smooth="yes"/>
      <point x="67" y="10"/>
      <point x="76" y="0"/>
      <point x="97" y="0" type="curve" smooth="yes"/>
    </contour>
    <contour>
      <point x="327" y="756" type="line" smooth="yes"/>
      <point x="345" y="756"/>
      <point x="348" y="762"/>
      <point x="358" y="775" type="curve" smooth="yes"/>
      <point x="466" y="924" type="line" smooth="yes"/>
      <point x="476" y="937"/>
      <point x="473" y="949"/>
      <point x="458" y="949" type="curve" smooth="yes"/>
      <point x="418" y="949" type="line" smooth="yes"/>
      <point x="398" y="949"/>
      <point x="395" y="945"/>
      <point x="387" y="933" type="curve" smooth="yes"/>
      <point x="310" y="819" type="line"/>
      <point x="232" y="933" type="line" smooth="yes"/>
      <point x="224" y="945"/>
      <point x="221" y="949"/>
      <point x="201" y="949" type="curve" smooth="yes"/>
      <point x="161" y="949" type="line" smooth="yes"/>
      <point x="146" y="949"/>
      <point x="144" y="938"/>
      <point x="154" y="924" type="curve" smooth="yes"/>
      <point x="262" y="775" type="line" smooth="yes"/>
      <point x="272" y="762"/>
      <point x="275" y="756"/>
      <point x="293" y="756" type="curve" smooth="yes"/>
    </contour>
  </outline>
</glyph>
<glyph name="Gcircumflex" format="1">
  <advance width="698"/>
  <unicode hex="011C"/>
  <note>
	Gcircumflex
  </note>
  <outline>
    <contour>
      <point x="489" y="-15"/>
      <point x="573" y="3"/>
      <point x="639" y="40" type="curve" smooth="yes"/>
      <point x="650" y="46"/>
      <point x="651" y="53"/>
      <point x="651" y="69" type="curve" smooth="yes"/>
      <point x="651" y="343" type="line" smooth="yes"/>
      <point x="651" y="364"/>
      <point x="643" y="376"/>
      <point x="619" y="376" type="curve" smooth="yes"/>
      <point x="409" y="376" type="line" smooth="yes"/>
      <point x="388" y="376"/>
      <point x="380" y="369"/>
      <point x="380" y="349" type="curve" smooth="yes"/>
      <point x="380" y="332" type="line" smooth="yes"/>
      <point x="380" y="312"/>
      <point x="388" y="303"/>
      <point x="409" y="303" type="curve" smooth="yes"/>
      <point x="564" y="303" type="line"/>
      <point x="564" y="86" type="line"/>
      <point x="525" y="67"/>
      <point x="460" y="56"/>
      <point x="398" y="56" type="curve" smooth="yes"/>
      <point x="246" y="56"/>
      <point x="136" y="140"/>
      <point x="136" y="340" type="curve" smooth="yes"/>
      <point x="136" y="540"/>
      <point x="245" y="625"/>
      <point x="402" y="625" type="curve" smooth="yes"/>
      <point x="478" y="625"/>
      <point x="537" y="607"/>
      <point x="574" y="584" type="curve" smooth="yes"/>
      <point x="584" y="578"/>
      <point x="588" y="578"/>
      <point x="593" y="588" type="curve"/>
      <point x="614" y="623" type="line" smooth="yes"/>
      <point x="620" y="633"/>
      <point x="618" y="638"/>
      <point x="609" y="644" type="curve" smooth="yes"/>
      <point x="557" y="678"/>
      <point x="478" y="695"/>
      <point x="394" y="695" type="curve" smooth="yes"/>
      <point x="173" y="695"/>
      <point x="47" y="565"/>
      <point x="47" y="340" type="curve" smooth="yes"/>
      <point x="47" y="115"/>
      <point x="173" y="-15"/>
      <point x="394" y="-15" type="curve" smooth="yes"/>
    </contour>
    <contour>
      <point x="281" y="730" type="line" smooth="yes"/>
      <point x="301" y="730"/>
      <point x="306" y="737"/>
      <point x="314" y="749" type="curve" smooth="yes"/>
      <point x="390" y="860" type="line"/>
      <point x="466" y="749" type="line" smooth="yes"/>
      <point x="474" y="737"/>
      <point x="479" y="730"/>
      <point x="499" y="730" type="curve" smooth="yes"/>
      <point x="532" y="730" type="line" smooth="yes"/>
      <point x="547" y="730"/>
      <point x="556" y="741"/>
      <point x="546" y="755" type="curve" smooth="yes"/>
      <point x="438" y="904" type="line" smooth="yes"/>
      <point x="428" y="917"/>
      <point x="425" y="923"/>
      <point x="407" y="923" type="curve" smooth="yes"/>
      <point x="373" y="923" type="line" smooth="yes"/>
      <point x="355" y="923"/>
      <point x="352" y="917"/>
      <point x="342" y="904" type="curve" smooth="yes"/>
      <point x="234" y="755" type="line" smooth="yes"/>
      <point x="224" y="741"/>
      <point x="233" y="730"/>
      <point x="248" y="730" type="curve" smooth="yes"/>
    </contour>
  </outline>
</glyph>
<glyph name="Gdotaccent" format="1">
  <advance width="698"/>
  <unicode hex="0120"/>
  <note>
	Gdotaccent
  </note>
  <outline>
    <contour>
      <point x="489" y="-15"/>
      <point x="573" y="3"/>
      <point x="639" y="40" type="curve" smooth="yes"/>
      <point x="650" y="46"/>
      <point x="651" y="53"/>
      <point x="651" y="69" type="curve" smooth="yes"/>
      <point x="651" y="343" type="line" smooth="yes"/>
      <point x="651" y="364"/>
      <point x="643" y="376"/>
      <point x="619" y="376" type="curve" smooth="yes"/>
      <point x="409" y="376" type="line" smooth="yes"/>
      <point x="388" y="376"/>
      <point x="380" y="369"/>
      <point x="380" y="349" type="curve" smooth="yes"/>
      <point x="380" y="332" type="line" smooth="yes"/>
      <point x="380" y="312"/>
      <point x="388" y="303"/>
      <point x="409" y="303" type="curve" smooth="yes"/>
      <point x="564" y="303" type="line"/>
      <point x="564" y="86" type="line"/>
      <point x="525" y="67"/>
      <point x="460" y="56"/>
      <point x="398" y="56" type="curve" smooth="yes"/>
      <point x="246" y="56"/>
      <point x="136" y="140"/>
      <point x="136" y="340" type="curve" smooth="yes"/>
      <point x="136" y="540"/>
      <point x="245" y="625"/>
      <point x="402" y="625" type="curve" smooth="yes"/>
      <point x="478" y="625"/>
      <point x="537" y="607"/>
      <point x="574" y="584" type="curve" smooth="yes"/>
      <point x="584" y="578"/>
      <point x="588" y="578"/>
      <point x="593" y="588" type="curve"/>
      <point x="614" y="623" type="line" smooth="yes"/>
      <point x="620" y="633"/>
      <point x="618" y="638"/>
      <point x="609" y="644" type="curve" smooth="yes"/>
      <point x="557" y="678"/>
      <point x="478" y="695"/>
      <point x="394" y="695" type="curve" smooth="yes"/>
      <point x="173" y="695"/>
      <point x="47" y="565"/>
      <point x="47" y="340" type="curve" smooth="yes"/>
      <point x="47" y="115"/>
      <point x="173" y="-15"/>
      <point x="394" y="-15" type="curve" smooth="yes"/>
    </contour>
    <contour>
      <point x="398" y="751" type="line" smooth="yes"/>
      <point x="422" y="751"/>
      <point x="438" y="770"/>
      <point x="438" y="793" type="curve" smooth="yes"/>
      <point x="438" y="809" type="line" smooth="yes"/>
      <point x="438" y="832"/>
      <point x="421" y="851"/>
      <point x="398" y="851" type="curve" smooth="yes"/>
      <point x="380" y="851" type="line" smooth="yes"/>
      <point x="357" y="851"/>
      <point x="340" y="832"/>
      <point x="340" y="809" type="curve" smooth="yes"/>
      <point x="340" y="793" type="line" smooth="yes"/>
      <point x="340" y="770"/>
      <point x="357" y="751"/>
      <point x="380" y="751" type="curve" smooth="yes"/>
    </contour>
  </outline>
</glyph>
<glyph name="Gcommaaccent" format="1">
  <advance width="698"/>
  <unicode hex="0122"/>
  <note>
	Gcommaaccent
  </note>
  <outline>
    <contour>
      <point x="489" y="-15"/>
      <point x="573" y="3"/>
      <point x="639" y="40" type="curve" smooth="yes"/>
      <point x="650" y="46"/>
      <point x="651" y="53"/>
      <point x="651" y="69" type="curve" smooth="yes"/>
      <point x="651" y="343" type="line" smooth="yes"/>
      <point x="651" y="364"/>
      <point x="643" y="376"/>
      <point x="619" y="376" type="curve" smooth="yes"/>
      <point x="409" y="376" type="line" smooth="yes"/>
      <point x="388" y="376"/>
      <point x="380" y="369"/>
      <point x="380" y="349" type="curve" smooth="yes"/>
      <point x="380" y="332" type="line" smooth="yes"/>
      <point x="380" y="312"/>
      <point x="388" y="303"/>
      <point x="409" y="303" type="curve" smooth="yes"/>
      <point x="564" y="303" type="line"/>
      <point x="564" y="86" type="line"/>
      <point x="525" y="67"/>
      <point x="460" y="56"/>
      <point x="398" y="56" type="curve" smooth="yes"/>
      <point x="246" y="56"/>
      <point x="136" y="140"/>
      <point x="136" y="340" type="curve" smooth="yes"/>
      <point x="136" y="540"/>
      <point x="245" y="625"/>
      <point x="402" y="625" type="curve" smooth="yes"/>
      <point x="478" y="625"/>
      <point x="537" y="607"/>
      <point x="574" y="584" type="curve" smooth="yes"/>
      <point x="584" y="578"/>
      <point x="588" y="578"/>
      <point x="593" y="588" type="curve"/>
      <point x="614" y="623" type="line" smooth="yes"/>
      <point x="620" y="633"/>
      <point x="618" y="638"/>
      <point x="609" y="644" type="curve" smooth="yes"/>
      <point x="557" y="678"/>
      <point x="478" y="695"/>
      <point x="394" y="695" type="curve" smooth="yes"/>
      <point x="173" y="695"/>
      <point x="47" y="565"/>
      <point x="47" y="340" type="curve" smooth="yes"/>
      <point x="47" y="115"/>
      <point x="173" y="-15"/>
      <point x="394" y="-15" type="curve" smooth="yes"/>
    </contour>
    <contour>
      <point x="360" y="-224" type="line" smooth="yes"/>
      <point x="374" y="-224"/>
      <point x="381" y="-220"/>
      <point x="385" y="-210" type="curve" smooth="yes"/>
      <point x="449" y="-60" type="line" smooth="yes"/>
      <point x="456" y="-44"/>
      <point x="453" y="-36"/>
      <point x="434" y="-36" type="curve" smooth="yes"/>
      <point x="396" y="-36" type="line" smooth="yes"/>
      <point x="378" y="-36"/>
      <point x="372" y="-40"/>
      <point x="367" y="-56" type="curve" smooth="yes"/>
      <point x="320" y="-204" type="line" smooth="yes"/>
      <point x="316" y="-216"/>
      <point x="318" y="-224"/>
      <point x="332" y="-224" type="curve" smooth="yes"/>
    </contour>
  </outline>
</glyph>
<glyph name="Hcircumflex" format="1">
  <advance width="694"/>
  <unicode hex="0124"/>
  <note>
	Hcircumflex
  </note>
  <outline>
    <contour>
      <point x="128" y="0" type="line" smooth="yes"/>
      <point x="150" y="0"/>
      <point x="158" y="10"/>
      <point x="158" y="30" type="curve" smooth="yes"/>
      <point x="158" y="307" type="line"/>
      <point x="536" y="307" type="line"/>
      <point x="536" y="30" type="line" smooth="yes"/>
      <point x="536" y="10"/>
      <point x="545" y="0"/>
      <point x="567" y="0" type="curve" smooth="yes"/>
      <point x="597" y="0" type="line" smooth="yes"/>
      <point x="619" y="0"/>
      <point x="627" y="10"/>
      <point x="627" y="30" type="curve" smooth="yes"/>
      <point x="627" y="650" type="line" smooth="yes"/>
      <point x="627" y="670"/>
      <point x="619" y="680"/>
      <point x="597" y="680" type="curve" smooth="yes"/>
      <point x="567" y="680" type="line" smooth="yes"/>
      <point x="545" y="680"/>
      <point x="536" y="670"/>
      <point x="536" y="650" type="curve" smooth="yes"/>
      <point x="536" y="380" type="line"/>
      <point x="158" y="380" type="line"/>
      <point x="158" y="650" type="line" smooth="yes"/>
      <point x="158" y="670"/>
      <point x="150" y="680"/>
      <point x="128" y="680" type="curve" smooth="yes"/>
      <point x="97" y="680" type="line" smooth="yes"/>
      <point x="76" y="680"/>
      <point x="67" y="670"/>
      <point x="67" y="650" type="curve" smooth="yes"/>
      <point x="67" y="30" type="line" smooth="yes"/>
      <point x="67" y="10"/>
      <point x="76" y="0"/>
      <point x="97" y="0" type="curve" smooth="yes"/>
    </contour>
    <contour>
      <point x="238" y="744" type="line" smooth="yes"/>
      <point x="258" y="744"/>
      <point x="263" y="751"/>
      <point x="271" y="763" type="curve" smooth="yes"/>
      <point x="347" y="874" type="line"/>
      <point x="423" y="763" type="line" smooth="yes"/>
      <point x="431" y="751"/>
      <point x="436" y="744"/>
      <point x="456" y="744" type="curve" smooth="yes"/>
      <point x="489" y="744" type="line" smooth="yes"/>
      <point x="504" y="744"/>
      <point x="513" y="755"/>
      <point x="503" y="769" type="curve" smooth="yes"/>
      <point x="395" y="918" type="line" smooth="yes"/>
      <point x="385" y="931"/>
      <point x="382" y="937"/>
      <point x="364" y="937" type="curve" smooth="yes"/>
      <point x="330" y="937" type="line" smooth="yes"/>
      <point x="312" y="937"/>
      <point x="309" y="931"/>
      <point x="299" y="918" type="curve" smooth="yes"/>
      <point x="191" y="769" type="line" smooth="yes"/>
      <point x="181" y="755"/>
      <point x="190" y="744"/>
      <point x="205" y="744" type="curve" smooth="yes"/>
    </contour>
  </outline>
</glyph>
<glyph name="hcircumflex" format="1">
  <advance width="592"/>
  <unicode hex="0125"/>
  <note>
	hcircumflex
  </note>
  <outline>
    <contour>
      <point x="128" y="0" type="line" smooth="yes"/>
      <point x="150" y="0"/>
      <point x="158" y="10"/>
      <point x="158" y="30" type="curve" smooth="yes"/>
      <point x="158" y="303" type="line" smooth="yes"/>
      <point x="158" y="377"/>
      <point x="246" y="426"/>
      <point x="323" y="426" type="curve" smooth="yes"/>
      <point x="397" y="426"/>
      <point x="439" y="399"/>
      <point x="439" y="319" type="curve" smooth="yes"/>
      <point x="439" y="30" type="line" smooth="yes"/>
      <point x="439" y="10"/>
      <point x="448" y="0"/>
      <point x="470" y="0" type="curve" smooth="yes"/>
      <point x="500" y="0" type="line" smooth="yes"/>
      <point x="522" y="0"/>
      <point x="530" y="10"/>
      <point x="530" y="30" type="curve" smooth="yes"/>
      <point x="530" y="324" type="line" smooth="yes"/>
      <point x="530" y="444"/>
      <point x="454" y="495"/>
      <point x="351" y="495" type="curve" smooth="yes"/>
      <point x="261" y="495"/>
      <point x="203" y="471"/>
      <point x="158" y="421" type="curve"/>
      <point x="158" y="655" type="line" smooth="yes"/>
      <point x="158" y="672"/>
      <point x="154" y="680"/>
      <point x="135" y="680" type="curve" smooth="yes"/>
      <point x="90" y="680" type="line" smooth="yes"/>
      <point x="71" y="680"/>
      <point x="67" y="672"/>
      <point x="67" y="655" type="curve" smooth="yes"/>
      <point x="67" y="30" type="line" smooth="yes"/>
      <point x="67" y="10"/>
      <point x="76" y="0"/>
      <point x="98" y="0" type="curve" smooth="yes"/>
    </contour>
    <contour>
      <point x="128" y="738" type="line" smooth="yes"/>
      <point x="148" y="738"/>
      <point x="153" y="745"/>
      <point x="161" y="757" type="curve" smooth="yes"/>
      <point x="237" y="868" type="line"/>
      <point x="313" y="757" type="line" smooth="yes"/>
      <point x="321" y="745"/>
      <point x="326" y="738"/>
      <point x="346" y="738" type="curve" smooth="yes"/>
      <point x="379" y="738" type="line" smooth="yes"/>
      <point x="394" y="738"/>
      <point x="403" y="749"/>
      <point x="393" y="763" type="curve" smooth="yes"/>
      <point x="285" y="912" type="line" smooth="yes"/>
      <point x="275" y="925"/>
      <point x="272" y="931"/>
      <point x="254" y="931" type="curve" smooth="yes"/>
      <point x="220" y="931" type="line" smooth="yes"/>
      <point x="202" y="931"/>
      <point x="199" y="925"/>
      <point x="189" y="912" type="curve" smooth="yes"/>
      <point x="81" y="763" type="line" smooth="yes"/>
      <point x="71" y="749"/>
      <point x="80" y="738"/>
      <point x="95" y="738" type="curve" smooth="yes"/>
    </contour>
  </outline>
</glyph>
<glyph name="hbar" format="1">
  <advance width="623"/>
  <unicode hex="0127"/>
  <note>
	hbar
  </note>
  <outline>
    <contour>
      <point x="158" y="0" type="line" smooth="yes"/>
      <point x="180" y="0"/>
      <point x="188" y="10"/>
      <point x="188" y="30" type="curve" smooth="yes"/>
      <point x="188" y="303" type="line" smooth="yes"/>
      <point x="188" y="377"/>
      <point x="276" y="426"/>
      <point x="353" y="426" type="curve" smooth="yes"/>
      <point x="427" y="426"/>
      <point x="469" y="399"/>
      <point x="469" y="319" type="curve" smooth="yes"/>
      <point x="469" y="30" type="line" smooth="yes"/>
      <point x="469" y="10"/>
      <point x="478" y="0"/>
      <point x="500" y="0" type="curve" smooth="yes"/>
      <point x="530" y="0" type="line" smooth="yes"/>
      <point x="552" y="0"/>
      <point x="561" y="10"/>
      <point x="561" y="30" type="curve" smooth="yes"/>
      <point x="561" y="324" type="line" smooth="yes"/>
      <point x="561" y="444"/>
      <point x="484" y="495"/>
      <point x="381" y="495" type="curve" smooth="yes"/>
      <point x="291" y="495"/>
      <point x="225" y="463"/>
      <point x="180" y="415" type="curve"/>
      <point x="180" y="655" type="line" smooth="yes"/>
      <point x="180" y="672"/>
      <point x="176" y="680"/>
      <point x="157" y="680" type="curve" smooth="yes"/>
      <point x="120" y="680" type="line" smooth="yes"/>
      <point x="101" y="680"/>
      <point x="97" y="672"/>
      <point x="97" y="655" type="curve" smooth="yes"/>
      <point x="97" y="30" type="line" smooth="yes"/>
      <point x="97" y="10"/>
      <point x="106" y="0"/>
      <point x="128" y="0" type="curve" smooth="yes"/>
    </contour>
    <contour>
      <point x="326" y="540" type="line" smooth="yes"/>
      <point x="347" y="540"/>
      <point x="356" y="545"/>
      <point x="356" y="566" type="curve" smooth="yes"/>
      <point x="356" y="581" type="line" smooth="yes"/>
      <point x="356" y="601"/>
      <point x="347" y="608"/>
      <point x="326" y="608" type="curve" smooth="yes"/>
      <point x="56" y="608" type="line" smooth="yes"/>
      <point x="35" y="608"/>
      <point x="27" y="601"/>
      <point x="27" y="581" type="curve" smooth="yes"/>
      <point x="27" y="566" type="line" smooth="yes"/>
      <point x="27" y="545"/>
      <point x="35" y="540"/>
      <point x="56" y="540" type="curve" smooth="yes"/>
    </contour>
  </outline>
</glyph>
<glyph name="Itilde" format="1">
  <advance width="223"/>
  <unicode hex="0128"/>
  <note>
	Itilde
  </note>
  <outline>
    <contour>
      <point x="126" y="0" type="line" smooth="yes"/>
      <point x="148" y="0"/>
      <point x="156" y="10"/>
      <point x="156" y="30" type="curve" smooth="yes"/>
      <point x="156" y="650" type="line" smooth="yes"/>
      <point x="156" y="670"/>
      <point x="148" y="680"/>
      <point x="126" y="680" type="curve" smooth="yes"/>
      <point x="95" y="680" type="line" smooth="yes"/>
      <point x="74" y="680"/>
      <point x="65" y="670"/>
      <point x="65" y="650" type="curve" smooth="yes"/>
      <point x="65" y="30" type="line" smooth="yes"/>
      <point x="65" y="10"/>
      <point x="74" y="0"/>
      <point x="95" y="0" type="curve" smooth="yes"/>
    </contour>
    <contour>
      <point x="270" y="745"/>
      <point x="300" y="766"/>
      <point x="329" y="809" type="curve" smooth="yes"/>
      <point x="341" y="827"/>
      <point x="340" y="838"/>
      <point x="320" y="854" type="curve" smooth="yes"/>
      <point x="301" y="870"/>
      <point x="288" y="870"/>
      <point x="277" y="855" type="curve" smooth="yes"/>
      <point x="255" y="826"/>
      <point x="240" y="817"/>
      <point x="212" y="817" type="curve" smooth="yes"/>
      <point x="150" y="817"/>
      <point x="107" y="870"/>
      <point x="25" y="870" type="curve" smooth="yes"/>
      <point x="-22" y="870"/>
      <point x="-51" y="843"/>
      <point x="-74" y="816" type="curve" smooth="yes"/>
      <point x="-87" y="801"/>
      <point x="-87" y="788"/>
      <point x="-73" y="774" type="curve" smooth="yes"/>
      <point x="-55" y="756"/>
      <point x="-41" y="754"/>
      <point x="-30" y="767" type="curve"/>
      <point x="-10" y="789"/>
      <point x="0" y="799"/>
      <point x="29" y="799" type="curve" smooth="yes"/>
      <point x="84" y="799"/>
      <point x="143" y="745"/>
      <point x="212" y="745" type="curve" smooth="yes"/>
    </contour>
  </outline>
</glyph>
<glyph name="imacron" format="1">
  <advance width="233"/>
  <unicode hex="012B"/>
  <note>
	imacron
  </note>
  <outline>
    <contour>
      <point x="132" y="0" type="line" smooth="yes"/>
      <point x="154" y="0"/>
      <point x="162" y="10"/>
      <point x="162" y="30" type="curve" smooth="yes"/>
      <point x="162" y="450" type="line" smooth="yes"/>
      <point x="162" y="470"/>
      <point x="154" y="480"/>
      <point x="132" y="480" type="curve" smooth="yes"/>
      <point x="101" y="480" type="line" smooth="yes"/>
      <point x="80" y="480"/>
      <point x="71" y="470"/>
      <point x="71" y="450" type="curve" smooth="yes"/>
      <point x="71" y="30" type="line" smooth="yes"/>
      <point x="71" y="10"/>
      <point x="80" y="0"/>
      <point x="101" y="0" type="curve" smooth="yes"/>
    </contour>
    <contour>
      <point x="254" y="579" type="line" smooth="yes"/>
      <point x="275" y="579"/>
      <point x="283" y="586"/>
      <point x="283" y="607" type="curve" smooth="yes"/>
      <point x="283" y="623" type="line" smooth="yes"/>
      <point x="283" y="644"/>
      <point x="275" y="652"/>
      <point x="254" y="652" type="curve" smooth="yes"/>
      <point x="-22" y="652" type="line" smooth="yes"/>
      <point x="-43" y="652"/>
      <point x="-51" y="644"/>
      <point x="-51" y="623" type="curve" smooth="yes"/>
      <point x="-51" y="607" type="line" smooth="yes"/>
      <point x="-51" y="586"/>
      <point x="-43" y="579"/>
      <point x="-22" y="579" type="curve" smooth="yes"/>
    </contour>
  </outline>
</glyph>
<glyph name="ibreve" format="1">
  <advance width="238"/>
  <unicode hex="012D"/>
  <note>
	ibreve
  </note>
  <outline>
    <contour>
      <point x="223" y="552"/>
      <point x="272" y="618"/>
      <point x="272" y="710" type="curve" smooth="yes"/>
      <point x="272" y="721"/>
      <point x="266" y="728"/>
      <point x="256" y="728" type="curve" smooth="yes"/>
      <point x="211" y="728" type="line" smooth="yes"/>
      <point x="197" y="728"/>
      <point x="194" y="721"/>
      <point x="194" y="709" type="curve" smooth="yes"/>
      <point x="194" y="659"/>
      <point x="180" y="621"/>
      <point x="119" y="621" type="curve" smooth="yes"/>
      <point x="58" y="621"/>
      <point x="44" y="659"/>
      <point x="44" y="709" type="curve" smooth="yes"/>
      <point x="44" y="721"/>
      <point x="41" y="728"/>
      <point x="27" y="728" type="curve" smooth="yes"/>
      <point x="-18" y="728" type="line" smooth="yes"/>
      <point x="-28" y="728"/>
      <point x="-34" y="721"/>
      <point x="-34" y="710" type="curve" smooth="yes"/>
      <point x="-34" y="618"/>
      <point x="14" y="552"/>
      <point x="119" y="552" type="curve" smooth="yes"/>
    </contour>
    <contour>
      <point x="134" y="0" type="line" smooth="yes"/>
      <point x="156" y="0"/>
      <point x="164" y="10"/>
      <point x="164" y="30" type="curve" smooth="yes"/>
      <point x="164" y="450" type="line" smooth="yes"/>
      <point x="164" y="470"/>
      <point x="156" y="480"/>
      <point x="134" y="480" type="curve" smooth="yes"/>
      <point x="104" y="480" type="line" smooth="yes"/>
      <point x="82" y="480"/>
      <point x="73" y="470"/>
      <point x="73" y="450" type="curve" smooth="yes"/>
      <point x="73" y="30" type="line" smooth="yes"/>
      <point x="73" y="10"/>
      <point x="82" y="0"/>
      <point x="104" y="0" type="curve" smooth="yes"/>
    </contour>
  </outline>
</glyph>
<glyph name="Iogonek" format="1">
  <advance width="216"/>
  <unicode hex="012E"/>
  <note>
	Iogonek
  </note>
  <outline>
    <contour>
      <point x="121" y="0" type="line" smooth="yes"/>
      <point x="143" y="0"/>
      <point x="151" y="10"/>
      <point x="151" y="30" type="curve" smooth="yes"/>
      <point x="151" y="650" type="line" smooth="yes"/>
      <point x="151" y="670"/>
      <point x="143" y="680"/>
      <point x="121" y="680" type="curve" smooth="yes"/>
      <point x="90" y="680" type="line" smooth="yes"/>
      <point x="69" y="680"/>
      <point x="60" y="670"/>
      <point x="60" y="650" type="curve" smooth="yes"/>
      <point x="60" y="30" type="line" smooth="yes"/>
      <point x="60" y="10"/>
      <point x="69" y="0"/>
      <point x="90" y="0" type="curve" smooth="yes"/>
    </contour>
    <contour>
      <point x="105" y="-193"/>
      <point x="126" y="-191"/>
      <point x="141" y="-183" type="curve" smooth="yes"/>
      <point x="153" y="-177"/>
      <point x="154" y="-173"/>
      <point x="151" y="-166" type="curve"/>
      <point x="138" y="-139" type="line" smooth="yes"/>
      <point x="134" y="-130"/>
      <point x="131" y="-131"/>
      <point x="124" y="-134" type="curve"/>
      <point x="118" y="-137"/>
      <point x="111" y="-138"/>
      <point x="102" y="-138" type="curve" smooth="yes"/>
      <point x="86" y="-138"/>
      <point x="78" y="-129"/>
      <point x="78" y="-111" type="curve" smooth="yes"/>
      <point x="78" y="-82"/>
      <point x="90" y="-57"/>
      <point x="136" y="-1" type="curve" smooth="yes"/>
      <point x="143" y="7"/>
      <point x="138" y="15"/>
      <point x="126" y="15" type="curve" smooth="yes"/>
      <point x="86" y="15" type="line" smooth="yes"/>
      <point x="73" y="15"/>
      <point x="69" y="11"/>
      <point x="61" y="2" type="curve" smooth="yes"/>
      <point x="17" y="-48"/>
      <point x="0" y="-85"/>
      <point x="0" y="-121" type="curve" smooth="yes"/>
      <point x="0" y="-160"/>
      <point x="26" y="-193"/>
      <point x="80" y="-193" type="curve" smooth="yes"/>
    </contour>
  </outline>
</glyph>
<glyph name="iogonek" format="1">
  <advance width="236"/>
  <unicode hex="012F"/>
  <note>
	iogonek
  </note>
  <outline>
    <contour>
      <point x="128" y="0" type="line" smooth="yes"/>
      <point x="150" y="0"/>
      <point x="159" y="10"/>
      <point x="159" y="30" type="curve" smooth="yes"/>
      <point x="159" y="450" type="line" smooth="yes"/>
      <point x="159" y="470"/>
      <point x="150" y="480"/>
      <point x="128" y="480" type="curve" smooth="yes"/>
      <point x="98" y="480" type="line" smooth="yes"/>
      <point x="76" y="480"/>
      <point x="68" y="470"/>
      <point x="68" y="450" type="curve" smooth="yes"/>
      <point x="68" y="30" type="line" smooth="yes"/>
      <point x="68" y="10"/>
      <point x="76" y="0"/>
      <point x="98" y="0" type="curve" smooth="yes"/>
    </contour>
    <contour>
      <point x="111" y="-193"/>
      <point x="132" y="-191"/>
      <point x="147" y="-183" type="curve" smooth="yes"/>
      <point x="159" y="-177"/>
      <point x="160" y="-173"/>
      <point x="157" y="-166" type="curve"/>
      <point x="144" y="-139" type="line" smooth="yes"/>
      <point x="140" y="-130"/>
      <point x="137" y="-131"/>
      <point x="130" y="-134" type="curve"/>
      <point x="124" y="-137"/>
      <point x="117" y="-138"/>
      <point x="108" y="-138" type="curve" smooth="yes"/>
      <point x="92" y="-138"/>
      <point x="84" y="-129"/>
      <point x="84" y="-111" type="curve" smooth="yes"/>
      <point x="84" y="-82"/>
      <point x="96" y="-57"/>
      <point x="142" y="-1" type="curve" smooth="yes"/>
      <point x="149" y="7"/>
      <point x="144" y="15"/>
      <point x="132" y="15" type="curve" smooth="yes"/>
      <point x="92" y="15" type="line" smooth="yes"/>
      <point x="79" y="15"/>
      <point x="75" y="11"/>
      <point x="67" y="2" type="curve" smooth="yes"/>
      <point x="23" y="-48"/>
      <point x="6" y="-85"/>
      <point x="6" y="-121" type="curve" smooth="yes"/>
      <point x="6" y="-160"/>
      <point x="32" y="-193"/>
      <point x="86" y="-193" type="curve" smooth="yes"/>
    </contour>
    <contour>
      <point x="127" y="580" type="line" smooth="yes"/>
      <point x="154" y="580"/>
      <point x="168" y="599"/>
      <point x="168" y="620" type="curve" smooth="yes"/>
      <point x="168" y="640" type="line" smooth="yes"/>
      <point x="168" y="661"/>
      <point x="153" y="680"/>
      <point x="127" y="680" type="curve" smooth="yes"/>
      <point x="99" y="680" type="line" smooth="yes"/>
      <point x="73" y="680"/>
      <point x="58" y="661"/>
      <point x="58" y="640" type="curve" smooth="yes"/>
      <point x="58" y="620" type="line" smooth="yes"/>
      <point x="58" y="599"/>
      <point x="73" y="580"/>
      <point x="99" y="580" type="curve" smooth="yes"/>
    </contour>
  </outline>
</glyph>
<glyph name="idotless" format="1">
  <advance width="225"/>
  <unicode hex="0131"/>
  <note>
	dotlessi
  </note>
  <outline>
    <contour>
      <point x="128" y="0" type="line" smooth="yes"/>
      <point x="150" y="0"/>
      <point x="158" y="10"/>
      <point x="158" y="30" type="curve" smooth="yes"/>
      <point x="158" y="450" type="line" smooth="yes"/>
      <point x="158" y="470"/>
      <point x="150" y="480"/>
      <point x="128" y="480" type="curve" smooth="yes"/>
      <point x="97" y="480" type="line" smooth="yes"/>
      <point x="76" y="480"/>
      <point x="67" y="470"/>
      <point x="67" y="450" type="curve" smooth="yes"/>
      <point x="67" y="30" type="line" smooth="yes"/>
      <point x="67" y="10"/>
      <point x="76" y="0"/>
      <point x="97" y="0" type="curve" smooth="yes"/>
    </contour>
  </outline>
</glyph>
<glyph name="IJ" format="1">
  <advance width="642"/>
  <unicode hex="0132"/>
  <note>
	IJ
  </note>
  <outline>
    <contour>
      <point x="514" y="-15"/>
      <point x="575" y="68"/>
      <point x="575" y="182" type="curve" smooth="yes"/>
      <point x="575" y="650" type="line" smooth="yes"/>
      <point x="575" y="670"/>
      <point x="567" y="680"/>
      <point x="545" y="680" type="curve" smooth="yes"/>
      <point x="515" y="680" type="line" smooth="yes"/>
      <point x="493" y="680"/>
      <point x="484" y="670"/>
      <point x="484" y="650" type="curve" smooth="yes"/>
      <point x="484" y="181" type="line" smooth="yes"/>
      <point x="484" y="97"/>
      <point x="451" y="55"/>
      <point x="372" y="55" type="curve" smooth="yes"/>
      <point x="318" y="55"/>
      <point x="267" y="70"/>
      <point x="235" y="90" type="curve" smooth="yes"/>
      <point x="225" y="96"/>
      <point x="221" y="96"/>
      <point x="215" y="86" type="curve" smooth="yes"/>
      <point x="193" y="50" type="line" smooth="yes"/>
      <point x="187" y="40"/>
      <point x="190" y="33"/>
      <point x="198" y="29" type="curve"/>
      <point x="247" y="1"/>
      <point x="304" y="-15"/>
      <point x="372" y="-15" type="curve" smooth="yes"/>
    </contour>
    <contour>
      <point x="128" y="0" type="line" smooth="yes"/>
      <point x="150" y="0"/>
      <point x="158" y="10"/>
      <point x="158" y="30" type="curve" smooth="yes"/>
      <point x="158" y="650" type="line" smooth="yes"/>
      <point x="158" y="670"/>
      <point x="150" y="680"/>
      <point x="128" y="680" type="curve" smooth="yes"/>
      <point x="97" y="680" type="line" smooth="yes"/>
      <point x="76" y="680"/>
      <point x="67" y="670"/>
      <point x="67" y="650" type="curve" smooth="yes"/>
      <point x="67" y="30" type="line" smooth="yes"/>
      <point x="67" y="10"/>
      <point x="76" y="0"/>
      <point x="97" y="0" type="curve" smooth="yes"/>
    </contour>
  </outline>
</glyph>
